<svg width="180" height="113" viewBox="0 0 180 113" fill="none" xmlns="http://www.w3.org/2000/svg">
<g clip-path="url(#clip0_72_446)">
<path d="M180 56.5C180 25.3436 154.744 0 123.705 0H56.2947C41.2569 0 27.1213 5.87848 16.4869 16.547C5.85244 27.2155 0 41.4074 0 56.5C0 71.5926 5.85244 85.7798 16.4869 96.453C27.1213 107.126 41.2569 113 56.2947 113H123.705C154.748 113 180 87.6564 180 56.5ZM18.6605 94.2714C8.61038 84.18 3.0758 70.7669 3.0758 56.5C3.0758 42.2331 8.61038 28.82 18.6652 18.7332C28.7153 8.64178 42.0796 3.08702 56.2947 3.08702H105.297C101.375 4.44287 97.6171 6.24442 94.0785 8.44943H56.2947C29.8979 8.44943 8.41873 30.007 8.41873 56.5C8.41873 69.7489 13.7897 81.7592 22.4562 90.4619C31.1273 99.1647 43.094 104.551 56.2947 104.551C82.6915 104.551 104.171 82.993 104.171 56.5C104.171 51.2643 106.204 46.3382 109.892 42.6366C113.58 38.9349 118.489 36.8941 123.705 36.8941C128.922 36.8941 133.83 38.9349 137.518 42.6366C141.207 46.3382 143.24 51.2643 143.24 56.5C143.24 61.7357 141.207 66.6618 137.518 70.3634C133.83 74.0651 128.922 76.1059 123.705 76.1059H109.088C109.733 74.3559 110.299 72.5685 110.776 70.7388H123.705C131.53 70.7388 137.897 64.3489 137.897 56.4953C137.897 48.6417 131.53 42.2518 123.705 42.2518C115.88 42.2518 109.514 48.6417 109.514 56.4953C109.514 85.9487 85.6364 109.908 56.2947 109.908C42.0796 109.908 28.7153 104.354 18.6605 94.2668V94.2714ZM103.231 87.647H123.705C140.814 87.647 154.739 73.6757 154.739 56.5C154.739 39.3243 140.819 25.353 123.705 25.353C106.592 25.353 92.6715 39.3243 92.6715 56.5C92.6715 66.249 88.8851 75.4209 82.0183 82.3175C75.1469 89.214 66.0129 93.0094 56.2947 93.0094C46.5765 93.0094 37.4425 89.2093 30.5711 82.3175C23.6996 75.4209 19.9133 66.2537 19.9179 56.5C19.9179 46.7463 23.7043 37.5791 30.5711 30.6826C37.4425 23.786 46.5765 19.9859 56.2947 19.9906H80.7562C79.3025 21.7077 77.9469 23.4951 76.7175 25.353H56.29C48.0022 25.353 40.2052 28.5901 34.348 34.4733C28.4862 40.3565 25.2562 48.1772 25.2609 56.4953C25.2609 65.0808 28.7433 72.8687 34.3621 78.5079C39.9808 84.1471 47.7404 87.6423 56.2947 87.6423C73.4079 87.6423 87.3285 73.671 87.3285 56.4953C87.3285 46.7416 91.1149 37.5744 97.9817 30.6779C104.848 23.7813 113.987 19.9812 123.705 19.9859C133.424 19.9859 142.557 23.786 149.429 30.6779C156.3 37.5744 160.087 46.7416 160.082 56.4953C160.082 76.6266 143.763 93.0047 123.705 93.0047H99.2064C100.651 91.3017 101.997 89.5095 103.231 87.6423V87.647ZM96.4017 96.1011H123.705C145.46 96.1011 163.158 78.339 163.158 56.5047C163.158 45.9253 159.054 35.984 151.603 28.5057C144.151 21.0274 134.242 16.9082 123.705 16.9082C113.164 16.9082 103.259 21.0274 95.808 28.5057C88.3569 35.984 84.2527 45.93 84.2527 56.5047C84.2527 71.9773 71.7111 84.5647 56.2947 84.5647C40.8783 84.5647 28.3367 71.9773 28.3367 56.5047C28.3367 49.0076 31.2442 41.961 36.5263 36.6642C41.8085 31.3675 48.8249 28.4447 56.2947 28.4447H74.8337C73.838 30.1853 72.9358 31.9774 72.1365 33.8118H56.2947C50.2553 33.8118 44.5758 36.1716 40.3033 40.4597C36.0309 44.7477 33.6796 50.4432 33.6796 56.5094C33.6796 62.5708 36.0309 68.271 40.3033 72.5591C44.5758 76.8471 50.2506 79.207 56.2947 79.207C62.3341 79.207 68.0136 76.8471 72.2861 72.5591C76.5585 68.271 78.9098 62.5755 78.9098 56.5094C78.9098 31.7147 99.0054 11.5458 123.71 11.5458C148.415 11.5458 168.51 31.7147 168.51 56.5094C168.51 81.3041 148.415 101.473 123.71 101.473H90.3389C92.4892 99.8309 94.5132 98.0387 96.4064 96.1058L96.4017 96.1011ZM83.8975 16.547C83.7806 16.6643 83.6778 16.7863 83.5609 16.8989H56.2947C45.7538 16.8989 35.8485 21.018 28.3974 28.4963C20.9463 35.9746 16.8421 45.9206 16.8421 56.4953C16.8421 67.0747 20.9463 77.016 28.3974 84.4943C35.8485 91.9726 45.7584 96.0918 56.2947 96.0918C78.0497 96.0918 95.7473 78.3297 95.7473 56.4953C95.7473 41.0227 108.289 28.4353 123.705 28.4353C139.122 28.4353 151.663 41.0227 151.663 56.4953C151.663 71.9679 139.122 84.5506 123.705 84.5553H105.124C106.115 82.8194 107.022 81.032 107.831 79.1882H123.705C129.745 79.1882 135.424 76.8284 139.697 72.5403C143.969 68.2523 146.32 62.5568 146.32 56.4906C146.32 50.4292 143.969 44.729 139.697 40.4409C135.424 36.1529 129.749 33.793 123.705 33.793C117.666 33.793 111.986 36.1529 107.714 40.4409C103.441 44.729 101.09 50.4245 101.09 56.4906C101.09 81.2853 80.9946 101.454 56.29 101.454C31.5854 101.454 11.4899 81.2853 11.4899 56.4906C11.4899 31.6959 31.5854 11.5271 56.29 11.5271H89.6144C87.6184 13.0612 85.7018 14.722 83.8928 16.5376L83.8975 16.547ZM112.589 56.5C112.589 50.3494 117.577 45.3436 123.705 45.3436C129.834 45.3436 134.821 50.3447 134.821 56.5C134.821 62.6506 129.834 67.6564 123.705 67.6564H111.482C112.206 64.0487 112.589 60.3189 112.589 56.5ZM123.705 109.913H74.6093C78.5779 108.538 82.3502 106.737 85.8654 104.551H123.701C150.097 104.551 171.577 82.993 171.577 56.5C171.577 30.007 150.097 8.44943 123.701 8.44943C97.3039 8.44943 75.8247 30.007 75.8247 56.5C75.8247 61.7357 73.7913 66.6618 70.1031 70.3634C66.4149 74.0651 61.5067 76.1059 56.29 76.1059C51.0733 76.1059 46.1651 74.0651 42.477 70.3634C38.7888 66.6618 36.7554 61.7357 36.7554 56.5C36.7554 51.2643 38.7888 46.3382 42.477 42.6366C46.1651 38.9349 51.0733 36.8941 56.29 36.8941H70.8837C70.2387 38.6488 69.6777 40.4409 69.2103 42.2565H56.29C48.465 42.2565 42.0983 48.6464 42.0983 56.5C42.0983 60.4268 43.6876 63.9877 46.2586 66.568C48.8296 69.1483 52.3775 70.7435 56.29 70.7435C64.1151 70.7435 70.4817 64.3536 70.4817 56.5C70.4817 42.2331 76.0163 28.82 86.0711 18.7332C96.1212 8.64648 109.486 3.08702 123.705 3.08702C153.052 3.08702 176.924 27.0466 176.924 56.5C176.924 85.9534 153.047 109.913 123.705 109.913ZM67.4106 56.5C67.4106 62.6506 62.4229 67.6564 56.2947 67.6564C50.1665 67.6564 45.1788 62.6553 45.1788 56.5C45.1788 50.3494 50.1665 45.3436 56.2947 45.3436H68.4997C67.7799 48.9795 67.4106 52.7093 67.4106 56.5Z" fill="#5F36B2"/>
</g>
<defs>
<clipPath id="clip0_72_446">
<rect width="180" height="113" fill="white"/>
</clipPath>
</defs>
</svg>
