<svg width="180" height="180" viewBox="0 0 180 180" fill="none" xmlns="http://www.w3.org/2000/svg">
<g clip-path="url(#clip0_41_2)">
<rect width="180" height="180" fill="white"/>
<path d="M89.9223 0L91.5379 0.0092388C94.0028 0.0553877 95.6277 0.166139 97.0587 0.276896C98.3512 0.369194 100.068 0.563016 101.352 0.719922C103.937 1.03373 107.343 1.70751 109.9 2.22438C113.076 2.87047 119.705 4.8641 123.49 6.47009C125.42 7.29154 128.023 8.32526 129.86 9.33131C131.697 10.3374 134.172 11.5926 135.963 12.654C137.754 13.7155 140.136 15.1738 141.797 16.4475C143.459 17.7212 145.702 19.3364 147.3 20.6563C148.897 21.9761 150.965 23.8221 152.451 25.2619C154.79 27.5201 157.852 30.9628 161.637 35.59C162.957 37.196 164.49 39.5127 165.625 41.2664C166.761 43.02 168.109 45.4475 169.17 47.2473C170.232 49.0471 171.414 51.5945 172.263 53.5143C173.971 57.3816 175.716 62.7533 176.962 66.7959C177.599 68.845 178.107 71.6693 178.532 73.7644C179.086 76.5149 179.603 80.2437 179.732 83.0588C179.833 85.274 180.009 88.2183 180 90.4334C179.99 92.6486 179.824 95.5929 179.667 97.7988C179.51 100.005 179.196 102.875 178.753 105.007C177.876 109.188 176.565 114.754 175.273 118.824C174.636 120.836 173.657 123.485 172.752 125.396C171.848 127.306 170.721 129.854 169.743 131.709C168.764 133.564 167.379 135.973 166.272 137.745C165.164 139.517 163.659 141.853 162.357 143.477C159.763 146.707 156.19 150.944 153.3 153.925C151.851 155.411 149.783 157.257 148.195 158.605C146.607 159.952 144.382 161.595 142.757 162.878C141.133 164.161 138.714 165.582 136.978 166.745C134.245 168.564 127.441 172.015 124.524 173.114C122.355 173.935 119.502 175.144 117.268 175.781C113.353 176.889 108.082 178.227 104.066 178.901C101.832 179.279 97.2248 179.704 93.3658 179.888C92.3134 179.935 90.8824 180.008 89.7653 179.999C89.3683 179.999 88.9714 179.999 88.5744 179.99C86.8295 179.962 85.7309 179.907 84.5584 179.842C86.211 179.944 87.8819 179.99 89.5622 179.99C87.8819 179.99 86.2202 179.944 84.5584 179.842C82.7489 179.704 80.3394 179.492 78.5391 179.279C77.2743 179.132 75.5848 178.892 74.3385 178.642C71.5873 178.107 65.8542 176.981 61.0997 175.255C57.1668 173.825 51.9876 171.702 48.2856 169.754C41.5277 166.21 36.7086 162.518 36.5055 162.361C33.2835 159.878 30.2369 157.534 26.0547 153.307C21.9649 149.181 18.9276 145.304 17.0996 142.776C16.0656 141.354 12.9359 137.016 9.82472 130.943C7.90445 127.196 5.78109 121.99 4.41474 118.012C1.94977 110.813 0.408001 101.435 0.214127 96.9404C0.0387177 92.9993 -0.13669 87.7199 0.158737 83.7787C0.352611 81.2682 0.740374 76.1826 2.30983 69.4818C4.61785 59.6244 8.34761 51.1145 12.899 43.5461C16.1487 38.1467 21.8634 30.0983 30.6338 22.3915C32.1941 21.0255 34.3451 19.2718 36.0069 18.0258C37.6687 16.7797 40.0044 15.2568 41.7216 14.0662C43.4387 12.8756 45.9222 11.6111 47.7224 10.5589C49.5227 9.50668 52.1169 8.3345 54.0556 7.49459C55.9944 6.65468 58.607 5.68555 60.5735 4.94716C62.6415 4.16263 65.4942 3.36887 67.6452 2.82431C69.7963 2.27975 72.5382 1.67983 74.6616 1.31987C79.6008 0.489186 87.2542 0.0276984 89.9684 0.0092388L89.9223 0Z" fill="url(#paint0_radial_41_2)"/>
<mask id="mask0_41_2" style="mask-type:luminance" maskUnits="userSpaceOnUse" x="0" y="0" width="181" height="180">
<path d="M0.0398771 89.5749C0.00332909 87.3637 0.0946947 84.4033 0.377942 82.2013C0.661189 79.9993 0.9353 77.1485 1.29164 74.9922C1.64799 72.8359 2.16878 70.0399 2.76269 67.975C4.4439 62.1821 5.95457 57.7233 7.29467 54.5984C10.3373 47.4989 13.7454 42.3 13.7819 42.2543C14.9423 40.5274 16.4591 38.1975 17.7017 36.5254C18.9443 34.8533 20.6712 32.697 22.0326 31.1254C23.7595 29.1427 27.1585 25.3782 31.8641 21.4036C34.2031 19.4209 38.0316 16.3691 43.0843 13.2626C48.2833 10.0737 52.7239 8.03619 55.5381 6.89406C57.6853 6.01691 60.5634 4.86565 62.7929 4.2352C66.7126 3.12962 72.003 1.88698 75.9958 1.11033C76.0141 1.11033 78.1613 0.708312 83.6892 0.306283C84.3379 0.260598 86.1014 0.141818 88.3399 0.0504481C89.9572 -0.013511 91.0354 0.0138922 91.0354 0.0138922C91.3826 0.0138922 91.7206 0.0230331 92.0678 0.0321701C92.4333 0.0321701 93.4018 0.0687238 94.544 0.123546C96.1033 0.202733 98.4241 0.406791 101.506 0.735724C102.557 0.845368 103.946 1.09206 104.997 1.24739C107.235 1.58546 110.168 2.29814 112.379 2.80982C115.989 3.64128 122.092 5.75194 125.482 7.26868C133.056 10.6494 136.556 12.8788 137.808 13.7377C139.525 14.9072 141.91 16.3509 143.537 17.6483C146.771 20.2432 151.011 23.8067 153.989 26.694C154.172 26.8676 158.485 31.0797 162.944 37.2289C166.425 42.0259 168.819 46.3111 170.217 49.0614C171.03 50.6695 173.515 55.5486 175.626 61.9994C176.951 66.0653 178.221 71.648 178.979 75.8511C179.299 77.6602 180.057 82.6947 180.094 90.4337C180.112 94.3535 179.536 99.5708 179.089 103.463C178.842 105.61 178.303 108.443 177.736 110.526C177.17 112.609 176.494 115.35 175.836 117.379C175.178 119.407 174.228 122.048 173.424 124.003C172.336 126.644 170.454 130.993 167.147 136.466C164.104 141.51 161.089 145.338 159.079 147.732C155.36 152.182 151.778 155.544 149.412 157.618C147.849 158.989 145.693 160.743 144.03 161.995C142.367 163.247 140.055 164.772 138.338 165.942C138.283 165.979 132.974 169.487 126.012 172.512C122.777 173.919 118.248 175.478 112.425 177.19C110.442 177.774 107.72 178.24 105.691 178.642C105.691 178.642 104.595 178.834 103.151 179.026C98.0982 179.675 92.5064 179.958 90.5876 179.995C88.413 180.031 85.2516 179.867 84.6394 179.839C39.5118 177.135 3.76776 137.891 3.99619 90.0317C4.23375 40.4178 43.0386 0.0413122 90.5054 0.0230382C43.0478 0.0413122 4.23375 40.4086 3.99619 90.0317C3.76776 137.891 39.5118 177.144 84.6394 179.839C82.8486 179.711 80.4547 179.538 78.673 179.282C77.3847 179.099 75.6577 178.862 74.3694 178.633C72.9989 178.387 71.1715 178.067 69.8284 177.71C65.7989 176.641 60.4995 174.951 56.5797 173.553C54.5878 172.84 52.0477 171.616 50.1564 170.675C43.2488 167.249 38.2691 163.594 38.2234 163.557C36.5696 162.296 34.2671 160.734 32.723 159.345C29.6346 156.586 25.6144 152.776 22.7819 149.751C21.3656 148.234 19.6387 146.06 18.3778 144.406C17.1169 142.752 15.5911 140.441 14.3941 138.732C13.1972 137.023 11.9088 134.547 10.8489 132.747C8.47333 128.736 6.06114 122.358 5.15658 119.965C4.00532 116.922 2.21448 110.535 1.49266 106.232C0.259162 98.922 0.122101 95.7789 0.0307312 89.5657L0.0398771 89.5749Z" fill="white"/>
</mask>
<g mask="url(#mask0_41_2)">
<path d="M6.77391 124.012C7.35868 125.447 8.60131 128.224 9.08557 128.499C9.5607 128.151 6.06122 119.462 5.25716 119.005C4.9191 119.252 6.23483 122.697 6.77391 124.012Z" fill="white"/>
<path d="M0.935323 102.33C1.67542 107.602 2.83582 111.33 3.47541 110.471C4.49876 109.082 2.99115 93.2479 0.962733 92.3525C0.00334681 92.5718 0.368847 98.319 0.926205 102.33" fill="#1D71B8"/>
<path d="M10.3191 48.3396C7.76071 53.2553 6.47238 57.0745 7.50486 56.6908C8.04395 56.4898 9.981 54.37 13.4805 47.7548C14.4673 45.8269 17.6287 39.5132 16.7789 39.0381C16.0297 39.1751 13.8825 41.8157 10.8033 47.435C10.6571 47.7091 10.4653 48.0654 10.3191 48.3396Z" fill="#95C11F"/>
<path d="M1.72113 73.4115C0.917077 77.8064 0.880532 81.0409 1.6389 80.4653C2.89981 79.515 5.87846 66.4582 4.33431 65.5902C3.50284 65.6999 2.3059 70.2227 1.72113 73.4115Z" fill="#F349A1"/>
<path d="M4.7729 61.1771C4.08763 63.507 3.10998 66.5862 2.52521 68.9435C3.32926 65.6999 4.9465 60.5375 6.13431 57.44L4.7729 61.1679" fill="#FCEA10"/>
<path d="M25.3768 27.6077C24.4266 28.5945 22.5901 30.6138 22.453 31.1528C22.453 31.162 22.4713 31.1803 22.4804 31.1894C23.0652 31.1163 29.2327 24.7661 29.4976 23.962C29.4976 23.9529 29.4794 23.9437 29.4794 23.9346C29.1413 23.9803 27.186 25.7254 25.386 27.6077" fill="white"/>
<path d="M3.07338 113.212L3.35665 114.254C2.77189 112.162 1.94041 108.589 1.54752 106.46L3.07338 113.221" fill="#F349A1"/>
<path d="M22.7911 149.751C24.6916 151.734 27.2134 154.393 29.2144 156.275C25.4042 152.766 20.2784 146.919 17.72 143.511C19.2276 145.393 21.1647 147.979 22.7911 149.751Z" fill="#95C11F"/>
<path d="M12.183 134.794C13.3343 136.768 14.7322 138.832 15.0794 138.75C15.4541 138.111 10.9495 130.198 10.0632 129.933C10.045 129.933 10.0267 129.933 10.0175 129.942C9.79824 130.299 10.9769 132.711 12.183 134.794Z" fill="white"/>
<path d="M176.128 63.5618C176.275 64.0461 176.576 65.0146 176.878 66.1293L175.635 61.9994L174.63 59.1029C174.877 59.7791 175.452 61.3598 176.128 63.5527" fill="#FCEA10"/>
<path d="M175.306 118.978C174.794 120.495 174.356 121.637 174.191 122.066L175.836 117.379L176.996 113.441C176.503 115.241 176.211 116.2 175.635 117.982C175.534 118.274 175.407 118.676 175.306 118.969" fill="#95C11F"/>
<path d="M90.478 0.0230467C90.3044 0.0230467 90.1308 0.0230378 89.9572 0.0139008C90.14 0.0139008 90.3227 0.0139097 90.4963 0.0230467C90.4963 0.0230467 90.4781 0.0230467 90.4689 0.0230467" fill="white"/>
<path d="M90.4689 0.0230467C90.2862 0.0139097 90.1126 0.0139008 89.9298 0.0139008C90.1217 0.0139008 90.3136 0.0139047 90.5054 0.0321787C90.4963 0.0321787 90.4872 0.0321787 90.4689 0.0321787" fill="#1D71B8"/>
<path d="M90.6699 0.0230408C90.7796 0.0230408 90.9166 0.0230408 91.0263 0.0230408C90.9715 0.0230408 90.8984 0.0230408 90.8435 0.0230408C90.7248 0.0230408 90.606 0.0230358 90.4963 0.0321728C90.5512 0.0321728 90.6151 0.0321728 90.6699 0.0321728" fill="#FCEA10"/>
<path d="M88.8151 0.0413128C88.9522 0.0413128 89.0801 0.0321808 89.2171 0.0321808C89.1989 0.0321808 89.1806 0.0321808 89.1715 0.0321808H88.8151" fill="#F349A1"/>
<path d="M26.7474 26.0818L26.4276 26.4016C26.4276 26.4016 33.8377 19.7773 33.9382 19.6859L33.9017 19.7133C31.7271 21.5955 28.8032 24.0716 26.7474 26.0818Z" fill="white"/>
<path d="M17.6926 36.5345L13.782 42.2452C15.052 40.235 17.4824 36.7721 18.8713 34.9721L17.6926 36.5345Z" fill="white"/>
<path d="M81.3776 0.489035C84.4202 0.141828 87.3989 -0.0134957 90.4963 0.0230524C87.7735 -0.0226327 86.0192 0.114414 84.5847 0.242332C83.1593 0.342839 82.6202 0.379396 81.3776 0.479903" fill="#95C11F"/>
</g>
<mask id="mask1_41_2" style="mask-type:luminance" maskUnits="userSpaceOnUse" x="0" y="0" width="181" height="180">
<path d="M84.6395 179.839C82.0628 179.62 78.6273 179.245 76.0598 178.907C74.7715 178.734 73.072 178.368 71.7837 178.131C69.2253 177.665 65.8446 176.824 63.3868 175.965C61.3401 175.253 58.599 174.348 56.5888 173.544C54.5787 172.74 52.0934 171.616 50.2112 170.693C43.395 167.331 38.2965 163.594 38.2509 163.557C32.1565 158.97 31.2154 158.23 27.588 154.731C26.3453 153.525 22.5444 149.87 18.3961 144.397C16.7424 142.213 13.8185 138.211 10.8581 132.747C7.1759 125.94 5.24798 120.202 5.16575 119.965C3.90484 116.173 2.5891 112.226 1.5018 106.232C0.706879 101.864 0.451046 100.448 0.0490177 91.7403C-0.0789004 88.8805 0.0490233 85.0429 0.368819 82.1922C1.10892 75.6683 1.43784 73.2196 2.76271 67.975C4.24291 62.0999 6.04292 57.5222 7.29469 54.5984C9.97183 48.3487 12.6398 44.0817 13.7728 42.2543C17.1078 36.9092 22.9555 28.9508 31.8458 21.4036C34.0204 19.558 37.8854 16.4423 43.0569 13.2717C47.7716 10.3753 51.0244 8.85852 55.4467 6.92148C60.4447 4.7286 65.7441 3.33978 68.5857 2.59054C70.5593 2.06973 73.2456 1.57634 75.2557 1.21999C76.5806 0.98243 78.4902 0.772272 79.1116 0.699176C81.9897 0.379381 88.075 -0.0500536 91.0354 0.00476849C91.474 0.0139055 91.9217 0.0139044 92.3602 0.0321784C99.0851 0.205782 104.421 1.13775 105.006 1.23826C108.204 1.81389 112.59 2.60882 118.876 4.71947C122.841 6.05347 127.985 8.2829 131.695 10.2017C133.925 11.3529 138.429 13.8473 143.527 17.6118C147.201 20.3255 150.727 23.3772 154.008 26.6757C157.251 29.9468 160.267 33.4828 162.962 37.2107C165.411 40.5822 168.234 45.3883 170.235 49.034C170.262 49.0888 173.259 54.6715 175.644 61.972C176.969 66.0379 178.175 71.6298 178.997 75.8237C179.418 77.9617 179.683 80.8673 179.847 83.0419C180.012 85.2165 180.03 88.2043 180.112 90.4155C180.194 92.6266 179.957 95.5779 179.774 97.7891C179.463 101.645 178.504 106.725 177.746 110.508C177.325 112.6 176.43 115.305 175.854 117.361C175.836 117.415 173.963 123.601 170.536 130.353C166.882 137.562 163.373 142.204 163.337 142.241C162.067 143.885 160.486 146.17 159.097 147.714C157.708 149.258 155.899 151.359 154.455 152.84C153.012 154.32 151.011 156.238 149.439 157.591C147.868 158.943 145.73 160.716 144.067 161.958C142.404 163.201 140.083 164.718 138.374 165.905C136.666 167.093 134.18 168.363 132.38 169.414C132.326 169.441 126.615 172.603 119.515 175.042C117.578 175.709 114.974 176.541 112.982 177.034C110.991 177.528 108.286 178.112 106.258 178.524C106.166 178.542 105.326 178.706 103.48 178.962C101.241 179.273 96.9379 179.702 92.1775 179.922C89.9938 180.022 87.4628 179.986 84.6577 179.821L84.6395 179.839Z" fill="white"/>
</mask>
<g mask="url(#mask1_41_2)">
<path d="M13.3891 135.607C13.9099 136.512 15.5911 139.463 15.4083 139.728C14.586 139.372 9.93527 131.441 10.2733 130.975C10.8398 131.231 13.1241 135.159 13.3891 135.607Z" fill="white"/>
<path d="M4.78199 63.5527C4.45306 64.6126 2.77183 69.9212 2.30584 70.3963C2.26016 70.3141 2.21449 70.2318 2.52515 68.9435C3.18301 66.6136 4.00534 63.4796 4.77285 61.1771L6.13425 57.4492C6.60024 56.2705 6.70076 56.1608 6.77385 56.0878C6.90177 56.7091 5.28453 61.9628 4.78199 63.5618" fill="#FCEA10"/>
<path d="M2.81751 110.59C3.03679 111.531 3.74035 114.638 3.76776 115.36C3.74949 115.36 3.73122 115.36 3.71294 115.36C3.62157 115.158 3.52108 114.839 3.35661 114.245L3.07334 113.203L1.54748 106.442C1.38301 105.537 1.36472 105.336 1.39213 105.245C1.65711 105.556 2.77182 110.38 2.81751 110.581" fill="#F349A1"/>
<path d="M72.9989 176.815C74.9481 177.534 75.9806 177.93 76.0963 178.003C76.0963 178.003 76.0781 178.03 76.0781 178.039C74.7532 177.994 68.4761 176.093 68.1197 175.353C68.1197 175.344 68.138 175.326 68.138 175.317C68.1654 175.307 68.2111 175.298 68.2385 175.298C68.9329 175.335 70.6507 175.947 72.9989 176.815Z" fill="white"/>
<path d="M75.9776 176.221C77.7136 177.19 77.7045 177.354 77.7045 177.409C77.1654 177.893 71.3177 175.344 71.2446 174.595C71.2263 174.43 71.4639 174.421 71.537 174.421C72.7339 174.476 75.0364 175.7 75.9684 176.221" fill="white"/>
<path d="M60.3533 172.484C64.9401 174.942 65.2142 175.088 65.4152 175.344C65.068 175.563 61.13 174.412 56.4153 172.21C51.7462 169.917 50.5493 168.628 50.5767 168.235C50.6407 168.181 50.7503 168.144 50.8326 168.135C52.1574 168.226 54.8437 169.551 59.6589 172.119C59.8691 172.228 60.1432 172.374 60.3533 172.484Z" fill="#FCEA10"/>
<path d="M24.7189 150.802C28.4468 154.975 30.3382 157.11 30.393 157.207C30.1829 157.134 30.1372 157.125 29.2143 156.284C27.2682 154.347 24.6458 151.789 22.791 149.76C21.256 147.896 19.1636 145.448 17.72 143.52C17.0438 142.606 17.053 142.515 17.053 142.46C17.3758 142.661 19.9311 145.445 24.7189 150.811" fill="#95C11F"/>
<path d="M40.2519 162.552C44.7381 166.052 44.8386 166.445 44.8843 166.609C44.8752 166.627 44.8569 166.646 44.8478 166.664C42.865 166.664 32.2387 158.742 33.2438 158.011C33.2621 157.993 33.2986 157.993 33.326 157.984C34.3311 158.075 37.6387 160.524 40.2427 162.552" fill="#F349A1"/>
<path d="M28.5657 149.925C30.7677 152.611 32.5494 155.398 31.2702 155.169C28.5839 154.694 20.452 145.265 21.9139 144.324C21.9779 144.287 22.051 144.278 22.1058 144.269C23.6499 144.406 27.0032 148.024 28.5565 149.925" fill="#95C11F"/>
<path d="M60.134 170.319C60.5909 170.638 62.8477 172.247 62.1259 172.356C60.5269 172.594 53.93 168.592 54.6152 167.806C54.6792 167.724 54.8071 167.724 54.8894 167.715C56.4792 167.797 59.7685 170.063 60.134 170.328" fill="#F349A1"/>
<path d="M94.4435 179.044C93.4292 179.41 92.2323 179.638 92.0496 179.629V179.611C92.0678 179.593 94.6628 178.113 95.7501 178.058C95.9968 178.076 96.0333 178.167 95.8506 178.341C95.7683 178.423 95.4303 178.697 94.4526 179.054" fill="white"/>
<path d="M104.86 175.024C103.261 176.029 100.821 176.888 100.903 176.267C100.995 175.6 103.937 173.16 105.938 173.06C106.879 173.115 106.312 173.864 105.837 174.302C105.518 174.595 105.125 174.86 104.86 175.024Z" fill="white"/>
<path d="M91.2729 179.492C91.0445 179.611 90.4415 179.885 89.6374 179.986C89.7197 179.958 89.7288 179.922 89.6922 179.785C89.4181 178.524 90.5694 177.902 91.4739 177.857C92.4607 177.912 92.5064 178.524 91.9308 179.054C91.7206 179.246 91.4557 179.401 91.2729 179.492Z" fill="#1D71B8"/>
<path d="M86.4029 179.501C87.5085 179.794 88.477 179.94 89.6374 179.995C86.9877 179.912 85.078 179.565 84.1643 179.392C79.7055 178.478 79.4953 177.71 79.4862 177.683C79.5501 177.601 79.5958 177.592 79.8151 177.573C80.1349 177.592 80.5004 177.61 81.7065 177.957C83.1501 178.377 84.5481 178.944 85.9826 179.383C86.1105 179.419 86.2841 179.465 86.412 179.501" fill="#95C11F"/>
<path d="M88.5409 179.447C88.879 179.757 89.0343 179.867 89.345 179.949C89.2445 179.967 87.7917 179.766 86.7318 179.3C85.4344 178.734 85.5988 178.35 85.6171 178.314C85.6902 178.176 85.8821 178.167 86.0557 178.149C87.1612 178.195 88.0932 179.035 88.5409 179.447Z" fill="#F349A1"/>
<path d="M83.4516 175.81C83.6983 176.166 84.8313 177.939 83.0405 177.61C80.2537 177.098 76.4344 174.111 77.9968 173.206C78.2344 173.069 78.5725 173.051 78.8009 173.032C80.7379 173.105 82.5653 174.522 83.4516 175.81Z" fill="#95C11F"/>
<path d="M81.3867 179.017C82.4375 179.245 83.5065 179.383 84.5481 179.62C83.2781 179.602 77.6405 178.624 76.8365 178.067C76.8547 178.058 76.873 178.049 76.8913 178.039C77.1562 178.049 77.6496 178.149 79.0567 178.487C79.9248 178.697 80.6101 178.853 81.3867 179.026" fill="white"/>
<path d="M95.8323 176.358C94.9643 177.29 93.0089 178.231 92.9633 177.043C92.9267 176.157 94.0232 174.723 95.5399 174.65C96.6181 174.704 96.5633 175.582 95.8323 176.367" fill="#F349A1"/>
<path d="M159.234 145.658C157.315 148.061 155.36 149.696 155.205 149.011C154.958 147.924 159.874 141.199 161.436 141.199C162.121 141.382 160.833 143.657 159.234 145.658Z" fill="white"/>
<path d="M169.559 127.841C168.143 130.774 166.37 132.61 165.986 131.55C165.31 129.714 168.864 122.569 170.463 122.559C171.487 122.788 170.555 125.785 169.559 127.832" fill="white"/>
<path d="M144.788 158.806C140.814 162.205 136.318 164.526 136.501 163.091C136.556 162.644 137.15 161.383 140.485 158.011C144.249 154.338 147.383 152.173 149.092 152.063C150.353 152.291 149.512 154.475 145.455 158.23C145.254 158.404 144.989 158.642 144.788 158.815" fill="#1D71B8"/>
<path d="M107.455 176.486C103.818 177.875 100.008 178.624 99.4323 178.56C99.4323 178.542 99.4231 178.505 99.414 178.487C99.4779 178.432 109.008 172.813 112.37 172.676C113.193 172.749 113.22 173.142 112.443 173.846C111.548 174.65 109.684 175.636 107.445 176.486" fill="#95C11F"/>
<path d="M125.82 169.03C122.348 171.232 117.871 172.923 118.218 171.908C118.638 170.684 126.14 165.138 128.917 165.12C130.297 165.275 128.762 166.847 127.638 167.751C127.117 168.171 126.45 168.637 125.829 169.039" fill="#F349A1"/>
<path d="M123.38 166.225C120.329 168.829 115.532 170.885 115.577 169.14C115.623 167.185 121.215 161.922 124.559 161.94C126.642 162.114 125.637 164.297 123.38 166.225Z" fill="#FCEA10"/>
<path d="M94.2699 179.446C92.9176 179.73 91.7024 179.839 91.5836 179.849C91.6293 179.83 91.675 179.821 91.7207 179.812C92.0496 179.748 92.5521 179.657 93.3653 179.437C94.142 179.227 94.9095 178.971 95.6953 178.761C95.741 178.752 95.8049 178.734 95.8597 178.716C96.0699 178.661 96.3623 178.597 96.5542 178.597C96.5816 178.597 96.6181 178.597 96.6455 178.615C96.6455 178.624 96.6455 178.642 96.6455 178.661C96.4536 178.871 95.4851 179.191 94.2699 179.446Z" fill="white"/>
<path d="M153.898 146.389C151.714 149.148 149.074 150.665 148.946 149.23C148.772 147.321 153.048 141.839 155.15 141.875C156.438 142.058 155.506 144.36 153.907 146.389" fill="#F349A1"/>
<path d="M166.26 42.3731C166.48 42.7203 168.371 45.8086 168.243 46.3934C167.667 46.6035 162.615 38.7183 162.788 37.8594C162.807 37.8594 162.825 37.8503 162.843 37.8411C163.327 38.0056 164.99 40.3173 166.27 42.3731" fill="white"/>
<path d="M156.21 31.5457C157.818 33.5467 158.53 35.1731 157.781 35.164C156.338 35.1457 150.7 28.5122 151.376 27.6077C151.422 27.5528 151.522 27.5346 151.595 27.5254C152.564 27.6716 154.748 29.7275 156.219 31.5457" fill="white"/>
<path d="M177.042 66.7415C177.736 69.3455 177.992 70.8806 177.81 71.2917C176.311 71.0359 171.843 55.1649 172.254 54.2603C172.273 54.2603 172.3 54.2421 172.327 54.2329C172.848 54.5162 173.862 57.038 174.63 59.103L175.635 61.9994L176.878 66.1293C176.923 66.3121 176.996 66.5588 177.042 66.7415Z" fill="#FCEA10"/>
<path d="M174.018 122.532C173.205 124.606 172.117 127.11 171.551 127.256C171.094 126.89 171.907 123.117 173.625 117.644C175.489 111.915 177.143 108.086 177.846 107.885C178.285 108.242 177.627 111.102 176.996 113.441L175.836 117.379L174.191 122.066C174.136 122.203 174.063 122.395 174.009 122.532" fill="#95C11F"/>
<path d="M180.075 91.3566C180.075 91.6307 179.957 98.1089 179.253 98.4012C178.184 97.387 178.294 83.2429 179.381 82.7952C180.057 83.4257 180.112 89.1911 180.075 91.3566Z" fill="#F349A1"/>
<path d="M177.344 101.161C176.649 106.058 174.84 109.119 173.561 107.584C171.633 105.263 172.866 93.0835 175.982 92.6815C177.709 93.0013 177.819 97.8347 177.344 101.161Z" fill="#95C11F"/>
<path d="M164.205 140.614C163.199 142.076 161.509 144.287 160.961 144.406C160.486 143.913 165.657 136.228 166.608 136.018C166.955 136.183 165.63 138.531 164.205 140.614Z" fill="white"/>
<path d="M170.884 54.2969C172.017 57.0745 172.126 59.0847 171.13 58.6187C169.157 57.6867 165.95 49.8929 167.311 49.3446C167.348 49.3264 167.412 49.3264 167.457 49.3264C168.499 49.5182 170.089 52.3507 170.884 54.2969Z" fill="#F349A1"/>
<path d="M94.8729 0.214916C96.1155 0.342834 97.1572 0.534709 97.4039 0.626079C97.3582 0.65349 97.3399 0.662627 96.3257 0.498161C94.9917 0.28801 93.4841 0.0504488 91.5471 0.0139008H91.6384H91.7024C92.1135 0.0139008 93.3653 0.0504549 94.8638 0.205784" fill="white"/>
<path d="M94.4069 0.351984C95.4577 0.562135 96.0059 0.781415 96.0607 0.900196C95.9937 0.967201 95.1958 0.799686 93.6668 0.397658C92.7897 0.169232 92.415 0.123557 91.8485 0.0504608C92.1592 0.0595978 93.3105 0.132696 94.3978 0.351984" fill="white"/>
<path d="M107.729 2.46264C109.785 3.08395 112.133 3.99765 112.416 4.52759C112.416 4.54587 112.398 4.57329 112.398 4.59156C112.093 4.71948 109.379 3.91542 104.257 2.17939C102.53 1.6129 100.757 1.21087 99.012 0.680921C99.012 0.680921 99.0303 0.67178 99.0303 0.662643C99.0577 0.662643 102.21 0.93675 107.007 2.24334C107.226 2.3073 107.509 2.38953 107.729 2.45349" fill="#1D71B8"/>
<path d="M145.318 19.4757C149.384 22.7925 151.33 25.3234 150.298 25.2869C148.571 25.2229 135.322 14.7062 135.048 13.1803C135.085 13.1347 135.167 13.1072 135.222 13.1072C136.574 13.3448 141.28 16.1773 145.318 19.4757Z" fill="#95C11F"/>
<path d="M126.039 8.84026C129.648 10.7682 130.836 12.0382 130.279 12.1844C129.1 12.4859 118.812 6.7296 118.364 5.90727C118.373 5.889 118.382 5.86159 118.392 5.84332C118.428 5.84332 118.474 5.82504 118.51 5.82504C119.561 5.93469 123.152 7.30524 126.03 8.84026" fill="#F349A1"/>
<path d="M139.059 18.6351C142.038 21.2849 142.687 23.1214 141.435 23.1762C138.246 23.3224 130.187 15.3641 131.193 14.3864C131.302 14.2768 131.485 14.2768 131.604 14.2768C133.321 14.4504 136.848 16.6707 139.059 18.6351Z" fill="#95C11F"/>
<path d="M159.682 33.0442C160.742 34.3417 162.295 36.3609 162.24 36.6442C161.719 36.5071 155.707 29.2432 155.799 28.8686C155.799 28.8686 155.808 28.8686 155.817 28.8686C156.191 29.0239 157.991 30.9792 159.682 33.0442Z" fill="white"/>
<path d="M106.577 3.28495C108.295 4.03419 108.935 4.61896 108.56 4.74688C107.793 5.01185 102.639 2.6545 102.265 2.06973C102.265 2.05145 102.283 2.03318 102.292 2.02404C102.329 2.02404 102.365 2.01491 102.402 2.01491C103.16 2.06059 105.189 2.6819 106.587 3.29408" fill="#F349A1"/>
<path d="M81.8436 0.799683C79.1938 1.33572 77.8537 1.59461 77.8233 1.57633C78.4172 1.13776 83.0679 0.342832 85.142 0.242325C84.0547 0.498161 82.94 0.580395 81.8527 0.799683" fill="white"/>
<path d="M91.0445 0.0230467C91.1359 0.0230467 91.2364 0.0230417 91.3278 0.0321787C91.1724 0.0321787 91.008 0.0230378 90.8526 0.0139008C90.9075 0.0139008 90.9806 0.0139008 91.0354 0.0139008C91.0354 0.0139008 91.0354 0.0139008 91.0445 0.0139008" fill="#FCEA10"/>
<path d="M92.3328 0.507301C92.8993 0.881919 92.9085 1.33877 92.3511 1.47582C91.4191 1.70425 90.1399 0.872774 90.5968 0.114403C90.6516 0.0230324 90.6607 0.0230408 90.7156 0.0230408C91.081 0.0230408 91.812 0.169232 92.3328 0.507301Z" fill="#95C11F"/>
<path d="M87.1978 0.288024C85.3887 0.647413 84.4689 0.811873 84.4384 0.781416C84.6394 0.580402 86.3115 0.150965 88.8151 0.0413208H89.1714C88.6871 0.0595948 88.1023 0.105284 87.1978 0.288024Z" fill="#F349A1"/>
<path d="M29.8448 23.231C28.0631 24.8392 26.592 26.2371 26.4276 26.4016L26.7474 26.0818C28.8671 24.1447 31.6814 21.5407 33.9016 19.7133C33.8834 19.7224 32.3027 21.0199 29.8448 23.231Z" fill="white"/>
<path d="M16.3312 38.8097C14.1292 41.9711 13.6175 42.6563 13.4713 42.7842C13.4896 42.7112 13.4987 42.6929 13.7728 42.2452L17.6835 36.5345L18.8621 34.9721C19.1819 34.5609 19.2185 34.5244 19.2641 34.4879C19.2276 34.5884 19.2093 34.6706 16.322 38.8097" fill="white"/>
<path d="M45.5422 12.6047C40.8397 15.4615 38.3361 16.9326 38.0316 17.0179C38.0316 17.0179 38.0133 16.9539 38.0042 16.9265C38.0133 16.9174 39.1463 15.6108 44.7473 12.2849C50.3483 9.04127 53.0162 8.1367 53.0437 8.12756C52.9157 8.25548 52.3401 8.61182 51.3168 9.19659C49.1879 10.4118 48.0092 11.1154 46.3097 12.1296C46.0813 12.2666 45.7798 12.4494 45.5513 12.5864" fill="#1D71B8"/>
<path d="M82.8212 0.44335C80.5917 0.726597 78.4628 1.14691 77.0649 1.42102C75.2466 1.77736 74.6344 1.88699 74.3877 1.86872C74.5796 1.71339 76.672 1.06467 81.3867 0.489037C82.474 0.397667 83.013 0.351987 84.5938 0.25148C83.6526 0.34285 83.077 0.415947 82.8303 0.452495" fill="#95C11F"/>
<path d="M65.3695 4.20778C60.5878 5.91335 58.1086 6.76006 57.932 6.74788C58.1056 5.89814 68.7137 2.45348 71.1898 2.23419C71.135 2.28292 70.7664 2.41388 70.0842 2.62708C69.2162 2.90119 67.5989 3.41286 65.3695 4.19864" fill="#F349A1"/>
<path d="M64.7482 5.87986C58.0416 9.16918 57.1919 9.00472 57.2832 8.61183C57.5665 7.38747 66.7035 3.62302 69.0152 3.50424C69.0426 3.50424 69.0791 3.50424 69.0974 3.50424C69.1065 3.52252 69.1248 3.54992 69.1339 3.56819C68.9969 3.71439 68.8781 3.84231 64.7482 5.87072" fill="#95C11F"/>
<path d="M32.924 22.1986C31.8367 23.1671 29.26 25.4148 28.6935 25.3874C28.3006 24.83 34.9524 18.9641 36.1859 18.7813C36.2042 18.7813 36.2224 18.7813 36.2316 18.7813C36.2498 19.1559 34.1666 21.0747 32.924 22.1803" fill="#F349A1"/>
<path d="M32.0194 27.3518C30.2377 29.2706 28.4651 30.3488 28.5108 29.4899C28.5748 28.2199 32.3575 24.4189 33.6458 24.3275C34.4407 24.4006 33.0702 26.2188 32.0285 27.3518" fill="white"/>
<path d="M23.1474 39.7233C21.7037 41.9071 19.9494 43.168 19.7301 42.1812C19.4103 40.6827 22.5991 36.2696 24.0519 36.1965C24.9839 36.2787 24.0793 38.3071 23.1474 39.7233Z" fill="white"/>
<path d="M44.9757 19.0097C41.3026 22.3722 38.1138 23.6787 38.1778 22.3539C38.2783 20.3529 44.9391 15.0443 47.6802 14.7702C48.8498 14.7702 47.4244 16.6158 45.8346 18.1874C45.5787 18.4432 45.2407 18.763 44.9757 19.0097Z" fill="#1D71B8"/>
<path d="M72.0213 6.20879C67.9644 8.9773 64.9675 9.51639 65.004 8.50219C65.068 6.83011 72.0395 3.61388 74.4882 3.48596C74.8263 3.50424 75.3289 3.54079 73.9766 4.71946C73.4649 5.16718 72.7522 5.70625 72.0213 6.20879Z" fill="#95C11F"/>
<path d="M58.6355 11.7458C55.5929 14.0392 52.9432 14.8433 53.0985 13.7925C53.336 12.2301 58.9279 8.85852 60.8284 8.81284C61.8974 8.87679 60.3624 10.3204 59.6497 10.9326C59.3665 11.1702 58.9553 11.5082 58.6355 11.7458Z" fill="#F349A1"/>
<path d="M61.4772 14.5143C58.8731 17.1093 55.6386 17.9681 55.4924 16.5702C55.3005 14.7336 60.134 11.289 62.336 11.2524C64.0081 11.3438 62.6924 13.2991 61.4772 14.5143Z" fill="#FCEA10"/>
<path d="M80.5004 2.92861C78.8557 3.888 77.5948 4.05247 77.7593 3.61389C78.006 2.98344 80.6648 1.91441 81.4963 1.90527C81.6151 1.90527 81.8435 1.92354 81.4963 2.24334C81.2862 2.43522 80.9207 2.69105 80.5095 2.92861" fill="white"/>
<path d="M36.926 27.6259C35.1717 29.6544 33.0702 30.7234 32.9788 29.6361C32.86 28.2199 36.3686 24.6382 37.9219 24.5925C38.9818 24.6656 37.9768 26.4199 36.926 27.6351" fill="#F349A1"/>
<path d="M4.60839 103.116C4.86422 105.464 4.54442 107.027 3.91397 106.46C2.85407 105.482 1.83987 99.0225 3.06423 98.6662C3.73123 98.7484 4.37996 101.042 4.60839 103.116Z" fill="white"/>
<path d="M10.7667 114.263C11.2419 116.511 10.8307 118 9.89871 117.452C8.15354 116.419 6.79214 110.526 8.17183 110.033C8.20837 110.014 8.26319 110.014 8.30888 110.005C9.29567 110.087 10.3464 112.28 10.7667 114.272" fill="white"/>
<path d="M4.42564 85.1526C4.0967 89.4195 3.07335 92.3251 2.18706 91.4937C0.862191 90.251 1.00838 78.0896 3.30177 77.5323C4.53527 77.7516 4.64492 82.3201 4.42564 85.1526Z" fill="#FCEA10"/>
<path d="M16.7972 45.5984C14.3759 49.8928 11.7261 52.6888 11.2418 51.4644C10.383 49.3081 16.4865 39.102 18.9261 38.6178C20.0591 38.636 18.7342 42.1903 16.8063 45.6076" fill="#95C11F"/>
<path d="M8.12613 64.1557C6.99314 67.6734 5.45815 69.8755 4.95562 68.7059C4.17897 66.8694 6.66423 58.6187 8.54645 58.1618C9.55152 58.2806 8.90278 61.7344 8.12613 64.1557Z" fill="#F349A1"/>
<path d="M14.9149 58.2989C13.4987 61.9354 11.251 64.0644 10.4561 62.5202C9.37791 60.4004 12.2561 52.8898 14.8784 52.4878C16.4225 52.6065 15.8286 55.9598 14.9149 58.2989Z" fill="#95C11F"/>
<path d="M27.1037 30.3122C25.4682 32.1853 23.924 33.3274 23.8692 32.7153C23.7778 31.7559 27.4692 27.4341 28.8671 27.1965C29.5067 27.2605 28.127 29.1427 27.1037 30.3214" fill="white"/>
<path d="M7.13936 93.2205C7.11195 95.7972 6.28964 97.4235 5.43989 96.5647C4.16985 95.2672 3.98709 88.9718 5.65003 88.6429C6.60028 88.7343 7.15764 91.0825 7.13936 93.2205Z" fill="#F349A1"/>
<path d="M51.5269 160.697C52.3767 161.776 52.6965 162.808 51.6549 162.698C49.5442 162.479 45.8803 158.76 47.0407 158.02C47.1595 157.947 47.3239 157.929 47.4153 157.929C48.8041 158.002 50.6589 159.592 51.5269 160.697Z" fill="white"/>
<path d="M59.2021 160.542C60.0427 161.967 59.5858 162.845 58.2061 162.461C55.7483 161.775 53.2995 158.504 54.7706 157.847C54.9442 157.764 55.1544 157.755 55.2366 157.755C56.7351 157.828 58.4345 159.226 59.2021 160.542Z" fill="white"/>
<path d="M40.7635 153.022C42.5727 155.608 42.7554 157.426 41.1839 157.17C37.456 156.558 31.3159 149.413 33.1707 147.851C33.3626 147.686 33.6184 147.659 33.8286 147.641C35.5829 147.641 38.6894 150.062 40.7635 153.031" fill="#1D71B8"/>
<path d="M15.0611 127.384C16.6327 131.486 16.6144 134.2 15.0154 133.433C11.653 131.815 7.01141 120.495 9.35962 119.672C9.41444 119.654 9.48755 119.645 9.54237 119.636C11.4794 119.864 13.9555 124.515 15.052 127.384" fill="#95C11F"/>
<path d="M26.1992 140.879C27.5697 143.465 27.5331 145.155 26.126 144.708C23.1382 143.776 18.7708 136.567 20.6256 135.635C20.7444 135.571 20.8814 135.561 20.9362 135.561C22.6997 135.689 25.0844 138.741 26.1992 140.87" fill="#F349A1"/>
<path d="M22.7545 128.937C23.7504 131.989 23.0651 133.88 21.256 133.067C18.0032 131.614 15.1342 124.149 17.455 123.208C17.519 123.181 17.656 123.135 17.857 123.126C19.9768 123.272 21.9961 126.616 22.7545 128.937Z" fill="#95C11F"/>
<path d="M5.53122 111.887C5.98807 114.044 5.9241 115.506 5.38502 115.131C4.19721 114.309 2.73531 107.721 3.6947 107.547C4.34342 107.648 5.15662 110.151 5.5221 111.887" fill="white"/>
<path d="M44.7107 151.442C45.6427 153.123 45.2224 154.155 43.797 153.707C41.2935 152.913 38.7077 149.084 40.1513 148.308C40.3158 148.225 40.5168 148.207 40.6173 148.198C42.2529 148.289 43.9889 150.144 44.7016 151.432" fill="#F349A1"/>
<path d="M96.2983 169.487C95.6495 170.986 93.5389 171.625 92.8993 170.154C92.4425 169.094 93.2009 167.413 95.01 167.331C96.3531 167.404 96.7277 168.509 96.2983 169.487Z" fill="white"/>
<path d="M104.202 163.53C103.115 165.549 100.483 166.052 99.9988 164.343C99.6424 163.091 100.858 161.017 102.968 160.926C104.549 161.017 104.841 162.351 104.202 163.539" fill="white"/>
<path d="M89.5917 169.789C89.3085 172.475 86.2202 173.526 84.0181 170.849C82.3826 168.857 83.0496 166.189 85.9917 166.079C88.5684 166.225 89.7653 168.098 89.5917 169.798" fill="#1D71B8"/>
<path d="M69.673 167.742C70.7238 169.277 71.3725 171.379 68.8598 170.913C64.9492 170.172 59.2843 165.111 61.4223 163.512C61.7695 163.256 62.1442 163.228 62.5462 163.201C64.7573 163.201 67.9553 165.248 69.673 167.742Z" fill="#95C11F"/>
<path d="M78.9471 168.747C79.5227 170.52 78.2801 171.707 75.8679 170.52C73.0903 169.149 71.8385 166.371 73.6751 165.64C73.9674 165.522 74.2872 165.503 74.5248 165.494C76.6537 165.586 78.4446 167.221 78.9471 168.747Z" fill="#F349A1"/>
<path d="M72.4141 161.3C73.0628 163.557 71.3268 165.065 68.4578 163.548C65.0954 161.766 63.9258 158.02 66.5299 157.381C66.7309 157.326 67.0141 157.317 67.2243 157.298C69.7827 157.408 71.8659 159.418 72.405 161.3" fill="#FCEA10"/>
<path d="M57.7401 165.403C58.5259 166.253 59.0101 167.176 58.2152 167.194C56.4609 167.23 52.4406 163.85 53.3361 163.073C53.4366 162.982 53.601 162.972 53.7198 162.963C54.9899 163.027 56.8447 164.425 57.7492 165.403" fill="white"/>
<path d="M92.479 164.197C92.0496 166.17 89.5186 166.673 88.4496 165.001C87.5724 163.639 88.3582 161.73 90.3592 161.638C91.9947 161.721 92.7349 163.027 92.479 164.197Z" fill="#F349A1"/>
<path d="M149.741 140.02C148.133 142.533 145.62 143.538 145.337 141.784C144.999 139.746 147.721 136.238 149.613 136.265C151.075 136.42 150.819 138.33 149.741 140.02Z" fill="white"/>
<path d="M156.009 125.949C154.748 128.764 152.171 129.897 151.495 127.923C150.718 125.657 153.039 121.765 155.15 121.783C156.758 121.947 156.84 124.076 156.009 125.949Z" fill="white"/>
<path d="M139.078 149.888C136.364 153.543 131.467 155.681 131.092 152.666C130.754 149.897 134.792 144.306 138.804 144.141C141.179 144.214 141.307 146.9 139.078 149.897" fill="#FCEA10"/>
<path d="M111.539 166.161C108.999 169.186 104.028 171.132 103.855 167.824C103.727 165.403 106.778 161.447 110.643 161.319C113.531 161.529 113.357 163.996 111.539 166.161Z" fill="#95C11F"/>
<path d="M123.782 158.806C121.571 161.465 117.706 162.89 117.423 160.551C117.149 158.285 120.539 154.484 123.463 154.502C125.729 154.676 125.391 156.869 123.782 158.806Z" fill="#F349A1"/>
<path d="M118.181 155.078C116.272 158.139 112.005 159.564 111.219 156.704C110.506 154.082 113.631 150.491 116.619 150.5C119.241 150.674 119.47 153.013 118.181 155.078Z" fill="#95C11F"/>
<path d="M99.4871 170.885C98.546 172.301 96.5176 172.886 96.2526 171.479C96.0425 170.383 97.3034 168.829 98.7562 168.829C99.9988 168.902 100.108 169.953 99.4871 170.885Z" fill="white"/>
<path d="M142.303 139.372C140.777 142.021 137.835 142.962 137.387 140.943C136.912 138.823 139.443 135.58 141.554 135.598C143.272 135.744 143.281 137.672 142.312 139.362" fill="#F349A1"/>
<path d="M167.092 61.0583C167.658 63.4065 166.891 64.8501 165.548 63.973C163.4 62.575 162.14 57.2025 163.876 56.8735C163.93 56.8644 164.004 56.8735 164.049 56.8644C165.338 57.0197 166.635 59.1669 167.083 61.0583" fill="white"/>
<path d="M157.955 50.3954C158.677 52.6065 157.827 53.9588 156.237 53.1365C153.816 51.8756 152.18 47.1883 153.944 46.5304C154.053 46.4847 154.218 46.4756 154.337 46.4665C155.826 46.6127 157.379 48.6137 157.955 50.3954Z" fill="white"/>
<path d="M172.071 78.5374C172.391 83.2886 170.335 86.0846 168.06 83.9648C164.908 81.0318 164.168 71.0633 167.96 70.8714C170.463 71.246 171.87 75.577 172.071 78.5374Z" fill="#1D71B8"/>
<path d="M166.224 120.312C164.195 125.675 160.139 128.352 158.731 125.255C157.023 121.49 160.687 112.244 164.899 112.006C167.265 112.143 167.878 115.944 166.224 120.303" fill="#95C11F"/>
<path d="M170.619 100.229C169.924 104.322 167.476 106.433 165.931 104.267C163.912 101.426 165.219 93.7414 168.435 93.5129C170.436 93.7688 171.121 97.1952 170.61 100.238" fill="#F349A1"/>
<path d="M162.77 106.058C161.792 110.225 158.448 112.244 156.694 109.722C154.565 106.643 156.411 99.6896 160.212 99.4703C162.679 99.717 163.455 103.079 162.761 106.058" fill="#95C11F"/>
<path d="M155.524 136.749C154.044 139.198 151.833 140.34 151.44 138.86C150.965 137.069 153.478 133.04 155.57 132.921C156.886 133.067 156.566 135.022 155.524 136.749Z" fill="white"/>
<path d="M164.314 70.0674C164.597 72.6531 163.245 74.1516 161.674 72.9729C159.389 71.2643 158.969 66.0288 161.089 65.6999C161.153 65.6907 161.244 65.6907 161.317 65.6907C162.889 65.8552 164.095 68.0938 164.314 70.0765" fill="#F349A1"/>
<path d="M114.353 10.0646C115.303 11.0514 115.102 11.6362 114.362 11.6088C112.489 11.5448 109.647 8.79457 110.378 8.20067C110.461 8.13671 110.589 8.10016 110.753 8.10016C111.849 8.17325 113.503 9.16919 114.353 10.0555" fill="white"/>
<path d="M107.783 10.0372C108.432 11.0514 107.966 11.7732 106.797 11.5448C104.869 11.1793 103.279 8.92249 104.101 8.24635C104.193 8.17326 104.357 8.08188 104.659 8.08188C105.819 8.15497 107.208 9.14178 107.783 10.0281" fill="white"/>
<path d="M127.081 16.3783C129.091 18.5803 128.716 19.9783 127.117 19.896C123.444 19.7133 118.09 13.8473 119.479 12.5407C119.68 12.3489 119.936 12.3397 120.21 12.3306C121.937 12.3946 125.208 14.3133 127.081 16.3692" fill="#1D71B8"/>
<path d="M155.981 39.0929C158.01 42.7934 157.434 45.434 154.793 44.5294C150.536 43.0766 145.227 33.9579 147.776 32.4868C148.014 32.3498 148.288 32.3406 148.489 32.3315C150.992 32.6239 154.327 36.0685 155.981 39.0838" fill="#FCEA10"/>
<path d="M141.38 26.895C142.815 29.0148 142.605 30.5315 140.905 30.2757C137.57 29.7823 133.331 23.9437 134.674 22.692C134.738 22.6371 134.911 22.4727 135.386 22.4727C137.296 22.6463 140.028 24.894 141.38 26.8858" fill="#F349A1"/>
<path d="M145.382 37.2655C146.579 39.9974 145.446 41.77 143.052 40.9203C139.352 39.5954 136.282 33.4188 138.795 32.3315C139.059 32.2127 139.37 32.2036 139.525 32.2036C141.865 32.4046 144.386 34.9904 145.382 37.2655Z" fill="#95C11F"/>
<path d="M165.475 53.0817C166.215 55.2197 165.767 56.5629 164.552 55.905C162.469 54.7903 160.531 49.6187 161.993 49.0797C162.103 49.0431 162.204 49.0431 162.24 49.0431C163.437 49.2076 164.853 51.2634 165.484 53.0817" fill="white"/>
<path d="M120.612 17.292C121.425 18.562 120.941 19.4666 119.607 19.1925C117.249 18.7082 115.139 15.5834 116.263 14.8889C116.317 14.8524 116.473 14.761 116.82 14.761C118.191 14.8524 119.881 16.1407 120.612 17.2829" fill="#F349A1"/>
<path d="M81.9167 3.72353C80.7014 4.7286 79.075 5.04841 79.0933 4.44536C79.1116 3.75095 81.204 2.61796 82.2821 2.56314C82.9857 2.59055 82.4283 3.26669 82.0354 3.61389C81.9989 3.65044 81.9532 3.68698 81.9167 3.72353Z" fill="white"/>
<path d="M73.8029 7.73467C72.2222 9.15091 70.2303 9.58035 70.2303 8.73975C70.2303 7.81691 72.743 6.1357 74.2324 6.05347C75.2283 6.09915 74.4973 7.10422 73.8029 7.73467Z" fill="white"/>
<path d="M88.2668 3.63216C87.5176 5.51438 84.4841 6.12656 83.8902 4.88392C83.2872 3.63215 85.8455 1.85957 87.3714 1.81389C88.6689 1.88698 88.4404 3.18444 88.2668 3.64129" fill="#1D71B8"/>
<path d="M102.265 5.08494C103.562 6.41894 103.297 7.56107 101.689 7.57934C98.6556 7.61589 95.7318 3.76007 96.7186 2.80982C96.8922 2.63622 97.1663 2.62709 97.349 2.61795C98.5186 2.64536 100.967 3.75094 102.265 5.08494Z" fill="#95C11F"/>
<path d="M94.544 4.31744C94.946 5.70627 93.2648 6.34585 91.9582 5.65144C90.3775 4.8017 90.7156 2.9743 91.8394 2.62709C92.0039 2.57227 92.1592 2.57228 92.2689 2.56314C93.3379 2.61796 94.3156 3.51338 94.5531 4.32658" fill="#F349A1"/>
<path d="M99.0211 9.51639C99.5876 11.6362 97.148 12.422 95.2658 11.2433C93.1643 9.92756 93.4201 7.26868 95.2018 6.89406C95.3298 6.86665 95.5125 6.85753 95.6496 6.84839C97.4039 6.93062 98.7379 8.44735 99.0211 9.50725" fill="#95C11F"/>
<path d="M108.853 6.59255C109.638 7.25955 109.794 7.81692 109.218 7.89002C107.811 8.06362 104.814 5.69712 105.243 5.12149C105.307 5.03012 105.435 5.021 105.563 5.021C106.477 5.07582 108.03 5.889 108.853 6.59255Z" fill="white"/>
<path d="M82.8577 7.20474C81.8983 8.72148 79.6232 9.00472 79.4405 7.92656C79.2943 7.05854 80.7745 5.6423 82.2547 5.57834C83.342 5.62402 83.2598 6.55601 82.8577 7.20474Z" fill="#F349A1"/>
<path d="M13.8642 74.5902C13.4439 76.6917 12.1738 77.9343 11.4428 76.975C10.4378 75.6684 11.3058 71.4745 12.9505 71.31C14.0743 71.4288 14.1017 73.3841 13.8642 74.5902Z" fill="white"/>
<path d="M16.2581 85.5454C16.0479 87.72 14.7687 89.0084 13.8093 88.0033C12.5027 86.6419 12.9413 82.3018 14.787 82.1373C16.0845 82.2652 16.3769 84.2937 16.2581 85.5454Z" fill="white"/>
<path d="M19.2185 61.9172C18.0489 65.6542 15.317 67.774 14.2571 65.773C12.8774 63.1598 15.5911 56.8827 18.1768 56.6999C19.8215 56.7822 19.9951 59.4136 19.2093 61.9172" fill="#1D71B8"/>
<path d="M36.2681 36.0411C34.0021 39.8147 30.0184 41.8249 29.4976 39.4584C28.9311 36.836 33.326 31.4909 36.2133 31.2807C37.995 31.3173 37.6204 33.7752 36.259 36.0411" fill="#95C11F"/>
<path d="M26.5007 48.2299C25.1119 51.1263 22.5718 52.6522 21.8956 50.9984C21.1281 49.1071 23.723 44.3284 26.1261 44.1365C27.7616 44.2827 27.2225 46.7223 26.5007 48.2299Z" fill="#F349A1"/>
<path d="M33.6732 46.7314C32.2296 49.8198 29.1413 51.2634 28.4286 49.171C27.725 47.1335 30.2743 42.8482 32.8143 42.6837C34.7423 42.8299 34.3676 45.2421 33.6732 46.7314Z" fill="#FCEA10"/>
<path d="M44.4823 26.3376C43.1483 28.0371 41.1473 28.8229 41.1016 27.6716C41.0468 26.5478 43.2305 24.1904 44.7107 24.0991C45.8894 24.1904 44.9483 25.7437 44.4823 26.3285" fill="white"/>
<path d="M19.8307 69.6014C19.2824 71.8217 17.6286 73.0003 16.8246 71.7394C15.8926 70.2592 16.9799 66.5313 18.7799 66.3851C20.0956 66.5039 20.1231 68.4227 19.8307 69.6014Z" fill="#F349A1"/>
<path d="M33.3443 133.743C33.9199 135.461 33.1707 136.503 31.8275 135.836C29.8082 134.84 28.6387 131.413 30.1463 130.947C30.2285 130.92 30.3473 130.911 30.4296 130.902C31.4895 130.902 32.8235 132.208 33.3352 133.743" fill="white"/>
<path d="M42.061 136.375C42.5818 138.138 41.4854 139.152 39.9595 138.312C37.8763 137.17 37.0356 134.054 38.6986 133.624C38.79 133.597 38.927 133.588 39.0184 133.579C40.2153 133.579 41.6133 134.867 42.061 136.375Z" fill="white"/>
<path d="M26.8296 123.674C27.6702 126.836 26.3819 128.919 24.2621 127.795C20.8905 126.004 19.1637 119.389 21.8591 118.603C21.9779 118.567 22.1515 118.548 22.2794 118.539C24.253 118.576 26.1717 121.235 26.8205 123.665" fill="#FCEA10"/>
<path d="M14.6682 95.4225C14.723 99.79 12.6672 102.358 10.7393 100.338C7.99821 97.451 8.5373 89.0632 11.4886 88.8256C13.4347 88.9261 14.6317 92.2611 14.6682 95.4225Z" fill="#95C11F"/>
<path d="M19.0449 109.804C19.4286 112.81 17.985 114.546 16.2855 113.13C14.0195 111.239 13.2977 105.364 15.8652 105.099C17.2632 105.099 18.716 107.255 19.0449 109.804Z" fill="#F349A1"/>
<path d="M21.9048 100.539C22.0053 103.883 19.9586 105.629 18.1403 103.746C16.0023 101.553 16.0754 95.9251 18.853 95.6693C20.4063 95.6693 21.8317 97.9535 21.9048 100.539Z" fill="#95C11F"/>
<path d="M11.251 80.5384C10.9495 82.7404 9.8165 84.0013 9.08554 82.9505C8.13529 81.5983 8.74747 77.3952 10.2551 77.2034C11.1231 77.2034 11.4703 78.9211 11.2601 80.5292" fill="white"/>
<path d="M32.193 124.679C32.6225 126.616 31.4895 127.731 30.0275 126.799C28.0722 125.556 27.4235 122.176 29.059 121.71C29.1504 121.682 29.2783 121.673 29.3788 121.664C30.5484 121.664 31.8367 123.053 32.193 124.679Z" fill="#F349A1"/>
<path d="M80.336 155.608C80.4182 157.326 78.3989 157.956 76.9644 156.668C75.5482 155.389 75.9684 153.47 77.6953 153.351C77.741 153.351 77.805 153.351 77.8415 153.351C79.5867 153.452 80.2903 154.795 80.336 155.617" fill="white"/>
<path d="M87.6364 151.305C87.4628 153.287 84.941 153.854 83.6801 152.209C82.6659 150.884 83.3329 148.947 85.3065 148.883C87.1521 149.002 87.7187 150.427 87.6456 151.305" fill="white"/>
<path d="M72.2771 153.534C72.7705 156.147 70.1847 157.847 67.2152 155.91C64.1817 153.945 63.8253 150.235 66.603 149.605C66.9045 149.541 67.1238 149.532 67.3431 149.523C69.9745 149.614 71.9207 151.633 72.2771 153.525" fill="#1D71B8"/>
<path d="M49.1696 145.119C50.4396 148.344 48.7493 150.208 45.8254 148.81C41.7412 146.864 39.4752 141.272 42.3717 140.267C42.6549 140.166 42.9382 140.148 43.1483 140.139C45.6793 140.194 48.2468 142.761 49.1696 145.119Z" fill="#95C11F"/>
<path d="M59.7046 149.413C60.3898 151.761 58.5441 152.949 56.2416 151.652C53.4091 150.053 52.468 146.508 54.7066 145.895C54.9259 145.831 55.1452 145.822 55.3097 145.822C57.7949 145.978 59.3299 148.107 59.7137 149.413" fill="#F349A1"/>
<path d="M55.3827 140.642C55.9584 143.273 53.8295 144.589 51.3899 143.118C48.4752 141.363 47.7716 137.453 50.2386 136.777C50.4853 136.713 50.7229 136.704 50.8873 136.694C53.5645 136.859 55.063 139.207 55.3736 140.642" fill="#95C11F"/>
<path d="M36.6976 139.554C37.3189 141.126 36.7159 142.104 35.4458 141.564C33.4265 140.706 31.9737 137.435 33.3717 136.886C33.4905 136.841 33.6093 136.831 33.7006 136.822C35.1351 136.923 36.2955 138.549 36.6976 139.545" fill="white"/>
<path d="M75.5755 148.911C75.6943 150.811 73.4649 151.515 71.8476 150.089C70.2943 148.71 70.7512 146.553 72.6334 146.425C72.6791 146.425 72.7522 146.425 72.7979 146.425C74.7167 146.535 75.5207 148.015 75.5755 148.92" fill="#F349A1"/>
<path d="M126.35 141.19C125.418 143.273 122.796 144.013 122.165 142.378C121.599 140.897 123.079 138.549 125.116 138.476C126.432 138.513 126.999 139.755 126.35 141.19Z" fill="white"/>
<path d="M131.905 131.093C131.046 133.378 128.305 134.182 127.519 132.382C126.816 130.774 128.25 128.215 130.416 128.142C131.805 128.179 132.49 129.531 131.905 131.093Z" fill="white"/>
<path d="M117.971 146.59C116.518 150.19 111.831 151.396 110.707 148.463C109.748 145.968 112.078 142.323 115.513 142.222C118.09 142.314 118.794 144.561 117.971 146.59Z" fill="#1D71B8"/>
<path d="M96.0516 155.599C95.3024 159.281 90.6882 160.359 88.678 157.308C87.0425 154.822 88.6141 151.213 92.2597 151.14C95.1744 151.259 96.481 153.497 96.0516 155.599Z" fill="#95C11F"/>
<path d="M105.627 151.295C104.659 154.146 100.958 154.978 99.7978 152.602C98.8475 150.665 100.41 147.86 103.233 147.759C105.161 147.796 106.258 149.422 105.627 151.295Z" fill="#F349A1"/>
<path d="M99.7886 146.142C99.0851 149.212 95.1379 150.108 93.5663 147.549C92.3054 145.484 93.676 142.506 96.746 142.396C98.8475 142.432 100.236 144.15 99.7886 146.142Z" fill="#FCEA10"/>
<path d="M84.6029 158.203C84.5755 159.866 82.5654 160.451 81.2862 159.172C80.1258 158.002 80.4913 156.12 82.3461 156.047C83.5887 156.065 84.612 157.052 84.5938 158.203" fill="white"/>
<path d="M119.698 138.44C118.921 140.587 116.171 141.354 115.303 139.664C114.527 138.147 115.87 135.735 118.063 135.662C119.488 135.699 120.237 136.969 119.698 138.449" fill="#F349A1"/>
<path d="M157.05 87.647C156.895 89.9952 155.113 91.183 153.816 89.7942C152.29 88.1586 152.738 84.2115 154.94 84.1475C156.621 84.3394 157.123 86.3952 157.041 87.647" fill="white"/>
<path d="M152.125 76.4633C152.153 78.7475 150.371 79.8897 148.882 78.5374C147.036 76.8653 147.438 73.247 149.485 73.0826C149.531 73.0826 149.594 73.0826 149.64 73.0826C151.422 73.2653 152.116 75.2572 152.135 76.4633" fill="white"/>
<path d="M155.78 101.225C155.104 105.51 151.376 107.474 149.348 104.614C147.237 101.636 148.891 95.4226 152.61 95.3677C155.113 95.5505 156.201 98.5474 155.78 101.225Z" fill="#FCEA10"/>
<path d="M142.276 129.312C140.503 133.944 135.414 135.698 134.016 132.153C132.746 128.928 135.661 123.647 139.754 123.528C142.623 123.665 143.299 126.635 142.276 129.312Z" fill="#95C11F"/>
<path d="M148.772 115.972C147.785 119.27 144.45 120.714 143.025 118.466C141.499 116.054 143.363 111.339 146.579 111.248C149.128 111.504 149.284 114.281 148.772 115.972Z" fill="#F349A1"/>
<path d="M140.119 117.37C139.096 120.869 135.158 122.176 133.733 119.48C132.408 116.968 134.317 112.765 137.543 112.682C140.339 112.938 140.604 115.698 140.119 117.37Z" fill="#95C11F"/>
<path d="M131.521 140.212C130.507 142.295 128.022 143.054 127.428 141.455C126.88 139.975 128.488 137.498 130.462 137.444C132.134 137.59 131.997 139.216 131.512 140.203" fill="white"/>
<path d="M150.252 92.6541C149.978 95.185 147.749 96.2815 146.406 94.5363C145.017 92.7363 145.784 89.2003 148.078 89.1363C149.923 89.3282 150.389 91.3932 150.252 92.6541Z" fill="#F349A1"/>
<path d="M130.452 31.9021C131.037 33.4005 130.087 34.3142 128.607 33.6838C126.587 32.8249 125.509 30.0199 126.989 29.5173C127.145 29.4625 127.3 29.4625 127.428 29.4534C128.662 29.4899 130.014 30.7782 130.452 31.9021Z" fill="white"/>
<path d="M121.672 29.4442C122.165 31.0066 120.923 31.8746 119.333 31.0797C117.414 30.1112 116.756 27.6168 118.3 27.1417C118.474 27.0869 118.629 27.0869 118.766 27.0777C120.073 27.1143 121.325 28.3295 121.672 29.4442Z" fill="white"/>
<path d="M140.311 41.0025C141.444 44.1182 139.407 45.6898 137.013 44.639C133.157 42.9487 131.759 37.6675 134.18 36.6259C134.518 36.4797 134.792 36.4706 135.076 36.4614C137.333 36.5619 139.553 38.8919 140.311 40.9934" fill="#1D71B8"/>
<path d="M156.858 67.5729C157.416 71.7668 154.693 74.1425 151.76 72.0501C148.041 69.3912 147.639 62.1181 151.175 61.3872C151.404 61.3415 151.605 61.3415 151.751 61.3324C154.455 61.5334 156.475 64.6582 156.858 67.5729Z" fill="#95C11F"/>
<path d="M148.498 53.904C149.128 56.7365 147.237 58.308 144.953 56.8553C142.02 54.9913 141.271 50.1852 143.829 49.6096C143.966 49.5822 144.167 49.5639 144.304 49.5639C146.068 49.6279 147.986 51.6198 148.498 53.904Z" fill="#F349A1"/>
<path d="M145.839 62.3466C146.205 65.4989 143.683 67.0979 141.271 65.2339C138.392 63.0136 138.511 58.0796 141.453 57.7964C141.536 57.7964 141.645 57.7964 141.727 57.7872C143.646 57.8512 145.565 59.9801 145.839 62.3466Z" fill="#95C11F"/>
<path d="M159.444 81.6531C159.435 83.9739 157.799 85.1526 156.484 83.782C154.958 82.2013 155.177 78.3181 157.27 78.2267C158.585 78.2815 159.453 80.045 159.453 81.6439" fill="white"/>
<path d="M131.622 39.8239C132.088 41.569 130.745 42.5375 129.109 41.6513C127.09 40.564 126.46 37.7406 128.104 37.2107C128.287 37.1558 128.461 37.1467 128.598 37.1376C129.986 37.1741 131.284 38.5538 131.622 39.8147" fill="#F349A1"/>
<path d="M89.6648 13.3631C89.4547 14.7336 87.5359 15.2636 86.677 14.1854C85.9552 13.2717 86.677 11.7367 88.1663 11.691C89.4272 11.7641 89.7562 12.7509 89.6648 13.3631Z" fill="white"/>
<path d="M83.0039 16.7346C82.4831 18.3702 80.0618 18.8636 79.4496 17.4656C79.0111 16.4605 80.0983 14.9346 81.6516 14.889C83.0313 14.9712 83.2141 16.0676 83.0039 16.7346Z" fill="white"/>
<path d="M98.3267 15.1265C98.6373 17.4656 95.677 18.6625 93.5937 17.0453C91.6384 15.5285 92.2323 12.5407 94.5531 12.2118C94.7084 12.1844 94.8638 12.1844 94.9551 12.1844C96.8008 12.2575 98.1439 13.7742 98.3267 15.1265Z" fill="#1D71B8"/>
<path d="M118.629 22.162C119.936 24.9671 117.788 26.4107 115.23 25.4513C111.493 24.0442 109.94 19.5306 112.124 18.4432C112.535 18.2422 112.946 18.224 113.202 18.224C115.395 18.3062 117.779 20.3255 118.629 22.162Z" fill="#FCEA10"/>
<path d="M107.519 18.5712C108.067 20.5265 106.038 21.5864 104.019 20.3894C101.863 19.1194 101.543 16.2595 103.507 15.8209C103.69 15.7844 103.864 15.7752 103.992 15.7752C105.92 15.9123 107.217 17.493 107.519 18.5712Z" fill="#F349A1"/>
<path d="M111.109 25.8625C111.585 28.1194 109.245 29.3072 107.007 27.9458C104.604 26.4838 104.412 23.1854 106.705 22.6828C106.925 22.6371 107.126 22.628 107.272 22.628C109.483 22.7833 110.844 24.6107 111.109 25.8625Z" fill="#95C11F"/>
<path d="M127.108 26.9133C127.72 28.2655 126.935 29.1153 125.546 28.6036C123.618 27.8909 122.33 25.2138 123.664 24.6838C123.828 24.6199 123.965 24.6107 124.102 24.6107C125.5 24.7295 126.697 26.027 127.099 26.9133" fill="white"/>
<path d="M92.6344 18.6717C92.5247 20.2432 90.3684 20.8554 89.2902 19.6219C88.3674 18.562 89.0344 16.7803 90.743 16.7255C92.214 16.8169 92.68 17.9681 92.6344 18.6717Z" fill="#F349A1"/>
<path d="M48.731 25.3782C47.4701 27.032 45.4325 27.8361 45.2224 26.7579C45.0031 25.6524 47.1046 23.295 48.7493 23.1945C49.7269 23.1945 49.5351 24.3275 48.731 25.3782Z" fill="white"/>
<path d="M41.7138 34.1132C40.5625 35.9772 38.461 36.8817 38.0955 35.6665C37.7118 34.4147 39.6853 31.765 41.4488 31.6371C42.5178 31.6371 42.4539 32.9163 41.7229 34.1041" fill="white"/>
<path d="M59.2295 20.8097C57.0914 23.8615 53.2813 24.8483 52.9432 22.9843C52.596 21.0473 56.2873 17.6026 58.8457 17.4747C60.5269 17.5113 60.3625 19.1925 59.2295 20.8097Z" fill="#1D71B8"/>
<path d="M80.1258 13.5641C78.8009 16.6433 74.342 17.4108 73.474 15.3549C72.6882 13.491 75.6578 10.4941 78.3623 10.4301C80.473 10.5032 80.6648 12.3032 80.1166 13.5641" fill="#95C11F"/>
<path d="M69.4446 16.9722C67.9735 19.2473 64.5563 20.1245 64.2913 18.2879C64.0812 16.8534 66.4385 14.4321 68.668 14.3316C70.139 14.3499 70.2487 15.7022 69.4446 16.9722Z" fill="#F349A1"/>
<path d="M73.3918 21.1021C72.2588 23.5691 68.4943 24.5194 67.7086 22.5366C67.0872 20.9468 69.1796 18.2879 71.738 18.1783C73.5106 18.1966 74.0222 19.7042 73.3826 21.093" fill="#95C11F"/>
<path d="M86.741 11.3712C86.3937 12.6687 84.4567 13.1621 83.8171 12.1113C83.3055 11.2707 84.1643 9.88188 85.544 9.82706C86.4943 9.84533 86.9237 10.6311 86.7318 11.3712" fill="white"/>
<path d="M53.2538 27.5803C52.1208 29.3711 49.7818 30.1569 49.462 28.8594C49.1696 27.6625 51.0427 25.4148 52.7878 25.3143C53.9208 25.3143 53.9391 26.493 53.2538 27.5803Z" fill="#F349A1"/>
<path d="M40.0234 47.2614C39.4021 48.906 37.5839 49.701 37.0356 48.5771C36.4783 47.4259 37.8762 45.3061 39.2011 45.2787C40.325 45.3426 40.2976 46.5213 40.0143 47.2522" fill="white"/>
<path d="M37.529 55.6491C36.8986 57.3303 35.0437 57.9791 34.5138 56.6999C33.9838 55.4116 35.2539 53.3832 36.597 53.3557C37.8031 53.4197 37.8671 54.7354 37.529 55.6491Z" fill="white"/>
<path d="M48 41.4685C46.8031 44.1457 43.532 45.3061 42.6914 43.3507C41.9056 41.5142 44.0254 38.1792 46.6569 38.0147C48.1919 38.0147 48.8224 39.6228 48 41.4594" fill="#1D71B8"/>
<path d="M65.7989 30.1386C64.5654 32.9711 60.4903 34.0401 59.5675 31.7742C58.8183 29.9193 61.066 26.8128 63.9258 26.694C66.201 26.8128 66.3837 28.7772 65.7898 30.1386" fill="#95C11F"/>
<path d="M56.5066 35.3102C55.6021 37.5213 52.5869 38.5264 51.8924 36.8452C51.2346 35.2645 53.2539 32.7792 55.2092 32.7518C56.8813 32.834 56.8995 34.3599 56.5158 35.3102" fill="#F349A1"/>
<path d="M61.6416 38.0513C60.6731 40.3447 57.5482 41.0756 56.799 39.1751C56.1503 37.5396 58.0508 35.1823 60.0335 35.1548C61.7513 35.2371 62.2081 36.7173 61.6507 38.0513" fill="#FCEA10"/>
<path d="M72.4507 25.8351C71.9664 27.2513 69.8101 27.8087 69.2984 26.6483C68.8598 25.6615 70.0477 24.2818 71.3542 24.2727C72.5329 24.3275 72.6517 25.2595 72.4598 25.8351" fill="white"/>
<path d="M45.5604 47.7457C44.8752 49.3812 42.9655 49.9842 42.4265 48.7416C41.8874 47.5172 43.2214 45.5893 44.6193 45.571C45.7432 45.6259 45.9807 46.7406 45.5604 47.7457Z" fill="#F349A1"/>
<path d="M26.2357 92.316C26.1077 94.0429 24.8103 94.8835 23.8783 93.851C22.7636 92.6175 23.0743 89.8581 24.6824 89.7028C25.7514 89.7667 26.3179 91.1008 26.2357 92.3068" fill="white"/>
<path d="M31.2976 98.9677C31.2336 100.759 29.7626 101.544 28.7027 100.347C27.5788 99.0682 27.8712 96.5464 29.5067 96.4093C30.658 96.4733 31.3341 97.7799 31.2884 98.9677" fill="white"/>
<path d="M27.3961 82.1465C26.9849 85.2622 24.5271 86.7789 23.0195 84.8602C21.3474 82.7312 22.3159 78.0074 25.057 77.8064C27.0489 77.9435 27.6245 80.4287 27.3961 82.1465Z" fill="#FCEA10"/>
<path d="M32.988 59.24C31.9189 62.5202 28.7484 64.0826 27.5149 61.9445C26.2448 59.7425 28.2915 55.0187 31.2428 54.7994C32.9605 54.8177 33.7646 56.8461 32.9788 59.24" fill="#95C11F"/>
<path d="M29.1138 70.2592C28.4834 72.7628 26.2174 73.8866 25.1941 72.2054C24.1159 70.4237 25.3037 66.9059 27.524 66.7141C29.0316 66.7963 29.525 68.6146 29.1138 70.2592Z" fill="#F349A1"/>
<path d="M35.3636 66.9608C34.6417 69.6014 31.9829 70.6338 30.9778 68.6511C30.0549 66.8237 31.3798 63.6349 33.6275 63.4613C35.263 63.5435 35.8021 65.3344 35.3636 66.9516" fill="#95C11F"/>
<path d="M36.0854 49.4177C35.3636 51.0441 33.6275 51.6837 33.2255 50.4685C32.8509 49.3355 34.0113 47.3436 35.4184 47.234C36.4052 47.2797 36.5331 48.4035 36.0854 49.4086" fill="white"/>
<path d="M30.4935 86.7241C30.2743 88.5424 28.6935 89.3556 27.7707 88.1404C26.7839 86.8429 27.3047 84.2663 28.9494 84.1292C30.0915 84.1932 30.6397 85.5272 30.4935 86.7241Z" fill="#F349A1"/>
<path d="M51.6092 130.134C51.9107 131.706 50.5219 132.519 49.1696 131.569C47.6803 130.518 47.6254 128.389 49.0782 128.115C49.1148 128.115 49.2153 128.087 49.3341 128.087C50.6406 128.151 51.4539 129.321 51.6092 130.134Z" fill="white"/>
<path d="M59.2751 130.308C59.3573 131.934 57.5391 132.528 56.2325 131.294C54.9168 130.052 55.3279 128.124 56.9269 128.069C56.9452 128.069 56.9634 128.069 56.9817 128.069C58.334 128.133 59.2203 129.284 59.2751 130.308Z" fill="white"/>
<path d="M45.8254 124.314C46.1726 127.064 43.7422 128.361 41.5493 126.598C39.0732 124.597 39.1554 120.723 41.6772 120.412C41.7594 120.403 41.8691 120.403 41.9513 120.394C43.7513 120.394 45.5604 122.231 45.8254 124.314Z" fill="#1D71B8"/>
<path d="M31.8184 106.953C31.9738 110.279 29.4245 111.924 27.2773 109.896C24.856 107.611 24.9748 102.348 28.1179 102.129C30.5301 102.284 31.7362 105.053 31.8276 106.963" fill="#95C11F"/>
<path d="M37.7575 115.716C37.9128 118.009 36.0214 119.097 34.3219 117.68C32.4214 116.09 32.2753 112.436 34.6052 112.198C34.6509 112.198 34.6966 112.198 34.7331 112.198C36.46 112.289 37.6387 114.099 37.7483 115.725" fill="#F349A1"/>
<path d="M39.0823 107.73C39.2742 110.252 37.0996 111.613 35.327 110.078C33.4357 108.434 33.5453 104.66 36.0306 104.413C36.0762 104.413 36.1219 104.413 36.1676 104.413C38.1138 104.514 38.9909 106.506 39.0823 107.739" fill="#95C11F"/>
<path d="M25.2489 97.186C25.2946 98.922 24.1068 99.918 23.1017 99.0043C21.7951 97.8165 22.1606 94.8926 23.6225 94.8378H23.6408C24.7098 94.9018 25.2306 96.254 25.2489 97.1951" fill="white"/>
<path d="M50.394 123.035C50.6224 124.688 49.1239 125.538 47.7534 124.524C46.2732 123.427 46.3463 121.207 47.8721 120.915C47.9087 120.915 48.0092 120.887 48.1371 120.887C49.5716 120.961 50.2843 122.24 50.394 123.025" fill="#F349A1"/>
<path d="M92.3145 138.613C92.0404 140.203 89.9481 140.706 88.9704 139.408C88.1389 138.302 88.7968 136.594 90.4963 136.512C91.8303 136.576 92.479 137.654 92.3145 138.613Z" fill="white"/>
<path d="M98.1531 133.177C97.8059 134.83 95.6222 135.351 94.6628 133.999C93.8404 132.848 94.5897 131.057 96.3622 130.975C97.7419 131.048 98.3633 132.172 98.1531 133.177Z" fill="white"/>
<path d="M85.3339 138.86C85.0963 141.628 81.6517 142.588 79.6689 140.431C77.9238 138.54 78.8283 135.397 81.871 135.287C84.4567 135.434 85.4435 137.462 85.3248 138.86" fill="#1D71B8"/>
<path d="M65.5157 136.667C65.7533 139.673 62.4091 140.916 59.8507 138.769C57.2193 136.567 57.7035 132.857 60.6639 132.565C60.7644 132.555 60.9015 132.555 61.0111 132.546C63.2406 132.555 65.3512 134.483 65.5248 136.667" fill="#95C11F"/>
<path d="M74.5887 137.727C74.5339 140.066 71.6101 140.797 69.8466 138.906C68.339 137.298 68.9238 134.776 71.4365 134.657C73.4283 134.748 74.6253 136.32 74.5887 137.727Z" fill="#F349A1"/>
<path d="M70.8426 131.075C70.7877 133.506 67.6629 134.291 65.8538 132.327C64.4284 130.783 64.7299 127.987 67.5441 127.85C69.8375 127.95 70.87 129.833 70.8426 131.075Z" fill="#FCEA10"/>
<path d="M54.4599 134.364C54.6518 135.836 53.2081 136.484 51.9289 135.497C50.5218 134.41 50.5584 132.391 51.9929 132.217C52.0477 132.217 52.1208 132.217 52.1665 132.208C53.4183 132.263 54.332 133.369 54.4599 134.364Z" fill="white"/>
<path d="M87.7735 133.67C87.545 135.333 85.3704 135.854 84.3014 134.511C83.3877 133.359 84.0181 131.578 85.7907 131.495C87.1887 131.559 87.9105 132.683 87.7735 133.679" fill="#F349A1"/>
<path d="M128.927 115.825C128.552 117.726 126.377 118.493 125.454 117.059C124.568 115.679 125.729 113.569 127.364 113.578C128.808 113.678 129.091 115.012 128.927 115.825Z" fill="white"/>
<path d="M129.977 107.072C129.566 108.891 127.465 109.53 126.514 108.132C125.555 106.707 126.642 104.514 128.314 104.514C129.676 104.605 130.242 105.912 129.977 107.072Z" fill="white"/>
<path d="M123.417 122.76C122.558 125.904 118.812 126.963 117.332 124.487C116.043 122.322 117.642 118.877 120.731 118.749C122.768 118.786 124.002 120.622 123.417 122.76Z" fill="#FCEA10"/>
<path d="M106.358 135.552C105.518 138.942 101.086 139.902 99.4871 137.051C98.2079 134.767 99.816 131.468 103.151 131.358C106.038 131.541 106.76 133.926 106.358 135.552Z" fill="#95C11F"/>
<path d="M113.896 129.385C113.165 131.843 109.976 132.583 108.816 130.563C107.72 128.663 109.364 126.059 111.648 126.068C113.613 126.187 114.344 127.877 113.896 129.385Z" fill="#F349A1"/>
<path d="M107.445 126.488C106.815 129.01 103.535 129.759 102.21 127.685C100.967 125.748 102.53 123.089 104.905 123.099C106.97 123.217 107.829 124.944 107.445 126.479" fill="#95C11F"/>
<path d="M96.3805 139.892C96.1886 141.482 94.1602 142.149 93.146 140.961C92.1409 139.792 93.0455 137.983 94.6353 137.983C96.0699 138.056 96.4719 139.198 96.3805 139.892Z" fill="white"/>
<path d="M122.119 115.57C121.644 117.434 119.378 117.982 118.51 116.447C117.779 115.159 118.72 113.112 120.475 113.112C121.873 113.203 122.412 114.428 122.119 115.57Z" fill="#F349A1"/>
<path d="M138.191 69.5922C138.191 71.3009 136.519 72.0318 135.322 70.8531C134.043 69.6014 134.29 67.1892 136.108 67.107C137.397 67.1983 138.191 68.4684 138.191 69.5922Z" fill="white"/>
<path d="M132.024 63.2055C132.051 64.8593 130.361 65.5719 129.109 64.4298C127.766 63.2055 128.113 60.9669 129.676 60.8024C129.731 60.8024 129.804 60.8024 129.859 60.8024C131.165 60.8847 131.997 62.1182 132.015 63.2146" fill="white"/>
<path d="M140.54 79.6338C140.421 82.8957 137.223 84.2389 135.195 81.8815C133.212 79.579 133.988 75.3668 137.113 75.2572C139.58 75.4582 140.594 77.9343 140.531 79.6247" fill="#1D71B8"/>
<path d="M138.265 103.664C137.588 107.31 133.687 108.772 131.75 106.104C129.849 103.481 131.394 98.8489 135.012 98.7027C137.223 98.7576 138.749 101.078 138.265 103.673" fill="#95C11F"/>
<path d="M139.078 91.8591C138.703 94.6094 135.825 95.6327 134.336 93.5495C132.91 91.5485 133.851 88.1221 136.446 88.0033C138.374 88.1404 139.306 90.1139 139.078 91.8591Z" fill="#F349A1"/>
<path d="M132.307 95.1941C131.869 97.9718 128.89 98.9769 127.328 96.8662C125.866 94.8835 126.907 91.4937 129.621 91.3658C131.64 91.4937 132.581 93.4581 132.307 95.1941Z" fill="#95C11F"/>
<path d="M133.12 113.916C132.636 115.679 130.635 116.328 129.776 114.994C128.945 113.715 129.859 111.531 131.64 111.449C132.947 111.531 133.431 112.792 133.12 113.916Z" fill="white"/>
<path d="M133.806 74.7729C133.733 76.5272 131.942 77.2673 130.727 76.0613C129.438 74.7821 129.822 72.3242 131.732 72.2328C133.075 72.3242 133.851 73.6217 133.797 74.7729" fill="#F349A1"/>
<path d="M111.137 34.497C111.237 35.8492 109.684 36.4066 108.505 35.4472C107.327 34.4878 107.519 32.7701 108.834 32.5691C108.862 32.5691 108.962 32.5508 109.072 32.5508C110.269 32.6239 111.073 33.6107 111.137 34.497Z" fill="white"/>
<path d="M104.046 34.433C104.037 35.8675 102.237 36.3792 101.132 35.2645C100.054 34.1772 100.62 32.496 102.073 32.4868C102.073 32.4868 102.082 32.4868 102.091 32.4868C103.325 32.5508 104.056 33.5284 104.046 34.4239" fill="white"/>
<path d="M119.123 40.0614C119.461 42.5558 116.802 43.7254 114.6 42.0441C112.242 40.2441 112.553 36.8543 115.093 36.635C115.175 36.635 115.285 36.635 115.358 36.6259C117.112 36.6533 118.876 38.2614 119.123 40.0614Z" fill="#1D71B8"/>
<path d="M134.591 56.1882C134.92 59.3314 131.978 60.8298 129.42 58.8105C126.56 56.5537 126.916 52.0035 129.968 51.7568C130.05 51.7568 130.16 51.7568 130.242 51.7568C132.929 51.9578 134.4 54.4796 134.582 56.1974" fill="#FCEA10"/>
<path d="M126.213 47.7182C126.615 49.9751 124.431 51.1537 122.494 49.7284C120.456 48.2208 120.548 45.1599 122.649 44.8309C122.677 44.8309 122.832 44.8035 123.033 44.8035C124.988 44.9314 126.021 46.6583 126.213 47.7182Z" fill="#F349A1"/>
<path d="M125.034 54.9548C125.098 57.2664 122.567 58.2258 120.731 56.5811C118.894 54.9365 119.15 51.7842 121.699 51.6106C121.745 51.6106 121.8 51.6106 121.845 51.6106C123.764 51.7294 124.998 53.4471 125.034 54.9639" fill="#95C11F"/>
<path d="M138.932 64.64C139.114 66.3669 137.598 67.2441 136.3 66.1659C134.838 64.9415 135.121 62.5111 136.739 62.4014C136.766 62.4014 136.794 62.4014 136.821 62.4014C138.191 62.5019 138.849 63.8268 138.932 64.6491" fill="white"/>
<path d="M112.05 40.5822C112.233 42.0442 110.653 42.8117 109.364 41.8797C108.003 40.902 108.213 38.9193 109.684 38.7C109.684 38.7 109.812 38.6817 109.958 38.6817C111.32 38.764 111.968 39.8878 112.05 40.5731" fill="#F349A1"/>
<path d="M75.7309 27.1691C75.2283 28.5214 73.1725 28.9782 72.5877 27.8635C72.1035 26.9407 73.0446 25.5062 74.5339 25.4331C75.6486 25.4788 76.0232 26.365 75.7309 27.16" fill="white"/>
<path d="M69.5999 31.8564C69.006 33.3183 66.8771 33.8026 66.3015 32.6056C65.8263 31.6188 66.8497 30.0929 68.4121 30.0107C69.5908 30.0564 69.9471 31.0066 69.5999 31.8564Z" fill="white"/>
<path d="M84.3288 27.1325C83.8171 29.499 80.345 30.3853 79.0293 28.4939C77.9329 26.9224 79.3125 24.3092 81.9075 24.2178C83.9998 24.3275 84.5846 25.9904 84.3379 27.1325" fill="#1D71B8"/>
<path d="M102.1 29.1518C102.192 31.7924 98.811 32.9163 96.7003 30.9518C94.7815 29.161 95.5034 25.8534 98.5003 25.7437C100.355 25.7711 102.036 27.3701 102.1 29.161" fill="#95C11F"/>
<path d="M92.6252 28.1285C92.3785 30.166 89.5369 30.8239 88.2851 29.1336C87.2709 27.7813 88.1481 25.6706 90.2679 25.5793C91.9034 25.6524 92.7622 26.959 92.6252 28.1194" fill="#F349A1"/>
<path d="M95.412 33.8848C95.2019 36.0412 92.1866 36.7538 90.8069 34.963C89.674 33.5011 90.542 31.2259 92.8171 31.1346C94.5714 31.2168 95.5308 32.633 95.4029 33.8848" fill="#95C11F"/>
<path d="M108.679 30.9427C108.789 32.3224 107.18 32.834 106.02 31.7833C104.951 30.8056 105.253 29.2341 106.523 29.1153C106.568 29.1153 106.632 29.1153 106.687 29.1153C107.829 29.1792 108.606 30.1203 108.679 30.9518" fill="white"/>
<path d="M79.0568 31.3904C78.6273 32.8432 76.5258 33.3092 75.7949 32.1214C75.1918 31.1437 76.0598 29.6178 77.6405 29.5447C78.9745 29.5995 79.2761 30.6594 79.0568 31.3813" fill="#F349A1"/>
<path d="M36.1128 81.9637C35.93 83.4165 34.5412 84.0653 33.792 83.0602C33.0428 82.046 33.5362 80.1546 34.8702 80.0724C35.8844 80.1363 36.2133 81.2145 36.1128 81.9637Z" fill="white"/>
<path d="M39.3839 87.8388C39.2468 89.3282 37.8488 89.986 37.0082 88.9535C36.1859 87.9485 36.6336 85.984 38.0042 85.9018C39.0092 85.9657 39.4569 86.9434 39.3747 87.8297" fill="white"/>
<path d="M38.4701 74.3709C38.0681 76.8927 35.5463 78.0622 34.3128 76.2897C33.1341 74.5993 34.2032 71.3648 36.46 71.2552C38.2783 71.3922 38.6529 73.1922 38.4701 74.3709Z" fill="#1D71B8"/>
<path d="M45.1493 57.6045C44.4823 60.2177 41.4579 61.506 40.2518 59.6877C39.0823 57.9334 40.6356 54.507 43.2305 54.37C44.9209 54.3883 45.5422 56.0695 45.1493 57.6045Z" fill="#95C11F"/>
<path d="M41.0925 65.7456C40.6265 67.7374 38.5159 68.6237 37.5565 67.2349C36.6336 65.8918 37.6661 63.2786 39.5575 63.1689C41.0103 63.2512 41.3209 64.7222 41.0833 65.7456" fill="#F349A1"/>
<path d="M46.5747 64.174C46.0904 66.2572 43.6508 67.0704 42.7463 65.444C41.9696 64.0461 43.0204 61.707 44.93 61.6065C46.4559 61.6979 46.8122 63.1598 46.5747 64.174Z" fill="#FCEA10"/>
<path d="M47.9726 50.5324C47.5249 51.8664 45.8985 52.3781 45.4143 51.3365C45.0031 50.4502 45.8437 48.9609 47.0681 48.8969C48.0457 48.9517 48.1828 49.8837 47.9635 50.5233" fill="white"/>
<path d="M40.4712 78.5191C40.261 79.9536 38.7991 80.6023 38.0316 79.5973C37.2641 78.6013 37.8123 76.7283 39.2011 76.646C40.261 76.71 40.5808 77.779 40.4712 78.5191Z" fill="#F349A1"/>
<path d="M50.5493 115.177C50.6132 116.538 49.197 117.123 48.1919 116.154C47.196 115.195 47.397 113.477 48.8315 113.395C49.8092 113.395 50.5036 114.318 50.5493 115.177Z" fill="white"/>
<path d="M56.9452 116.164C56.9726 117.516 55.4833 118.101 54.4508 117.141C53.4457 116.209 53.7107 114.464 55.1909 114.391C56.1046 114.391 56.9269 115.222 56.9452 116.164Z" fill="white"/>
<path d="M46.8853 109.375C47.0133 111.814 44.6285 112.966 42.9016 111.303C41.1839 109.649 41.5585 106.442 44.0163 106.305C45.6427 106.323 46.8122 107.913 46.8853 109.375Z" fill="#FCEA10"/>
<path d="M38.4702 93.7413C38.3879 96.455 35.9757 97.8895 34.2397 96.2631C32.3027 94.4449 32.8966 90.1688 35.6834 90.0226C37.7849 90.187 38.5067 92.3799 38.4702 93.7322" fill="#95C11F"/>
<path d="M41.8326 101.581C41.8143 103.527 39.9595 104.505 38.6346 103.262C37.1818 101.901 37.5108 98.986 39.594 98.8489C40.8001 98.8489 41.8509 100.128 41.8417 101.581" fill="#F349A1"/>
<path d="M44.3818 95.8703C44.2813 97.9992 42.1615 98.9129 40.8366 97.4053C39.5666 95.9525 40.1239 93.2205 42.1706 93.0926C43.4407 93.0926 44.4457 94.3718 44.3726 95.8703" fill="#95C11F"/>
<path d="M34.4681 85.6186C34.3311 87.0165 33.061 87.7109 32.2844 86.8246C31.4438 85.8653 31.8641 83.8003 33.2072 83.7089C33.993 83.7089 34.5687 84.5952 34.4681 85.6186Z" fill="white"/>
<path d="M50.9422 109.411C50.9513 110.809 49.4894 111.403 48.4843 110.416C47.5249 109.466 47.799 107.666 49.2427 107.584C50.2477 107.584 50.9239 108.534 50.933 109.411" fill="#F349A1"/>
<path d="M83.1775 126.945C83.0861 128.27 81.3684 128.764 80.4455 127.74C79.6232 126.826 80.0801 125.31 81.5511 125.255C82.7572 125.319 83.2232 126.278 83.1775 126.945Z" fill="white"/>
<path d="M88.4222 123.172C88.2851 124.551 86.5217 125.063 85.608 123.994C84.8039 123.062 85.3247 121.509 86.8141 121.454C88.0384 121.527 88.4861 122.505 88.4222 123.181" fill="white"/>
<path d="M77.3116 126.086C77.2842 128.517 74.2507 129.421 72.5421 127.503C71.1167 125.913 71.8568 123.29 74.3603 123.208C76.8091 123.364 77.3207 125.337 77.3116 126.086Z" fill="#1D71B8"/>
<path d="M60.9837 121.765C61.1664 124.378 58.3157 125.602 56.2142 123.811C54.0304 121.947 54.6426 118.704 57.2284 118.475C57.3015 118.475 57.402 118.475 57.4751 118.466C59.4944 118.494 60.8741 120.202 60.9837 121.774" fill="#95C11F"/>
<path d="M68.4213 123.93C68.4213 125.885 65.9634 126.635 64.4923 125.127C63.1857 123.784 63.6974 121.536 65.8446 121.454C67.7177 121.554 68.4121 123.025 68.4121 123.939" fill="#F349A1"/>
<path d="M66.3106 118.082C66.2832 120.111 63.7614 120.878 62.2812 119.307C60.9746 117.918 61.5228 115.606 63.7157 115.515C65.534 115.606 66.3289 117.077 66.3106 118.082Z" fill="#95C11F"/>
<path d="M52.0934 118.795C52.1757 120.12 50.8142 120.705 49.7909 119.782C48.7493 118.85 49.0325 117.169 50.2386 117.05C50.2752 117.05 50.3208 117.05 50.3574 117.05C51.4812 117.114 52.0477 118.11 52.0934 118.795Z" fill="white"/>
<path d="M79.8517 122.331C79.7694 123.692 78.0151 124.204 77.0557 123.153C76.206 122.221 76.6628 120.659 78.1705 120.604C79.4039 120.668 79.8973 121.655 79.8517 122.331Z" fill="#F349A1"/>
<path d="M114.335 113.212C114.07 114.674 112.306 115.204 111.502 114.062C110.817 113.084 111.466 111.458 112.918 111.394C113.841 111.412 114.499 112.262 114.335 113.212Z" fill="white"/>
<path d="M115.824 106.387C115.605 107.858 113.786 108.415 112.973 107.264C112.261 106.259 112.891 104.587 114.353 104.523C115.303 104.541 115.97 105.391 115.824 106.387Z" fill="white"/>
<path d="M109.602 117.607C109.236 120.083 106.175 121.079 104.713 119.197C103.416 117.525 104.54 114.683 107.098 114.601C108.916 114.647 109.812 116.191 109.602 117.607Z" fill="#1D71B8"/>
<path d="M95.0922 125.831C94.7907 128.608 91.2912 129.613 89.5826 127.411C88.1298 125.547 89.2262 122.614 92.0861 122.541C94.8272 122.733 95.1927 124.981 95.1013 125.831" fill="#95C11F"/>
<path d="M101.552 121.838C101.241 123.839 98.683 124.579 97.4678 123.016C96.3805 121.627 97.2394 119.389 99.4231 119.307C100.766 119.325 101.762 120.504 101.552 121.838Z" fill="#F349A1"/>
<path d="M96.4536 118.713C96.1886 120.741 93.5937 121.49 92.3054 119.91C91.1816 118.53 92.013 116.228 94.1876 116.136C95.5947 116.154 96.6272 117.333 96.4536 118.713Z" fill="#FCEA10"/>
<path d="M86.4669 128.626C86.3572 129.97 84.6577 130.463 83.744 129.421C82.9674 128.526 83.4425 127.027 84.8679 126.964C85.7999 126.973 86.5308 127.731 86.4577 128.626" fill="white"/>
<path d="M108.898 111.988C108.661 113.45 106.87 113.989 106.029 112.847C105.289 111.842 105.901 110.224 107.409 110.17C108.35 110.188 109.044 111.038 108.898 111.997" fill="#F349A1"/>
<path d="M127.026 78.9851C126.953 80.4287 125.427 81.0409 124.477 80.0176C123.536 78.9942 123.929 77.1303 125.427 77.0846C126.523 77.1668 127.072 78.1262 127.026 78.9942" fill="white"/>
<path d="M122.969 73.2196C122.924 74.6176 121.398 75.2206 120.402 74.2338C119.433 73.2653 119.808 71.4105 121.315 71.3648C122.494 71.447 122.987 72.4978 122.969 73.2288" fill="white"/>
<path d="M127.437 86.779C127.282 89.4013 124.513 90.5526 122.878 88.6886C121.279 86.8521 122.092 83.5353 124.742 83.4714C127.099 83.6724 127.483 85.9292 127.437 86.779Z" fill="#FCEA10"/>
<path d="M122.924 104.55C122.549 107.502 119.049 108.708 117.414 106.46C115.952 104.45 117.204 101.051 120.073 100.95C122.11 101.005 123.134 102.869 122.924 104.55Z" fill="#95C11F"/>
<path d="M124.687 95.9159C124.422 98.1088 121.854 98.9403 120.648 97.2225C119.579 95.6967 120.42 93.184 122.531 93.1017C124.239 93.2297 124.824 94.8195 124.687 95.9159Z" fill="#F349A1"/>
<path d="M118.803 97.4967C118.51 99.7261 115.915 100.539 114.655 98.8033C113.558 97.2865 114.426 94.783 116.592 94.7099C118.346 94.8287 118.94 96.4185 118.803 97.5058" fill="#95C11F"/>
<path d="M117.926 112.125C117.651 113.578 115.897 114.108 115.121 112.966C114.444 111.979 115.102 110.343 116.537 110.298C117.642 110.371 118.081 111.294 117.926 112.125Z" fill="white"/>
<path d="M122.522 82.3566C122.421 83.8003 120.84 84.4307 119.89 83.3982C118.931 82.3658 119.369 80.4835 120.923 80.4287C122.046 80.5109 122.585 81.4795 122.531 82.3566" fill="#F349A1"/>
<path d="M110.89 47.6908C110.927 48.9243 109.483 49.4543 108.505 48.5588C107.555 47.6908 107.921 46.1832 109.099 46.0827C109.136 46.0827 109.191 46.0827 109.236 46.0827C110.104 46.0918 110.863 46.8319 110.89 47.6908Z" fill="white"/>
<path d="M104.777 46.7223C104.777 47.9467 103.279 48.4766 102.32 47.5812C101.406 46.7406 101.744 45.1782 103.16 45.1233C104.129 45.1325 104.777 45.9639 104.768 46.7223" fill="white"/>
<path d="M116.646 53.0543C116.811 55.2928 114.262 56.3527 112.507 54.772C110.726 53.1639 111.347 50.4228 113.54 50.2583C113.604 50.2583 113.686 50.2583 113.75 50.2583C115.413 50.304 116.555 51.7477 116.656 53.0634" fill="#1D71B8"/>
<path d="M126.524 67.847C126.597 70.643 123.627 71.8765 121.635 69.8663C119.753 67.975 120.383 64.4024 123.243 64.3384C125.582 64.5303 126.487 66.5405 126.524 67.8379" fill="#95C11F"/>
<path d="M121.087 60.4187C121.133 62.3649 118.967 63.1963 117.514 61.7801C116.107 60.4095 116.519 57.97 118.638 57.8877C119.936 57.9151 121.05 59.0664 121.087 60.4187Z" fill="#F349A1"/>
<path d="M118.647 65.7182C118.629 67.6917 116.363 68.5415 114.919 67.107C113.531 65.7273 114.061 63.1872 116.217 63.105C117.551 63.1232 118.657 64.3202 118.647 65.7182Z" fill="#95C11F"/>
<path d="M128.534 75.4491C128.497 76.8744 126.971 77.4775 126.012 76.4359C125.098 75.4491 125.473 73.6308 126.907 73.5668C127.812 73.5851 128.552 74.444 128.525 75.4491" fill="white"/>
<path d="M110.442 52.9263C110.442 54.2146 108.935 54.7629 107.948 53.8309C107.016 52.9446 107.336 51.3091 108.77 51.2543C109.675 51.2725 110.433 52.0309 110.433 52.9263" fill="#F349A1"/>
<path d="M81.5968 37.0188C81.3592 38.2157 79.7054 38.6635 79.0019 37.7315C78.3988 36.9366 79.0202 35.6117 80.345 35.566C81.4049 35.6208 81.7156 36.4523 81.6059 37.0188" fill="white"/>
<path d="M76.3796 40.3629C76.0781 41.6604 74.2141 42.0716 73.6111 40.9843C73.1451 40.1528 73.8578 38.9102 75.1278 38.8645C76.2791 38.9284 76.5075 39.8147 76.3796 40.3629Z" fill="white"/>
<path d="M88.9064 37.8594C88.7054 40.0157 85.7176 40.8472 84.4019 39.1112C83.3511 37.7132 84.3288 35.4289 86.5399 35.3741C88.6597 35.5112 88.9704 37.2107 88.9064 37.8594Z" fill="#1D71B8"/>
<path d="M104.019 41.7609C104.12 44.1182 101.26 45.233 99.3775 43.5609C97.5409 41.9345 98.3815 39.0289 100.739 38.8553C100.803 38.8553 100.894 38.8553 100.967 38.8553C102.776 38.901 103.964 40.3995 104.028 41.77" fill="#FCEA10"/>
<path d="M95.9237 39.8421C95.8232 41.6238 93.4932 42.2909 92.2689 40.8838C91.2273 39.696 91.8851 37.7315 93.8039 37.6584C95.4394 37.7498 95.9694 39.0381 95.9237 39.833" fill="#F349A1"/>
<path d="M97.5409 45.0776C97.4404 46.905 94.9917 47.6177 93.7491 46.1741C92.6709 44.9314 93.3379 42.8665 95.3206 42.8025C97.0201 42.903 97.5866 44.2553 97.5409 45.0776Z" fill="#95C11F"/>
<path d="M109.474 44.4198C109.52 45.6167 108.14 46.1375 107.162 45.2878C106.194 44.4472 106.541 42.9396 107.729 42.8482C107.765 42.8482 107.811 42.8482 107.847 42.8482C108.99 42.9213 109.446 43.8533 109.474 44.4198Z" fill="white"/>
<path d="M84.1552 41.0939C83.9542 42.3365 82.2547 42.8025 81.4872 41.834C80.8293 41.0025 81.4324 39.6228 82.7938 39.5771C83.8902 39.6411 84.2466 40.5 84.1461 41.0939" fill="#F349A1"/>
<path d="M51.2894 49.4908C50.8508 50.8065 49.197 51.3182 48.6853 50.2949C48.2468 49.4177 49.0874 47.9375 50.3483 47.8736C51.1341 47.8736 51.5726 48.6319 51.2894 49.4999" fill="white"/>
<path d="M49.0325 55.7497C48.6305 57.1202 46.9676 57.6502 46.4011 56.5811C45.9259 55.6766 46.7117 54.1416 48 54.0593C48.8132 54.0593 49.2884 54.8451 49.0325 55.7405" fill="white"/>
<path d="M58.2152 45.4888C57.5573 47.7548 54.5787 48.7233 53.601 46.9964C52.7604 45.5162 54.2132 42.967 56.4426 42.8665C58.005 42.8848 58.5807 44.2462 58.2152 45.4888Z" fill="#1D71B8"/>
<path d="M73.3278 38.1609C72.7339 40.637 69.1796 41.5873 67.9735 39.5954C66.9045 37.832 68.6588 35.4107 71.0618 35.3376C73.4466 35.4838 73.5105 37.4208 73.3278 38.1609Z" fill="#95C11F"/>
<path d="M65.3147 41.7335C64.7573 43.5335 62.2355 44.237 61.404 42.8208C60.7005 41.633 61.8518 39.6228 63.7431 39.5315C64.9675 39.5315 65.6802 40.5457 65.3147 41.7244" fill="#F349A1"/>
<path d="M69.7096 44.5111C69.2071 46.4482 66.4111 47.0878 65.5614 45.4614C64.9035 44.2096 66.0182 42.3366 67.937 42.2543C69.2162 42.2543 70.0294 43.2959 69.7096 44.5203" fill="#95C11F"/>
<path d="M78.81 35.5477C78.5268 36.7721 76.7542 37.165 76.1694 36.1416C75.7217 35.3467 76.3979 34.168 77.6131 34.1224C78.4263 34.1224 78.9745 34.7985 78.8009 35.5569" fill="white"/>
<path d="M56.0041 50.5416C55.602 51.8756 53.8843 52.3873 53.2995 51.3456C52.8061 50.4685 53.601 48.9792 54.9259 48.9152C55.867 48.9152 56.2508 49.7558 56.0132 50.5416" fill="#F349A1"/>
<path d="M62.0254 54.6075C61.7787 55.5852 60.4903 55.905 59.9969 55.11C59.5858 54.443 60.0883 53.4014 61.0842 53.3557C61.7512 53.3649 62.1898 53.9496 62.0254 54.6075Z" fill="white"/>
<path d="M60.2254 59.0573C59.997 60.0441 58.6721 60.3821 58.1787 59.5872C57.7493 58.9019 58.2426 57.8329 59.2477 57.7872C59.997 57.7964 60.3624 58.4634 60.2254 59.0573Z" fill="white"/>
<path d="M67.471 52.2411C67.1147 53.9497 64.8487 54.571 63.8984 53.2187C63.1127 52.104 63.9898 50.2492 65.7624 50.1852C67.0781 50.2127 67.672 51.2817 67.471 52.2411Z" fill="#1D71B8"/>
<path d="M79.0202 48.102C78.6913 50.0208 76.0689 50.6329 75.0182 49.0431C74.1228 47.6817 75.2466 45.836 77.0009 45.7995C78.4811 45.8543 79.2029 47.033 79.0202 48.102Z" fill="#95C11F"/>
<path d="M72.9258 50.1212C72.6151 51.4918 70.7421 51.9395 69.9745 50.8248C69.3258 49.8837 70.0111 48.4218 71.4822 48.3669C72.4598 48.3852 73.136 49.1984 72.9258 50.1212Z" fill="#F349A1"/>
<path d="M76.1238 52.7162C75.8405 54.1233 73.9491 54.5801 73.1451 53.438C72.4781 52.4969 73.1451 50.9893 74.6161 50.9253C75.6121 50.9436 76.3156 51.7751 76.1329 52.7071" fill="#FCEA10"/>
<path d="M83.2598 46.6857C83.1136 47.5994 81.8436 47.901 81.2953 47.1609C80.8202 46.5213 81.2222 45.5436 82.209 45.5071C82.9491 45.5162 83.3512 46.1284 83.2598 46.6857Z" fill="white"/>
<path d="M65.6984 55.9232C65.4791 56.8918 64.1268 57.2298 63.606 56.4441C63.1583 55.7679 63.6517 54.7172 64.6751 54.6715C65.3695 54.6806 65.8446 55.2654 65.6893 55.9232" fill="#F349A1"/>
<path d="M48.9503 76.4359C48.7676 77.4866 47.5615 77.8613 47.0133 77.0298C46.5199 76.2806 46.931 75.0927 47.9361 75.0471C48.8681 75.111 49.0234 76.0064 48.9503 76.4359Z" fill="white"/>
<path d="M51.0061 80.9496C50.8508 82.0186 49.6173 82.3932 49.0417 81.5526C48.5209 80.7942 48.9046 79.579 49.9371 79.5425C50.8965 79.6064 51.0792 80.5201 51.0153 80.9496" fill="white"/>
<path d="M51.3259 71.2826C51.0061 73.1191 48.8863 73.8044 47.927 72.3699C47.0955 71.1181 47.8995 69.0258 49.6082 68.9709C50.9056 69.0166 51.5087 70.2044 51.3259 71.2735" fill="#FCEA10"/>
<path d="M57.1827 59.8887C56.7533 61.9172 54.2406 62.6664 53.2356 61.0583C52.4041 59.7243 53.4092 57.5131 55.3462 57.44C56.7442 57.4766 57.4294 58.7283 57.1827 59.8887Z" fill="#95C11F"/>
<path d="M53.7838 65.4349C53.4548 66.8968 51.664 67.4176 50.933 66.2663C50.2295 65.1608 51.0884 63.5709 52.4224 63.5161C53.6467 63.5983 53.9574 64.6856 53.7929 65.4349" fill="#F349A1"/>
<path d="M58.9553 66.6136C58.4802 68.8795 55.6478 69.6745 54.4234 67.8836C53.3544 66.3212 54.4143 63.7446 56.6985 63.6532C58.6538 63.7811 59.1929 65.4532 58.9553 66.6044" fill="#95C11F"/>
<path d="M59.4213 55.0187C59.1654 55.9781 57.9319 56.307 57.4477 55.5578C56.9908 54.836 57.6122 53.8035 58.5167 53.7669C59.3573 53.8218 59.5492 54.5345 59.4213 55.0278" fill="white"/>
<path d="M52.596 74.5536C52.4132 75.6044 51.1706 75.9699 50.6132 75.1475C50.1107 74.4074 50.531 73.2196 51.5635 73.1831C52.4772 73.247 52.6873 74.0602 52.596 74.5628" fill="#F349A1"/>
<path d="M56.333 101.901C56.2782 102.915 55.1086 103.317 54.4142 102.559C53.7289 101.828 53.9939 100.567 55.0904 100.512C55.7939 100.521 56.3787 101.17 56.3421 101.901" fill="white"/>
<path d="M61.1299 103.353C61.066 104.432 59.8051 104.697 59.1381 104.011C58.4528 103.299 58.736 102.029 59.8416 101.983C60.5817 101.992 61.1665 102.623 61.1299 103.363" fill="white"/>
<path d="M54.3229 97.1677C54.2589 98.986 52.2579 99.7718 51.0244 98.4561C49.8549 97.2043 50.3483 94.8743 52.2213 94.7921C53.5279 94.8195 54.3594 96.0439 54.3229 97.1677Z" fill="#1D71B8"/>
<path d="M49.7178 84.8419C49.5077 86.9251 47.26 87.8023 46.0173 86.2856C44.8204 84.8236 45.5239 82.1648 47.5798 82.1008C49.0691 82.1556 49.8549 83.5719 49.727 84.8419" fill="#95C11F"/>
<path d="M51.4173 90.9454C51.2893 92.4896 49.6081 93.0835 48.6488 91.9322C47.7533 90.8632 48.2376 88.9444 49.7452 88.8622C50.7229 88.8713 51.5086 89.849 51.4173 90.9454Z" fill="#F349A1"/>
<path d="M54.0579 87.1444C53.8843 88.6703 52.1665 89.2733 51.2254 88.1403C50.3208 87.0439 50.8325 85.1525 52.3949 85.0703C53.4 85.0794 54.1766 86.0571 54.0579 87.1444Z" fill="#95C11F"/>
<path d="M47.3513 78.7749C47.1686 79.8896 46.0173 80.1546 45.4782 79.451C44.93 78.7383 45.332 77.45 46.328 77.3952C46.995 77.3952 47.4701 78.0531 47.3513 78.784" fill="white"/>
<path d="M79.5501 114.108C79.4588 115.113 78.1979 115.451 77.5034 114.665C76.8913 113.962 77.2202 112.81 78.3075 112.774C79.2486 112.838 79.605 113.587 79.5593 114.108" fill="white"/>
<path d="M83.7806 111.805C83.6801 112.81 82.3826 113.167 81.7065 112.372C81.0943 111.659 81.4415 110.48 82.5379 110.453C83.5704 110.517 83.8171 111.394 83.7806 111.805Z" fill="white"/>
<path d="M75.2283 112.774C75.1461 114.555 72.9532 115.204 71.674 113.825C70.5319 112.591 71.0893 110.526 72.9989 110.49C74.4425 110.544 75.2832 111.723 75.2283 112.783" fill="#1D71B8"/>
<path d="M63.4416 107.812C63.405 109.822 61.1025 110.654 59.5949 109.21C58.1513 107.831 58.663 105.281 60.8832 105.199C62.2995 105.236 63.469 106.433 63.4507 107.812" fill="#95C11F"/>
<path d="M68.7959 110.279C68.7045 111.75 66.868 112.262 65.8172 111.111C64.8761 110.078 65.3055 108.361 66.9228 108.315C68.4304 108.406 68.8415 109.685 68.805 110.288" fill="#F349A1"/>
<path d="M67.9279 105.711C67.8182 107.209 65.9543 107.73 64.9035 106.561C63.9715 105.519 64.4558 103.765 66.0456 103.71C67.5715 103.801 67.9736 105.099 67.937 105.711" fill="#FCEA10"/>
<path d="M57 104.751C56.9543 105.784 55.7208 106.149 55.0355 105.336C54.3685 104.541 54.7706 103.399 55.7391 103.363C56.6528 103.427 57.0274 104.212 57 104.751Z" fill="white"/>
<path d="M77.4943 110.307C77.403 111.33 76.1238 111.677 75.4202 110.873C74.7989 110.161 75.1279 108.982 76.2243 108.945C77.2294 109.009 77.54 109.813 77.4943 110.307Z" fill="#F349A1"/>
<path d="M103.498 107.1C103.352 108.15 102.027 108.489 101.406 107.639C100.885 106.917 101.296 105.775 102.338 105.729C103.069 105.747 103.59 106.369 103.489 107.1" fill="white"/>
<path d="M104.933 102.275C104.787 103.344 103.453 103.701 102.831 102.824C102.292 102.074 102.694 100.914 103.763 100.877C104.485 100.896 105.033 101.544 104.933 102.275Z" fill="white"/>
<path d="M99.8069 109.768C99.615 111.577 97.3216 112.235 96.1978 110.809C95.2293 109.567 95.9237 107.529 97.7968 107.465C99.1856 107.511 99.9257 108.689 99.8069 109.768Z" fill="#FCEA10"/>
<path d="M88.5958 114.382C88.4222 116.41 85.9186 117.132 84.5481 115.561C83.3329 114.163 84.0547 111.842 86.1927 111.796C87.81 111.86 88.6963 113.194 88.5867 114.382" fill="#95C11F"/>
<path d="M93.6303 112.107C93.4384 113.623 91.5379 114.099 90.5968 112.874C89.7927 111.823 90.3501 110.206 91.9034 110.151C92.9541 110.17 93.7582 111.083 93.6211 112.107" fill="#F349A1"/>
<path d="M90.0395 109.247C89.8567 110.782 87.9379 111.266 86.9785 110.033C86.1745 108.991 86.7227 107.337 88.276 107.273C89.3359 107.292 90.1674 108.214 90.0395 109.247Z" fill="#95C11F"/>
<path d="M81.8892 115.716C81.7978 116.73 80.4821 117.059 79.8151 116.246C79.2304 115.533 79.5684 114.437 80.6375 114.4C81.3593 114.409 81.944 115.031 81.8892 115.716Z" fill="white"/>
<path d="M99.5511 105.629C99.414 106.688 98.0708 107.036 97.4404 106.177C96.8922 105.437 97.2942 104.295 98.3632 104.249C99.1764 104.258 99.6333 104.971 99.5511 105.629Z" fill="#F349A1"/>
<path d="M115.166 83.9647C115.066 85.0429 113.814 85.3992 113.156 84.5495C112.571 83.7729 112.9 82.5576 113.969 82.5302C114.929 82.6033 115.203 83.4531 115.157 83.9647" fill="white"/>
<path d="M112.708 79.3871C112.617 80.447 111.365 80.8033 110.698 79.9627C110.104 79.2043 110.424 77.9983 111.493 77.9709C112.453 78.044 112.745 78.8754 112.699 79.3871" fill="white"/>
<path d="M114.792 89.4835C114.636 91.3018 112.553 92.051 111.374 90.717C110.214 89.4013 110.817 87.0439 112.754 87.0165C114.143 87.0896 114.901 88.3505 114.801 89.4926" fill="#1D71B8"/>
<path d="M110.287 101.599C110.059 103.737 107.464 104.505 106.203 102.814C105.115 101.362 105.929 98.9677 108.03 98.9038C109.593 98.9586 110.424 100.347 110.287 101.599Z" fill="#95C11F"/>
<path d="M112.087 95.6784C111.886 97.2134 110.022 97.7434 109.108 96.5281C108.286 95.4317 108.853 93.6408 110.406 93.5952C111.868 93.7048 112.169 95.0479 112.087 95.6784Z" fill="#F349A1"/>
<path d="M107.637 96.1627C107.436 97.7068 105.572 98.2276 104.622 97.0124C103.791 95.9342 104.375 94.1251 105.92 94.0886C107.272 94.1891 107.738 95.3677 107.628 96.1718" fill="#95C11F"/>
<path d="M106.212 106.688C106.047 107.739 104.787 108.086 104.156 107.264C103.599 106.533 104.01 105.336 105.079 105.309C106.084 105.382 106.276 106.277 106.212 106.698" fill="white"/>
<path d="M111.502 85.8652C111.393 86.9434 110.113 87.3089 109.456 86.45C108.862 85.6734 109.218 84.449 110.296 84.4216C111.274 84.4947 111.548 85.3444 111.493 85.8652" fill="#F349A1"/>
<path d="M106.678 59.4319C106.614 60.4461 105.39 60.7659 104.723 59.9435C104.174 59.2674 104.467 58.1801 105.463 58.1436C106.148 58.1618 106.724 58.7649 106.678 59.4319Z" fill="white"/>
<path d="M102.1 58.0522C102.018 59.0573 100.785 59.3679 100.127 58.5547C99.5785 57.8786 99.9074 56.8096 100.903 56.773C101.589 56.7913 102.155 57.3852 102.1 58.0613" fill="white"/>
<path d="M110.388 63.973C110.369 65.6724 108.396 66.376 107.126 65.1334C105.929 63.9547 106.386 61.7984 108.25 61.7435C109.538 61.7892 110.388 62.9313 110.378 63.973" fill="#1D71B8"/>
<path d="M116.007 75.8054C115.906 77.8612 113.649 78.6653 112.224 77.1577C110.872 75.7232 111.447 73.1465 113.604 73.11C115.166 73.1831 116.062 74.5719 116.007 75.8054Z" fill="#FCEA10"/>
<path d="M112.8 69.8846C112.717 71.3374 111.018 71.8856 110.004 70.7892C109.035 69.7476 109.446 67.975 111.009 67.9202C112.023 67.9476 112.855 68.8613 112.8 69.8938" fill="#F349A1"/>
<path d="M110.305 73.4572C110.196 74.9191 108.469 75.4765 107.455 74.3709C106.486 73.311 106.915 71.511 108.514 71.4562C109.547 71.4836 110.378 72.4156 110.305 73.4572Z" fill="#95C11F"/>
<path d="M116.656 81.6074C116.573 82.6399 115.395 83.0328 114.709 82.247C114.061 81.4978 114.371 80.2186 115.459 80.182C116.153 80.2003 116.71 80.8673 116.656 81.6074Z" fill="white"/>
<path d="M101.223 64.7131C101.077 66.4857 98.8292 67.0522 97.6962 65.6085C96.7277 64.375 97.3216 62.4928 99.1307 62.4288C100.346 62.4562 101.324 63.5253 101.223 64.7131Z" fill="#F349A1"/>
<path d="M85.3156 48.1659C85.1694 49.0796 83.9542 49.3903 83.3694 48.6685C82.8486 48.0198 83.2232 46.9964 84.2466 46.969C85.1511 47.0238 85.3887 47.7365 85.3156 48.1659Z" fill="white"/>
<path d="M81.2222 50.2492C81.0578 51.172 79.8151 51.4918 79.2395 50.7609C78.6913 50.0664 79.2212 49.0614 80.1624 49.034C81.0761 49.0888 81.2953 49.8106 81.2222 50.2492Z" fill="white"/>
<path d="M90.8709 49.5091C90.7247 51.1172 88.5866 51.7202 87.5085 50.4593C86.5582 49.3446 87.2069 47.4898 88.943 47.4624C90.2496 47.5172 90.9623 48.568 90.8709 49.5091Z" fill="#1D71B8"/>
<path d="M102.146 54.0959C102.109 55.9507 99.8891 56.7182 98.4912 55.3568C97.1937 54.0959 97.7328 51.7751 99.7978 51.7202C101.269 51.7659 102.164 52.9903 102.146 54.0959Z" fill="#95C11F"/>
<path d="M96.0973 51.8207C95.9694 53.2004 94.2425 53.6573 93.2922 52.5608C92.4699 51.6197 92.945 50.0664 94.4252 50.0299C95.6861 50.1121 96.1612 51.1263 96.0973 51.8207Z" fill="#F349A1"/>
<path d="M96.8008 56.0055C96.6729 57.4035 94.9095 57.8695 93.9409 56.773C93.1003 55.8136 93.612 54.2055 95.0922 54.169C96.5085 54.2695 96.8557 55.4481 96.8008 56.0146" fill="#95C11F"/>
<path d="M106.038 56.8187C105.993 57.7781 104.796 58.1161 104.129 57.3486C103.535 56.6725 103.809 55.5669 104.823 55.5395C105.746 55.6035 106.057 56.3618 106.038 56.8187Z" fill="white"/>
<path d="M87.0151 51.6197C86.878 52.5517 85.6537 52.8715 85.0415 52.1314C84.5024 51.4827 84.877 50.4136 85.9095 50.3862C86.8415 50.4502 87.0882 51.172 87.0242 51.6197" fill="#F349A1"/>
<path d="M60.6365 82.2561C60.3807 84.5861 57.5025 85.5546 56.1046 83.7729C54.7705 82.0734 56.0315 79.515 58.2152 79.4968C59.9695 79.579 60.7736 80.977 60.6365 82.247" fill="#95C11F"/>
<path d="M60.3076 75.778C60.1249 76.9292 58.6538 77.3678 57.9868 76.4724C57.466 75.778 57.8497 74.4531 59.1381 74.38C59.9969 74.4074 60.4173 75.1292 60.3167 75.778" fill="white"/>
<path d="M71.7654 103.125C71.7015 103.865 70.7329 104.158 70.2395 103.582C69.8101 103.079 70.0933 102.266 70.8974 102.22C71.4182 102.239 71.802 102.65 71.7654 103.134" fill="white"/>
<path d="M98.3815 80.8764C98.2445 82.2104 96.5724 82.7038 95.7501 81.6531C95.1105 80.8307 95.4577 79.3505 96.9379 79.2683C97.9338 79.314 98.4638 80.1363 98.3815 80.8764Z" fill="white"/>
<path d="M93.4932 77.2125C93.3562 78.4917 91.6567 78.9851 90.8526 77.98C90.2222 77.1942 90.5876 75.7049 92.0496 75.6227C93.0455 75.6592 93.5754 76.4815 93.4932 77.2125Z" fill="white"/>
<path d="M100.465 87.4734C100.282 89.7942 97.4039 90.7627 95.9328 88.9901C94.6354 87.4277 95.5125 84.8054 97.9612 84.6957C99.7247 84.7871 100.565 86.1942 100.465 87.4734Z" fill="#FCEA10"/>
<path d="M108.825 80.6023C108.679 82.8775 105.883 83.8277 104.43 82.0917C103.142 80.5567 103.955 77.98 106.34 77.8795C108.058 77.9709 108.898 79.3506 108.825 80.6023Z" fill="#FCEA10"/>
<path d="M94.9552 84.9515C94.8181 86.2581 93.1095 86.7698 92.3054 85.7373C91.6567 84.9059 92.0039 83.3982 93.5115 83.316C94.5074 83.3526 95.0374 84.1932 94.9552 84.9424" fill="#F349A1"/>
<path d="M83.8994 95.5962C83.7532 96.921 82.0811 97.4144 81.2313 96.3728C80.5735 95.5688 80.9207 94.052 82.4283 93.9698C83.4425 94.0063 83.9816 94.8469 83.8994 95.5962Z" fill="white"/>
<path d="M86.0283 102.083C85.8455 104.34 83.0039 105.263 81.4872 103.564C80.144 102.047 80.9938 99.4976 83.479 99.388C85.2699 99.4702 86.1288 100.841 86.0283 102.083Z" fill="#FCEA10"/>
<path d="M83.7258 79.8714C83.5247 82.1282 80.5826 83.0876 79.1115 81.379C77.7958 79.8531 78.7004 77.2856 81.2131 77.1668C83.0039 77.249 83.8445 78.6196 83.7349 79.8714" fill="#FCEA10"/>
<path d="M80.4364 99.6439C80.2994 100.95 78.6364 101.435 77.7776 100.42C77.1106 99.6347 77.4486 98.1362 78.9562 98.054C79.9705 98.0906 80.5095 98.9129 80.4364 99.653" fill="#F349A1"/>
<path d="M84.5481 61.8806C84.2922 63.9821 81.4506 64.8501 80.071 63.242C78.7644 61.707 80.0344 59.3496 82.1725 59.3588C84.1095 59.4593 84.6577 60.9578 84.5481 61.8806Z" fill="#1D71B8"/>
<path d="M77.1837 73.448C76.8913 75.7323 74.004 76.646 72.6334 74.8917C71.5735 73.5303 72.2862 70.8531 74.8172 70.7161C76.672 70.7983 77.3116 72.3607 77.1745 73.448" fill="#1D71B8"/>
<path d="M76.4436 58.3081C76.0964 60.4644 72.9989 61.2502 71.8294 59.4776C70.8243 57.9426 72.1949 55.8411 74.1867 55.8411C76.0964 55.9324 76.5806 57.4035 76.4344 58.3081" fill="#1D71B8"/>
<path d="M95.9054 72.0501C95.7227 74.5719 92.479 75.6135 90.7978 73.6856C89.3268 72.0044 90.3135 69.1719 93.0729 69.0531C95.0465 69.1536 96.0059 70.6704 95.9054 72.0409" fill="#95C11F"/>
<path d="M89.6374 67.0064C89.3816 68.8704 86.9146 69.4917 85.7999 67.975C84.8222 66.641 85.873 64.7861 87.609 64.777C89.0526 64.841 89.7745 65.9648 89.6374 67.0064Z" fill="#F349A1"/>
<path d="M90.0851 58.5638C89.8475 60.3181 87.408 60.9303 86.3572 59.4958C85.4161 58.2166 86.4486 56.444 88.1207 56.4349C89.5186 56.4989 90.2222 57.5679 90.0851 58.573" fill="#F349A1"/>
<path d="M88.1846 72.2694C87.9379 74.1608 85.4252 74.8003 84.2922 73.2653C83.2872 71.9039 84.3471 70.0034 86.1288 69.9851C87.746 70.0582 88.3034 71.3648 88.1846 72.2694Z" fill="#95C11F"/>
<path d="M99.4231 96.6012C99.1856 99.1505 95.9237 100.229 94.2881 98.2916C92.8262 96.5647 93.8861 93.5952 96.6089 93.4764C98.6191 93.5769 99.5602 95.1667 99.4231 96.6012Z" fill="#95C11F"/>
<path d="M93.1278 91.2835C92.8994 93.1292 90.5237 93.8693 89.3268 92.4622C88.139 91.0642 89.1714 88.8896 91.0262 88.8713C92.5156 88.9444 93.2648 90.1505 93.1278 91.2835Z" fill="#F349A1"/>
<path d="M91.6567 96.8297C91.4009 98.7667 88.879 99.4246 87.7461 97.853C86.7227 96.4368 87.7826 94.4723 89.5643 94.454C91.0354 94.5271 91.7937 95.7424 91.6567 96.8297Z" fill="#95C11F"/>
<path d="M77.476 93.3485C77.3299 94.6551 75.6303 95.1576 74.7989 94.1434C74.1319 93.3393 74.4882 91.8043 76.005 91.7221C77.138 91.7678 77.5491 92.6997 77.476 93.3485Z" fill="white"/>
<path d="M79.9704 87.9576C79.742 90.6165 76.4527 91.722 74.7167 89.7119C73.2091 87.9667 74.2781 84.9515 77.074 84.8145C79.1207 84.915 80.0984 86.5048 79.9704 87.9576Z" fill="#95C11F"/>
<path d="M73.5471 82.6581C73.273 84.6226 70.7146 85.2896 69.5725 83.6998C68.5583 82.2835 69.6548 80.3099 71.4639 80.2917C73.1177 80.3648 73.675 81.717 73.5471 82.6581Z" fill="#F349A1"/>
<path d="M72.0212 88.2226C71.7745 90.1871 69.2253 90.8815 68.0649 89.2916C67.0141 87.848 68.0741 85.8379 69.9106 85.8196C71.4182 85.8835 72.1674 87.0896 72.0304 88.2226" fill="#95C11F"/>
<path d="M99.0759 77.514C98.9298 78.8297 97.2211 79.2774 96.4354 78.2084C95.7227 77.249 96.4353 75.915 97.6506 75.9059C98.7561 75.9607 99.149 76.8835 99.0759 77.5231" fill="white"/>
<path d="M62.9756 74.1059C62.7654 75.248 61.2121 75.6592 60.5908 74.7364C60.07 73.9597 60.6365 72.7171 61.7878 72.6988C62.6741 72.7354 63.0944 73.4572 62.9847 74.1059" fill="white"/>
<path d="M63.4599 79.4145C63.2772 80.5932 61.7056 81.0135 61.0569 80.0541C60.5086 79.2501 61.0568 77.9983 62.2447 77.98C63.2314 78.0257 63.5512 78.8389 63.469 79.4054" fill="white"/>
<path d="M67.6994 69.5008C67.3979 71.4379 64.7939 72.2511 63.5969 70.7709C62.4548 69.3638 63.6883 67.1801 65.6345 67.1801C67.2974 67.2623 67.8456 68.5871 67.6994 69.5008Z" fill="#1D71B8"/>
<path d="M72.4872 64.6765C72.1857 66.2755 69.9198 66.842 69.0243 65.5445C68.2203 64.375 69.2436 62.7395 70.7969 62.7212C72.204 62.7851 72.6334 63.8998 72.4872 64.6765Z" fill="#F349A1"/>
<path d="M67.7177 73.6582C67.5167 74.8186 65.9543 75.2206 65.2964 74.2886C64.7116 73.448 65.406 72.2785 66.5025 72.2693C67.407 72.3059 67.8365 73.0094 67.7177 73.6673" fill="#F349A1"/>
<path d="M63.9441 90.9363C63.798 93.3302 60.9746 94.317 59.4944 92.4896C58.1878 90.8723 58.9919 88.1495 61.3858 88.0307C62.866 88.049 64.0355 89.3738 63.935 90.9363" fill="#95C11F"/>
<path d="M68.869 92.8825C68.7594 94.0886 67.3157 94.518 66.5665 93.5678C65.936 92.7728 66.3563 91.4297 67.5533 91.3749C68.5492 91.4297 68.9238 92.2886 68.869 92.8825Z" fill="white"/>
<path d="M70.0659 95.852C69.9471 97.0307 68.5127 97.4601 67.7726 96.5464C67.1238 95.7332 67.5259 94.4175 68.7411 94.3535C69.737 94.4266 70.1025 95.2764 70.0385 95.852" fill="white"/>
<path d="M64.6477 95.4957C64.538 96.6744 63.1035 97.1038 62.3726 96.181C61.7238 95.3678 62.135 94.0429 63.3502 93.9789C64.3279 94.052 64.7116 94.9201 64.6568 95.4866" fill="white"/>
<path d="M75.0547 100.302C74.9542 102.376 72.4964 103.198 71.135 101.617C69.9563 100.247 70.669 97.8987 72.7522 97.7982C74.0679 97.8164 75.1187 98.9586 75.0547 100.302Z" fill="#1D71B8"/>
<path d="M69.6548 100.622C69.6273 101.033 69.335 101.745 68.4213 101.791C67.0964 101.7 66.7126 100.137 67.5532 99.4246C67.873 99.1505 68.202 99.1322 68.3664 99.123C69.2893 99.187 69.7279 99.9362 69.6822 100.612" fill="#F349A1"/>
</g>
</g>
<defs>
<radialGradient id="paint0_radial_41_2" cx="0" cy="0" r="1" gradientUnits="userSpaceOnUse" gradientTransform="translate(90 90) rotate(90) scale(90)">
<stop stop-color="#5E35B1"/>
<stop offset="1" stop-color="#0A0023"/>
</radialGradient>
<clipPath id="clip0_41_2">
<rect width="180" height="180" fill="white"/>
</clipPath>
</defs>
</svg>
