<!-- <svg width="46" height="55" viewBox="0 0 46 55" fill="none" xmlns="http://www.w3.org/2000/svg">
<g clip-path="url(#clip0)">
<path d="M19.6667 55C8.82205 55 0 46.2504 0 35.4968C0 24.7431 8.82292 15.9935 19.6667 15.9935C30.5105 15.9935 39.3334 24.7431 39.3334 35.4968C39.3334 46.2504 30.5122 55 19.6667 55ZM19.6667 17.8563C9.8587 17.8563 1.87839 25.7686 1.87839 35.4959C1.87839 45.2233 9.8587 53.1355 19.6667 53.1355C29.4747 53.1355 37.4559 45.2215 37.4559 35.4942C37.4559 25.7668 29.4765 17.8563 19.6667 17.8563Z" fill="#2196F3"/>
<path d="M33.9387 36.3618C33.3269 34.1133 27.7188 33.8706 24.3807 34.6949C22.6326 35.1283 20.846 35.6917 19.0034 36.0159C20.3521 37.2026 21.8005 38.3251 23.879 38.6042C29.0361 39.2942 32.2404 37.6898 33.9387 36.3618Z" fill="#2196F3"/>
<path d="M23.8788 38.6042C21.7959 38.3251 20.3519 37.2026 19.0032 36.016C16.9159 34.1792 15.0594 32.189 11.4154 32.9379C5.62198 34.1289 4.85978 40.9247 9.3333 45.2917C11.254 47.2864 13.7197 48.6822 16.4284 49.3079C19.137 49.9336 21.9709 49.7621 24.5828 48.8144C27.1946 47.8667 29.4709 46.1839 31.1327 43.9724C32.7945 41.7608 33.7696 39.1165 33.9385 36.3635C32.2402 37.6898 29.0358 39.2942 23.8788 38.6042Z" fill="#673AB7"/>
<path d="M26.9105 23.8962C26.1876 25.4331 32.6321 27.1381 33.4031 32.2419C33.7746 27.2178 27.8046 21.9962 26.9105 23.8962Z" fill="#2196F3"/>
<path d="M13.3649 30.3107C14.5267 29.8335 15.0784 28.5126 14.5972 27.3604C14.116 26.2083 12.784 25.6611 11.6222 26.1384C10.4604 26.6156 9.90867 27.9365 10.3899 29.0887C10.8712 30.2408 12.2031 30.7879 13.3649 30.3107Z" fill="#673AB7"/>
<path d="M18.5351 24.1103C19.0786 23.5714 19.0786 22.6977 18.5351 22.1587C17.9917 21.6198 17.1106 21.6198 16.5672 22.1587C16.0238 22.6977 16.0238 23.5714 16.5672 24.1103C17.1106 24.6492 17.9917 24.6492 18.5351 24.1103Z" fill="#2196F3"/>
<path d="M23.4513 15.2376C25.4617 9.3485 24.1103 4.64345 19.9786 2.40881C17.1544 2.97831 15.4779 4.334 14.5444 6.20544C20.0843 5.76077 23.5999 9.1994 23.4513 15.2376Z" fill="#2196F3"/>
<path d="M46.0001 10.0923C36.0487 6.55051 29.7685 7.76491 28.7808 15.8349C34.4841 21.6703 40.2286 18.8774 46.0001 10.0923Z" fill="#2196F3"/>
<path d="M38.0851 6.89635C38.5466 4.94082 38.7861 2.6299 38.8219 0C28.5017 2.27885 23.8473 6.6337 27.3584 13.9782C27.5333 14.0198 27.7011 14.0536 27.8698 14.0883C28.6905 8.34132 32.3031 6.2133 38.0851 6.89635Z" fill="#2196F3"/>
</g>
<defs>
<clipPath id="clip0">
<rect width="46" height="55" fill="white"/>
</clipPath>
</defs>
</svg> -->


<svg width="56" height="56" viewBox="0 0 56 56" fill="none" xmlns="http://www.w3.org/2000/svg">
<g clip-path="url(#clip0_43_916)">
<path d="M27.9758 0L28.4784 0.00287429C29.2453 0.0172317 29.7508 0.0516877 30.196 0.0861455C30.5981 0.11486 31.1324 0.17516 31.5316 0.223976C32.3358 0.321606 33.3957 0.531226 34.1913 0.69203C35.1793 0.893034 37.2415 1.51328 38.4191 2.01292C39.0194 2.26848 39.8294 2.59008 40.401 2.90307C40.9725 3.21607 41.7423 3.60659 42.2995 3.93681C42.8567 4.26703 43.5977 4.72073 44.1147 5.11699C44.6317 5.51326 45.3297 6.01577 45.8265 6.42639C46.3234 6.83701 46.9668 7.41131 47.4292 7.85927C48.1569 8.56182 49.1095 9.63288 50.2871 11.0725C50.6978 11.5721 51.1746 12.2928 51.5279 12.8384C51.8812 13.384 52.3005 14.1392 52.6308 14.6991C52.9611 15.2591 53.3287 16.0516 53.593 16.6489C54.1243 17.852 54.6672 19.5233 55.0549 20.781C55.2531 21.4184 55.4111 22.2971 55.5432 22.9489C55.7155 23.8046 55.8764 24.9647 55.9166 25.8405C55.9482 26.5297 56.0028 27.4457 55.9999 28.1348C55.997 28.824 55.9453 29.74 55.8965 30.4263C55.8477 31.1126 55.75 32.0056 55.6121 32.6689C55.3393 33.9697 54.9314 35.7012 54.5293 36.9675C54.3311 37.5935 54.0267 38.4176 53.7452 39.012C53.4637 39.6064 53.1133 40.399 52.8089 40.9761C52.5044 41.5533 52.0736 42.3028 51.7289 42.8541C51.3843 43.4054 50.9161 44.1319 50.5111 44.6373C49.704 45.6423 48.5925 46.9603 47.6935 47.8878C47.2425 48.3501 46.5992 48.9244 46.1052 49.3436C45.6111 49.7629 44.9189 50.274 44.4134 50.6731C43.9079 51.0723 43.1554 51.5145 42.6154 51.8763C41.7653 52.442 39.6484 53.5159 38.7408 53.8576C38.0659 54.1132 37.1783 54.4894 36.4833 54.6875C35.2655 55.0321 33.6254 55.4484 32.376 55.6581C31.681 55.7758 30.2477 55.9079 29.0471 55.9653C28.7197 55.9797 28.2745 56.0026 27.927 55.9998C27.8035 55.9998 27.68 55.9998 27.5565 55.9969C27.0136 55.9883 26.6718 55.971 26.3071 55.9509C26.8212 55.9825 27.3411 55.9969 27.8638 55.9969C27.3411 55.9969 26.8241 55.9825 26.3071 55.9509C25.7441 55.9079 24.9945 55.8418 24.4344 55.7758C24.0409 55.7298 23.5153 55.6552 23.1275 55.5777C22.2716 55.4111 20.488 55.0608 19.0088 54.5238C17.7852 54.0787 16.1739 53.4183 15.0222 52.8124C12.9197 51.7098 11.4204 50.5612 11.3573 50.5123C10.3549 49.7399 9.40703 49.0106 8.10592 47.6954C6.83353 46.4119 5.88857 45.2058 5.31988 44.419C4.99819 43.9768 4.02451 42.6272 3.05658 40.7378C2.45916 39.572 1.79856 37.9525 1.37347 36.7149C0.606597 34.4751 0.126934 31.5577 0.0666173 30.1592C0.0120455 28.9331 -0.0425256 27.2906 0.0493848 26.0645C0.109701 25.2835 0.230338 23.7013 0.718613 21.6166C1.43666 18.5498 2.59703 15.9023 4.01303 13.5477C5.02404 11.8679 6.80194 9.36393 9.53053 6.96623C10.0159 6.54125 10.6852 5.99567 11.2022 5.60802C11.7191 5.22036 12.4458 4.74657 12.98 4.37615C13.5143 4.00573 14.2869 3.61233 14.847 3.28498C15.4071 2.95763 16.2141 2.59296 16.8173 2.33165C17.4205 2.07035 18.2333 1.76884 18.8451 1.53912C19.4885 1.29504 20.376 1.04809 21.0452 0.878675C21.7144 0.709257 22.5675 0.522613 23.2281 0.410625C24.7647 0.152191 27.1457 0.00861727 27.9902 0.00287429L27.9758 0Z" fill="url(#paint0_radial_43_916)"/>
<mask id="mask0_43_916" style="mask-type:luminance" maskUnits="userSpaceOnUse" x="0" y="0" width="57" height="56">
<path d="M0.0123974 27.8677C0.0010269 27.1798 0.0294518 26.2588 0.117573 25.5737C0.205695 24.8887 0.290973 24.0018 0.401836 23.3309C0.512698 22.66 0.674724 21.7902 0.859494 21.1478C1.38254 19.3455 1.85252 17.9583 2.26944 16.9862C3.21604 14.7774 4.27633 13.16 4.2877 13.1458C4.64871 12.6085 5.12059 11.8837 5.50719 11.3635C5.89379 10.8433 6.43104 10.1724 6.85459 9.68346C7.39185 9.06661 8.44931 7.89545 9.91326 6.6589C10.641 6.04206 11.832 5.09262 13.404 4.12612C15.0215 3.13405 16.403 2.50014 17.2785 2.14481C17.9465 1.87192 18.8419 1.51375 19.5355 1.31761C20.755 0.973656 22.4009 0.587055 23.6431 0.345432C23.6488 0.345432 24.3168 0.22036 26.0366 0.0952841C26.2385 0.0810709 26.7871 0.0441171 27.4835 0.0156909C27.9867 -0.00420749 28.3221 0.00431796 28.3221 0.00431796C28.4301 0.00431796 28.5353 0.0071618 28.6433 0.0100044C28.757 0.0100044 29.0583 0.0213767 29.4137 0.0384324C29.8988 0.0630685 30.6208 0.126553 31.5797 0.228888C31.9067 0.262999 32.3387 0.339749 32.6656 0.388074C33.3621 0.493251 34.2746 0.714974 34.9625 0.874161C36.0853 1.13284 37.9842 1.78949 39.0388 2.26136C41.3953 3.31313 42.4841 4.00674 42.8735 4.27394C43.4079 4.6378 44.1498 5.08693 44.6558 5.49059C45.6621 6.29789 46.9811 7.40651 47.9078 8.30478C47.9646 8.35879 49.3064 9.66925 50.6936 11.5823C51.7766 13.0747 52.5214 14.4079 52.9563 15.2635C53.2093 15.7638 53.9825 17.2818 54.6391 19.2887C55.0513 20.5537 55.4464 22.2905 55.6824 23.5981C55.7819 24.1609 56.0178 25.7272 56.0292 28.1349C56.0349 29.3544 55.8558 30.9776 55.7165 32.1885C55.6397 32.8565 55.472 33.7378 55.2958 34.3859C55.1195 35.034 54.9092 35.8868 54.7045 36.5178C54.4998 37.1489 54.2042 37.9704 53.9541 38.5787C53.6158 39.4003 53.0302 40.7534 52.0012 42.4561C51.0546 44.0252 50.1165 45.2163 49.4911 45.961C48.3342 47.3454 47.2199 48.3915 46.4836 49.0368C45.9975 49.4632 45.3267 50.0089 44.8093 50.3984C44.292 50.7878 43.5728 51.2625 43.0384 51.6264C43.0213 51.6378 41.3698 52.7293 39.2037 53.6702C38.1974 54.108 36.7884 54.5932 34.9767 55.1257C34.3598 55.3076 33.5127 55.4526 32.8817 55.5776C32.8817 55.5776 32.5406 55.6373 32.0914 55.697C30.5194 55.8989 28.7798 55.987 28.1828 55.9984C27.5063 56.0097 26.5227 55.9586 26.3323 55.95C12.2925 55.1086 1.17218 42.8995 1.24325 28.0099C1.31716 12.5744 13.3898 0.0128486 28.1572 0.00716336C13.3926 0.0128486 1.31716 12.5716 1.24325 28.0099C1.17218 42.8995 12.2925 55.1115 26.3323 55.95C25.7751 55.9102 25.0303 55.8562 24.476 55.7766C24.0752 55.7198 23.538 55.6459 23.1371 55.5748C22.7108 55.498 22.1422 55.3986 21.7244 55.2877C20.4708 54.9551 18.8221 54.4292 17.6026 53.9943C16.9829 53.7726 16.1926 53.3917 15.6042 53.0989C13.4552 52.0329 11.9059 50.8958 11.8917 50.8845C11.3772 50.4922 10.6609 50.0061 10.1805 49.574C9.21966 48.7155 7.9689 47.5302 7.08769 46.5893C6.64708 46.1174 6.10982 45.4408 5.71754 44.9263C5.32526 44.4118 4.85054 43.6926 4.47816 43.1611C4.10578 42.6295 3.70496 41.8591 3.37522 41.2991C2.63614 40.0512 1.88568 38.0671 1.60426 37.3223C1.24609 36.3757 0.688941 34.3887 0.464374 33.0498C0.0806194 30.7757 0.0379783 29.7979 0.009552 27.8649L0.0123974 27.8677Z" fill="white"/>
</mask>
<g mask="url(#mask0_43_916)">
<path d="M2.10745 38.5816C2.28938 39.0279 2.67597 39.8921 2.82663 39.9773C2.97445 39.8693 1.88572 37.166 1.63557 37.0239C1.53039 37.1006 1.93973 38.1723 2.10745 38.5816Z" fill="white"/>
<path d="M0.291004 31.8361C0.521257 33.4762 0.88227 34.636 1.08125 34.3688C1.39963 33.9368 0.930595 29.0105 0.299532 28.7319C0.00105614 28.8001 0.114767 30.5881 0.288168 31.8361" fill="#1D71B8"/>
<path d="M3.21037 15.039C2.41443 16.5683 2.01362 17.7565 2.33483 17.6372C2.50255 17.5746 3.10519 16.9151 4.19391 14.8571C4.50092 14.2573 5.48446 12.293 5.2201 12.1452C4.987 12.1878 4.31899 13.0094 3.36102 14.7576C3.31554 14.8429 3.25585 14.9537 3.21037 15.039Z" fill="#95C11F"/>
<path d="M0.535456 22.8391C0.285305 24.2064 0.273936 25.2127 0.509874 25.0336C0.902156 24.738 1.82885 20.6759 1.34844 20.4059C1.08976 20.44 0.717384 21.8471 0.535456 22.8391Z" fill="#F349A1"/>
<path d="M1.4849 19.0329C1.2717 19.7577 0.967542 20.7157 0.785614 21.4491C1.03577 20.44 1.5389 18.8339 1.90845 17.8702L1.4849 19.03" fill="#FCEA10"/>
<path d="M7.89502 8.58905C7.59938 8.89606 7.02802 9.52428 6.98538 9.69199C6.98538 9.69483 6.99107 9.70052 6.99391 9.70336C7.17584 9.68062 9.09461 7.705 9.17704 7.45485C9.17704 7.452 9.17136 7.44916 9.17136 7.44632C9.06618 7.46053 8.45786 8.00347 7.89786 8.58905" fill="white"/>
<path d="M0.956159 35.2216L1.04429 35.5457C0.86236 34.8947 0.603678 33.7832 0.481445 33.1209L0.956159 35.2245" fill="#F349A1"/>
<path d="M7.09054 46.5893C7.68181 47.2061 8.46637 48.0333 9.08891 48.6189C7.90353 47.5273 6.30881 45.7081 5.51288 44.6478C5.98191 45.2333 6.58455 46.0378 7.09054 46.5893Z" fill="#95C11F"/>
<path d="M3.79028 41.9359C4.14845 42.5499 4.58338 43.1923 4.6914 43.1667C4.80795 42.9678 3.40654 40.5061 3.1308 40.4236C3.12512 40.4236 3.11942 40.4236 3.11658 40.4265C3.04836 40.5373 3.41506 41.2878 3.79028 41.9359Z" fill="white"/>
<path d="M54.7955 19.7748C54.841 19.9254 54.9348 20.2268 55.0286 20.5736L54.642 19.2887L54.3293 18.3876C54.406 18.5979 54.5851 19.0897 54.7955 19.7719" fill="#FCEA10"/>
<path d="M54.5397 37.0153C54.3805 37.4872 54.244 37.8425 54.1929 37.9761L54.7045 36.5179L55.0656 35.2927C54.9121 35.8527 54.8211 36.1512 54.642 36.7055C54.6107 36.7964 54.5709 36.9215 54.5397 37.0125" fill="#95C11F"/>
<path d="M28.1487 0.0071789C28.0947 0.0071789 28.0407 0.00717612 27.9867 0.0043335C28.0435 0.0043335 28.1004 0.00433627 28.1544 0.0071789C28.1544 0.0071789 28.1487 0.0071789 28.1459 0.0071789" fill="white"/>
<path d="M28.1459 0.0071789C28.089 0.00433627 28.035 0.0043335 27.9782 0.0043335C28.0379 0.0043335 28.0976 0.00433471 28.1573 0.01002C28.1544 0.01002 28.1516 0.01002 28.1459 0.01002" fill="#1D71B8"/>
<path d="M28.2084 0.00717163C28.2425 0.00717163 28.2852 0.00717163 28.3193 0.00717163C28.3022 0.00717163 28.2795 0.00717163 28.2624 0.00717163C28.2255 0.00717163 28.1885 0.00717007 28.1544 0.0100127C28.1715 0.0100127 28.1914 0.0100127 28.2084 0.0100127" fill="#FCEA10"/>
<path d="M27.6314 0.0128508C27.674 0.0128508 27.7138 0.0100098 27.7564 0.0100098C27.7508 0.0100098 27.7451 0.0100098 27.7422 0.0100098H27.6314" fill="#F349A1"/>
<path d="M8.32141 8.11435L8.22192 8.21384C8.22192 8.21384 10.5273 6.15294 10.5586 6.12451L10.5472 6.13304C9.87064 6.71862 8.961 7.48897 8.32141 8.11435Z" fill="white"/>
<path d="M5.50436 11.3663L4.28772 13.1429C4.68284 12.5176 5.43899 11.4402 5.87106 10.8802L5.50436 11.3663Z" fill="white"/>
<path d="M25.3175 0.152162C26.2641 0.044142 27.1908 -0.00418102 28.1544 0.00718948C27.3073 -0.00702364 26.7615 0.035613 26.3152 0.0754097C25.8718 0.106679 25.7041 0.118052 25.3175 0.149321" fill="#95C11F"/>
</g>
<mask id="mask1_43_916" style="mask-type:luminance" maskUnits="userSpaceOnUse" x="0" y="0" width="57" height="56">
<path d="M26.3323 55.95C25.5307 55.8818 24.4618 55.7653 23.6631 55.6601C23.2622 55.6061 22.7335 55.4924 22.3327 55.4185C21.5368 55.2735 20.485 55.012 19.7203 54.7448C19.0836 54.523 18.2308 54.2416 17.6054 53.9915C16.98 53.7413 16.2069 53.3917 15.6213 53.1046C13.5007 52.0585 11.9145 50.8958 11.9003 50.8845C10.0042 49.4575 9.71145 49.2272 8.58293 48.1385C8.19633 47.7633 7.0138 46.6262 5.72325 44.9235C5.20873 44.2441 4.29909 42.999 3.37808 41.2991C2.2325 39.1814 1.63271 37.3962 1.60712 37.3223C1.21484 36.1426 0.805499 34.9146 0.467226 33.0498C0.219918 31.6911 0.140325 31.2505 0.01525 28.5414C-0.0245468 27.6517 0.0152517 26.4578 0.114744 25.5709C0.344996 23.5413 0.447329 22.7794 0.85951 21.1478C1.32002 19.32 1.88002 17.8958 2.26946 16.9862C3.10235 15.0418 3.93239 13.7143 4.28488 13.1458C5.32244 11.4828 7.14172 9.00692 9.90759 6.65891C10.5841 6.0847 11.7866 5.11537 13.3955 4.12898C14.8623 3.22786 15.8743 2.75598 17.2501 2.15335C18.805 1.47112 20.4537 1.03904 21.3378 0.805947C21.9518 0.643917 22.7875 0.490416 23.4129 0.379553C23.8251 0.305645 24.4192 0.240262 24.6125 0.217521C25.5079 0.11803 27.4011 -0.0155722 28.3221 0.00148353C28.4586 0.00432616 28.5978 0.00432581 28.7343 0.0100111C30.8265 0.0640209 32.4866 0.353966 32.6685 0.385235C33.6634 0.564321 35.0279 0.811633 36.9836 1.46828C38.2173 1.8833 39.8177 2.5769 40.9718 3.17385C41.6654 3.53202 43.0668 4.30806 44.653 5.47922C45.7957 6.32348 46.893 7.27292 47.9135 8.29911C48.9226 9.31677 49.8607 10.4169 50.6993 11.5767C51.4611 12.6256 52.3395 14.1208 52.962 15.255C52.9705 15.2721 53.9029 17.0089 54.6448 19.2802C55.057 20.5451 55.4322 22.2848 55.6881 23.5896C55.8188 24.2548 55.9013 25.1587 55.9524 25.8353C56.0036 26.5118 56.0093 27.4413 56.0349 28.1293C56.0605 28.8172 55.9865 29.7353 55.9297 30.4233C55.833 31.6228 55.5346 33.2033 55.2986 34.3802C55.1679 35.0311 54.8893 35.8726 54.7102 36.5122C54.7045 36.5292 54.1218 38.4537 53.0558 40.5544C51.9187 42.7972 50.8272 44.2413 50.8158 44.2526C50.4207 44.7643 49.9289 45.475 49.4968 45.9554C49.0648 46.4358 48.5019 47.0896 48.0528 47.5501C47.6036 48.0106 46.9811 48.6075 46.4922 49.0282C46.0032 49.4489 45.3381 50.0004 44.8207 50.387C44.3034 50.7736 43.5813 51.2455 43.0498 51.615C42.5182 51.9846 41.745 52.3797 41.185 52.7066C41.1679 52.7151 39.3913 53.6987 37.1826 54.4576C36.5799 54.6652 35.7698 54.9238 35.1501 55.0773C34.5304 55.2308 33.689 55.4128 33.0579 55.5407C33.0295 55.5464 32.768 55.5975 32.1938 55.6771C31.4973 55.7738 30.1585 55.9074 28.6774 55.9756C27.9981 56.0069 27.2106 55.9955 26.338 55.9443L26.3323 55.95Z" fill="white"/>
</mask>
<g mask="url(#mask1_43_916)">
<path d="M4.1655 42.1889C4.32753 42.4703 4.85057 43.3885 4.79372 43.4709C4.53788 43.36 3.09098 40.8927 3.19616 40.7477C3.3724 40.8273 4.08306 42.0496 4.1655 42.1889Z" fill="white"/>
<path d="M1.48775 19.7719C1.38541 20.1017 0.862365 21.7533 0.717391 21.9011C0.703178 21.8755 0.688971 21.8499 0.78562 21.4491C0.990289 20.7242 1.24612 19.7492 1.4849 19.0329L1.90845 17.8731C2.05343 17.5064 2.0847 17.4723 2.10744 17.4495C2.14724 17.6428 1.64409 19.2773 1.48775 19.7748" fill="#FCEA10"/>
<path d="M0.876571 34.4058C0.944794 34.6986 1.16368 35.6651 1.17221 35.8896C1.16652 35.8896 1.16084 35.8896 1.15515 35.8896C1.12673 35.8271 1.09546 35.7276 1.04429 35.5428L0.956164 35.2188L0.481451 33.1152C0.430283 32.8338 0.424594 32.7713 0.433122 32.7429C0.515558 32.8395 0.862358 34.3404 0.876571 34.403" fill="#F349A1"/>
<path d="M22.7108 55.0091C23.3172 55.2327 23.6384 55.3559 23.6744 55.3787C23.6744 55.3787 23.6687 55.3872 23.6687 55.39C23.2566 55.3758 21.3037 54.7845 21.1928 54.5543C21.1928 54.5514 21.1985 54.5458 21.1985 54.5429C21.207 54.5401 21.2212 54.5372 21.2298 54.5372C21.4458 54.5486 21.9802 54.7391 22.7108 55.0091Z" fill="white"/>
<path d="M23.6375 54.8243C24.1776 55.1257 24.1747 55.1768 24.1747 55.1939C24.007 55.3445 22.1877 54.5514 22.165 54.3184C22.1593 54.2672 22.2332 54.2643 22.2559 54.2643C22.6283 54.2814 23.3447 54.6623 23.6346 54.8243" fill="white"/>
<path d="M18.7766 53.6617C20.2036 54.4264 20.2889 54.4719 20.3514 54.5515C20.2434 54.6197 19.0182 54.2615 17.5514 53.5765C16.0988 52.863 15.7264 52.4622 15.735 52.3399C15.7549 52.3229 15.789 52.3115 15.8146 52.3087C16.2267 52.3371 17.0625 52.7493 18.5605 53.548C18.6259 53.5822 18.7112 53.6276 18.7766 53.6617Z" fill="#FCEA10"/>
<path d="M7.69035 46.9162C8.85014 48.2143 9.43857 48.8785 9.45563 48.9089C9.39025 48.8861 9.37603 48.8833 9.08892 48.6218C8.48345 48.0191 7.66761 47.2232 7.09056 46.5921C6.613 46.0122 5.96203 45.2504 5.5129 44.6506C5.30254 44.3663 5.30539 44.3379 5.30539 44.3209C5.40583 44.3834 6.20081 45.2495 7.69035 46.919" fill="#95C11F"/>
<path d="M12.5228 50.5718C13.9185 51.6605 13.9498 51.7827 13.964 51.8339C13.9612 51.8396 13.9555 51.8453 13.9526 51.8509C13.3358 51.8509 10.0298 49.3864 10.3425 49.159C10.3482 49.1533 10.3596 49.1533 10.3681 49.1505C10.6808 49.1789 11.7098 49.9407 12.52 50.5718" fill="#F349A1"/>
<path d="M8.88709 46.6433C9.57216 47.479 10.1265 48.346 9.7285 48.2749C8.89277 48.1271 6.36284 45.1935 6.81766 44.9007C6.83756 44.8894 6.86029 44.8865 6.87735 44.8837C7.35775 44.9263 8.401 46.052 8.88424 46.6433" fill="#95C11F"/>
<path d="M18.7084 52.988C18.8505 53.0875 19.5526 53.5878 19.3281 53.6219C18.8306 53.6958 16.7782 52.4508 16.9914 52.2063C17.0113 52.1807 17.0511 52.1807 17.0767 52.1779C17.5713 52.2034 18.5947 52.9084 18.7084 52.9908" fill="#F349A1"/>
<path d="M29.3824 55.7028C29.0669 55.8165 28.6945 55.8875 28.6376 55.8847V55.879C28.6433 55.8733 29.4506 55.4128 29.7889 55.3958C29.8657 55.4014 29.877 55.4299 29.8202 55.4839C29.7946 55.5095 29.6894 55.5947 29.3852 55.7056" fill="white"/>
<path d="M32.623 54.452C32.1255 54.7647 31.3666 55.0319 31.3921 54.8386C31.4206 54.6311 32.3359 53.8721 32.9584 53.8408C33.2512 53.8579 33.075 54.091 32.9272 54.2274C32.8277 54.3184 32.7054 54.4008 32.623 54.452Z" fill="white"/>
<path d="M28.396 55.842C28.325 55.879 28.1374 55.9642 27.8872 55.9955C27.9128 55.987 27.9156 55.9756 27.9043 55.933C27.819 55.5407 28.1771 55.3474 28.4586 55.3332C28.7656 55.3502 28.7798 55.5407 28.6007 55.7056C28.5353 55.7653 28.4529 55.8136 28.396 55.842Z" fill="#1D71B8"/>
<path d="M26.8809 55.8448C27.2249 55.9358 27.5262 55.9813 27.8872 55.9984C27.0628 55.9728 26.4687 55.8647 26.1845 55.8107C24.7973 55.5265 24.7319 55.2877 24.729 55.2792C24.7489 55.2536 24.7632 55.2507 24.8314 55.2451C24.9309 55.2507 25.0446 55.2564 25.4198 55.3644C25.8689 55.4952 26.3039 55.6714 26.7501 55.8079C26.7899 55.8193 26.844 55.8335 26.8837 55.8448" fill="#95C11F"/>
<path d="M27.5461 55.8278C27.6512 55.9244 27.6996 55.9585 27.7962 55.9841C27.765 55.9898 27.313 55.9273 26.9832 55.7823C26.5796 55.6061 26.6307 55.4867 26.6364 55.4753C26.6592 55.4327 26.7189 55.4298 26.7729 55.4241C27.1168 55.4383 27.4068 55.6999 27.5461 55.8278Z" fill="#F349A1"/>
<path d="M25.9627 54.6964C26.0395 54.8073 26.392 55.3588 25.8348 55.2564C24.9678 55.0972 23.7796 54.1677 24.2657 53.8863C24.3396 53.8436 24.4448 53.838 24.5158 53.8323C25.1185 53.855 25.687 54.2956 25.9627 54.6964Z" fill="#95C11F"/>
<path d="M25.3203 55.6942C25.6472 55.7652 25.9798 55.8079 26.3038 55.8818C25.9087 55.8761 24.1548 55.5719 23.9047 55.3985C23.9103 55.3957 23.916 55.3929 23.9217 55.39C24.0042 55.3929 24.1577 55.4241 24.5954 55.5293C24.8655 55.5947 25.0787 55.643 25.3203 55.697" fill="white"/>
<path d="M29.8145 54.867C29.5444 55.157 28.9361 55.4498 28.9219 55.0802C28.9105 54.8045 29.2517 54.3582 29.7235 54.3354C30.059 54.3525 30.0419 54.6254 29.8145 54.8699" fill="#F349A1"/>
<path d="M49.5395 45.3158C48.9425 46.0634 48.3342 46.5722 48.2859 46.359C48.2091 46.0208 49.7385 43.9286 50.2245 43.9286C50.4377 43.9854 50.0369 44.6933 49.5395 45.3158Z" fill="white"/>
<path d="M52.7516 39.7726C52.311 40.6851 51.7595 41.2565 51.6402 40.9268C51.4298 40.3554 52.5356 38.1325 53.033 38.1296C53.3514 38.2007 53.0615 39.1331 52.7516 39.7698" fill="white"/>
<path d="M45.0453 49.4063C43.8087 50.4638 42.4102 51.1858 42.467 50.7395C42.4841 50.6002 42.6688 50.208 43.7064 49.159C44.8776 48.0163 45.8526 47.3426 46.3842 47.3085C46.7764 47.3795 46.5149 48.0589 45.2528 49.2272C45.1902 49.2813 45.1078 49.3552 45.0453 49.4092" fill="#1D71B8"/>
<path d="M33.4303 54.9068C32.299 55.3389 31.1136 55.572 30.9345 55.5521C30.9345 55.5464 30.9316 55.535 30.9288 55.5293C30.9487 55.5123 33.9136 53.7641 34.9597 53.7214C35.2155 53.7442 35.224 53.8664 34.9824 54.0853C34.7038 54.3354 34.1239 54.6424 33.4275 54.9068" fill="#95C11F"/>
<path d="M39.144 52.5872C38.0638 53.2723 36.6709 53.7982 36.7789 53.4827C36.9097 53.1018 39.2435 51.3763 40.1076 51.3706C40.5369 51.4189 40.0593 51.9079 39.7097 52.1893C39.5476 52.32 39.3401 52.465 39.1468 52.5901" fill="#F349A1"/>
<path d="M38.385 51.7146C37.4356 52.5247 35.9432 53.1643 35.9574 52.6214C35.9716 52.013 37.7113 50.3757 38.7517 50.3814C39.3998 50.4354 39.0871 51.1148 38.385 51.7146Z" fill="#FCEA10"/>
<path d="M29.3284 55.8278C28.9077 55.9159 28.5296 55.95 28.4927 55.9529C28.5069 55.9472 28.5211 55.9443 28.5353 55.9415C28.6376 55.9216 28.794 55.8932 29.047 55.8249C29.2886 55.7596 29.5274 55.68 29.7719 55.6146C29.7861 55.6117 29.806 55.6061 29.823 55.6004C29.8884 55.5833 29.9794 55.5634 30.0391 55.5634C30.0476 55.5634 30.059 55.5634 30.0675 55.5691C30.0675 55.5719 30.0675 55.5776 30.0675 55.5833C30.0078 55.6487 29.7065 55.7482 29.3284 55.8278Z" fill="white"/>
<path d="M47.8794 45.5432C47.2 46.4016 46.3785 46.8735 46.3387 46.4272C46.2847 45.8331 47.615 44.1275 48.2688 44.1389C48.6696 44.1958 48.3797 44.9121 47.8822 45.5432" fill="#F349A1"/>
<path d="M51.7254 13.1827C51.7937 13.2908 52.3821 14.2516 52.3423 14.4335C52.1632 14.4989 50.5912 12.0457 50.6453 11.7785C50.6509 11.7785 50.6566 11.7756 50.6623 11.7728C50.813 11.824 51.3303 12.5431 51.7283 13.1827" fill="white"/>
<path d="M48.5986 9.81423C49.0989 10.4368 49.3206 10.9428 49.0875 10.9399C48.6384 10.9342 46.8845 8.87048 47.0948 8.58906C47.109 8.572 47.1403 8.56632 47.163 8.56348C47.4644 8.60896 48.1438 9.24855 48.6014 9.81423" fill="white"/>
<path d="M55.0798 20.764C55.2958 21.5742 55.3754 22.0517 55.3185 22.1797C54.8523 22.1001 53.4623 17.1624 53.5902 16.881C53.5959 16.881 53.6044 16.8753 53.613 16.8725C53.775 16.9606 54.0905 17.7452 54.3293 18.3876L54.642 19.2887L55.0286 20.5736C55.0428 20.6304 55.0655 20.7072 55.0798 20.764Z" fill="#FCEA10"/>
<path d="M54.1388 38.1211C53.8858 38.7664 53.5476 39.5452 53.3713 39.5907C53.2292 39.477 53.4822 38.303 54.0166 36.6003C54.5965 34.818 55.111 33.6269 55.3299 33.5644C55.4663 33.6752 55.2617 34.565 55.0655 35.2927L54.7045 36.5179L54.1928 37.9761C54.1758 38.0188 54.153 38.0785 54.136 38.1211" fill="#95C11F"/>
<path d="M56.0235 28.4221C56.0235 28.5073 55.9865 30.5228 55.7677 30.6137C55.4351 30.2982 55.4692 25.8978 55.8075 25.7585C56.0178 25.9547 56.0349 27.7484 56.0235 28.4221Z" fill="#F349A1"/>
<path d="M55.1735 31.4722C54.9575 32.9958 54.3947 33.9481 53.9967 33.4706C53.3969 32.7485 53.7807 28.9593 54.75 28.8342C55.2873 28.9337 55.3214 30.4375 55.1735 31.4722Z" fill="#95C11F"/>
<path d="M51.0859 43.7467C50.7732 44.2015 50.2473 44.8894 50.0767 44.9264C49.9289 44.7729 51.5378 42.3822 51.8335 42.3168C51.9415 42.368 51.5293 43.0986 51.0859 43.7467Z" fill="white"/>
<path d="M53.1638 16.8924C53.5163 17.7565 53.5504 18.3819 53.2406 18.2369C52.6266 17.947 51.6288 15.5222 52.0523 15.3517C52.0637 15.346 52.0836 15.346 52.0978 15.346C52.4219 15.4057 52.9165 16.2869 53.1638 16.8924Z" fill="#F349A1"/>
<path d="M29.516 0.0668716C29.9026 0.106668 30.2267 0.166363 30.3034 0.194789C30.2892 0.203317 30.2835 0.20616 29.968 0.154992C29.553 0.0896119 29.0839 0.015704 28.4813 0.0043335H28.5097H28.5296C28.6575 0.0043335 29.047 0.0157059 29.5132 0.0640305" fill="white"/>
<path d="M29.371 0.109524C29.6979 0.174904 29.8685 0.243125 29.8856 0.280079C29.8647 0.300925 29.6165 0.248809 29.1408 0.123733C28.8679 0.0526677 28.7513 0.0384576 28.5751 0.0157166C28.6718 0.0185592 29.0299 0.0413007 29.3682 0.109524" fill="white"/>
<path d="M33.5156 0.766174C34.1552 0.959473 34.8857 1.24373 34.9738 1.40861C34.9738 1.41429 34.9682 1.42282 34.9682 1.42851C34.8734 1.4683 34.0291 1.21815 32.4354 0.678054C31.8981 0.501811 31.3467 0.376735 30.8037 0.211863C30.8037 0.211863 30.8094 0.209019 30.8094 0.206177C30.8179 0.206177 31.7986 0.291454 33.291 0.69795C33.3592 0.717848 33.4474 0.74343 33.5156 0.763329" fill="#1D71B8"/>
<path d="M45.2102 6.05913C46.4751 7.091 47.0806 7.87841 46.7594 7.86704C46.2221 7.84714 42.1003 4.57528 42.015 4.10056C42.0264 4.08635 42.052 4.07782 42.0691 4.07782C42.4898 4.15173 43.9537 5.03294 45.2102 6.05913Z" fill="#95C11F"/>
<path d="M39.2122 2.75032C40.335 3.35012 40.7046 3.74524 40.5312 3.79073C40.1645 3.88453 36.9637 2.09367 36.8244 1.83784C36.8272 1.83215 36.8301 1.82363 36.8329 1.81794C36.8443 1.81794 36.8585 1.81226 36.8699 1.81226C37.1968 1.84637 38.3139 2.27276 39.2094 2.75032" fill="#F349A1"/>
<path d="M43.2629 5.79761C44.1896 6.62198 44.3915 7.19334 44.002 7.2104C43.0099 7.25588 40.5027 4.77996 40.8154 4.4758C40.8495 4.44168 40.9064 4.44168 40.9434 4.44168C41.4778 4.49569 42.575 5.18645 43.2629 5.79761Z" fill="#95C11F"/>
<path d="M49.6788 10.2804C50.0085 10.6841 50.4918 11.3123 50.4747 11.4004C50.3127 11.3578 48.4422 9.0979 48.4707 8.98135C48.4707 8.98135 48.4735 8.98135 48.4763 8.98135C48.5929 9.02968 49.1529 9.638 49.6788 10.2804Z" fill="white"/>
<path d="M33.1574 1.02199C33.6918 1.25508 33.8908 1.43701 33.7743 1.47681C33.5355 1.55924 31.9323 0.825845 31.8157 0.643917C31.8157 0.638231 31.8214 0.632545 31.8242 0.629703C31.8356 0.629703 31.847 0.626862 31.8583 0.626862C32.0943 0.641075 32.7253 0.834371 33.1603 1.02483" fill="#F349A1"/>
<path d="M25.4624 0.248809C24.6381 0.415577 24.2211 0.496119 24.2117 0.490434C24.3964 0.353988 25.8433 0.106678 26.4886 0.0754089C26.1503 0.155002 25.8035 0.180586 25.4653 0.248809" fill="white"/>
<path d="M28.325 0.0071789C28.3534 0.0071789 28.3847 0.00717734 28.4131 0.01002C28.3648 0.01002 28.3136 0.00717612 28.2653 0.0043335C28.2823 0.0043335 28.3051 0.0043335 28.3221 0.0043335C28.3221 0.0043335 28.3221 0.0043335 28.325 0.0043335" fill="#FCEA10"/>
<path d="M28.7257 0.15783C28.902 0.274378 28.9048 0.416509 28.7314 0.459148C28.4415 0.530214 28.0435 0.271533 28.1857 0.0355953C28.2027 0.00716903 28.2056 0.00717163 28.2226 0.00717163C28.3363 0.00717163 28.5637 0.0526533 28.7257 0.15783Z" fill="#95C11F"/>
<path d="M27.1282 0.0896C26.5654 0.20141 26.2792 0.252575 26.2697 0.2431C26.3323 0.180562 26.8525 0.0469594 27.6314 0.0128479H27.7422C27.5916 0.0185332 27.4096 0.0327475 27.1282 0.0896Z" fill="#F349A1"/>
<path d="M9.28506 7.22744C8.73075 7.72774 8.27309 8.16266 8.22192 8.21383L8.32141 8.11434C8.9809 7.5117 9.85643 6.70155 10.5472 6.13303C10.5415 6.13587 10.0497 6.53952 9.28506 7.22744Z" fill="white"/>
<path d="M5.08081 12.0741C4.39574 13.0577 4.23655 13.2709 4.19107 13.3107C4.19676 13.2879 4.1996 13.2822 4.28488 13.1429L5.50153 11.3663L5.86822 10.8802C5.96771 10.7523 5.97908 10.7409 5.99329 10.7296C5.98192 10.7608 5.97624 10.7864 5.07797 12.0741" fill="white"/>
<path d="M14.1687 3.92148C12.7057 4.81027 11.9268 5.26794 11.832 5.29447C11.832 5.29447 11.8264 5.27457 11.8235 5.26604C11.8264 5.2632 12.1788 4.85671 13.9214 3.82199C15.6639 2.81286 16.4939 2.53144 16.5025 2.52859C16.4627 2.56839 16.2836 2.67925 15.9652 2.86118C15.3029 3.23925 14.9362 3.45813 14.4075 3.77367C14.3364 3.81631 14.2426 3.87316 14.1715 3.9158" fill="#1D71B8"/>
<path d="M25.7666 0.13794C25.073 0.226061 24.4107 0.356824 23.9757 0.442103C23.4101 0.552965 23.2196 0.587074 23.1429 0.581389C23.2025 0.533064 23.8535 0.331239 25.3203 0.152154C25.6586 0.123728 25.8263 0.109516 26.3181 0.0782471C26.0253 0.106673 25.8462 0.129415 25.7694 0.140785" fill="#95C11F"/>
<path d="M20.3372 1.3091C18.8495 1.83973 18.0782 2.10315 18.0233 2.09936C18.0773 1.83499 21.3776 0.763322 22.1479 0.695099C22.1309 0.71026 22.0162 0.751002 21.804 0.81733C21.5339 0.902608 21.0308 1.0618 20.3372 1.30626" fill="#F349A1"/>
<path d="M20.1439 1.82929C18.0574 2.85264 17.793 2.80147 17.8215 2.67924C17.9096 2.29832 20.7522 1.12716 21.4714 1.09021C21.4799 1.09021 21.4913 1.09021 21.497 1.09021C21.4998 1.0959 21.5055 1.10442 21.5084 1.11011C21.4657 1.15559 21.4288 1.19539 20.1439 1.82645" fill="#95C11F"/>
<path d="M10.243 6.90622C9.90476 7.20754 9.10313 7.90682 8.92689 7.8983C8.80466 7.7249 10.8741 5.89993 11.2578 5.84308C11.2635 5.84308 11.2692 5.84308 11.2721 5.84308C11.2777 5.95963 10.6296 6.55658 10.243 6.90054" fill="#F349A1"/>
<path d="M9.96159 8.50948C9.40728 9.10643 8.85581 9.44187 8.87002 9.17466C8.88992 8.77953 10.0668 7.597 10.4676 7.56857C10.7149 7.59131 10.2885 8.157 9.96442 8.50948" fill="white"/>
<path d="M7.20139 12.3584C6.75225 13.0378 6.20647 13.4301 6.13825 13.1231C6.03876 12.6569 7.03084 11.2839 7.48282 11.2611C7.77276 11.2867 7.49134 11.9178 7.20139 12.3584Z" fill="white"/>
<path d="M13.9924 5.91416C12.8497 6.96025 11.8576 7.36674 11.8775 6.95456C11.9088 6.33202 13.9811 4.68046 14.8339 4.59518C15.1977 4.59518 14.7543 5.16939 14.2596 5.65832C14.18 5.73792 14.0749 5.83741 13.9924 5.91416Z" fill="#1D71B8"/>
<path d="M22.4066 1.93163C21.1445 2.79295 20.2121 2.96067 20.2235 2.64514C20.2434 2.12494 22.4123 1.12433 23.1741 1.08453C23.2793 1.09022 23.4356 1.10159 23.0149 1.46829C22.8557 1.60758 22.634 1.77529 22.4066 1.93163Z" fill="#95C11F"/>
<path d="M18.2422 3.65427C17.2956 4.36777 16.4712 4.61792 16.5195 4.29102C16.5934 3.80493 18.3331 2.756 18.9244 2.74179C19.257 2.76169 18.7794 3.21082 18.5577 3.40128C18.4696 3.47519 18.3417 3.58036 18.2422 3.65427Z" fill="#F349A1"/>
<path d="M19.1262 4.51558C18.3161 5.32289 17.3098 5.59009 17.2643 5.15517C17.2046 4.58381 18.7084 3.51213 19.3934 3.50076C19.9136 3.52919 19.5043 4.13751 19.1262 4.51558Z" fill="#FCEA10"/>
<path d="M25.0446 0.911146C24.5329 1.20962 24.1406 1.26079 24.1918 1.12434C24.2685 0.928202 25.0957 0.595616 25.3544 0.592773C25.3914 0.592773 25.4624 0.598457 25.3544 0.697949C25.289 0.757644 25.1753 0.837238 25.0474 0.911146" fill="white"/>
<path d="M11.4881 8.59475C10.9423 9.22581 10.2885 9.5584 10.2601 9.22013C10.2231 8.77952 11.3147 7.66521 11.7979 7.651C12.1277 7.67374 11.815 8.21953 11.4881 8.5976" fill="#F349A1"/>
<path d="M1.43373 32.0805C1.51333 32.8111 1.41383 33.2972 1.21769 33.1209C0.887947 32.8168 0.572417 30.807 0.953329 30.6962C1.16084 30.7218 1.36267 31.4352 1.43373 32.0805Z" fill="white"/>
<path d="M3.34964 35.5485C3.49745 36.2478 3.36953 36.7111 3.07958 36.5406C2.53664 36.2194 2.11309 34.3859 2.54233 34.2324C2.5537 34.2267 2.57076 34.2267 2.58497 34.2238C2.89197 34.2494 3.21887 34.9317 3.34964 35.5514" fill="white"/>
<path d="M1.37687 26.4919C1.27453 27.8194 0.956155 28.7234 0.68042 28.4647C0.268239 28.0781 0.313722 24.2946 1.02722 24.1212C1.41098 24.1894 1.44509 25.6107 1.37687 26.4919Z" fill="#FCEA10"/>
<path d="M5.2258 14.1862C4.47251 15.5222 3.64814 16.3921 3.49748 16.0112C3.23028 15.3403 5.12915 12.1651 5.88813 12.0144C6.24062 12.0201 5.82843 13.1259 5.22864 14.189" fill="#95C11F"/>
<path d="M2.52812 19.9595C2.17563 21.054 1.69808 21.739 1.54173 21.3752C1.30011 20.8038 2.0733 18.2369 2.65888 18.0948C2.97157 18.1317 2.76974 19.2063 2.52812 19.9595Z" fill="#F349A1"/>
<path d="M4.64019 18.1374C4.19959 19.2688 3.5003 19.9311 3.25299 19.4507C2.91756 18.7912 3.81299 16.4546 4.62882 16.3295C5.10923 16.3665 4.92446 17.4097 4.64019 18.1374Z" fill="#95C11F"/>
<path d="M8.43226 9.43049C7.92343 10.0132 7.44302 10.3686 7.42596 10.1781C7.39754 9.87962 8.54596 8.53506 8.98088 8.46115C9.17986 8.48105 8.75063 9.06663 8.43226 9.43333" fill="white"/>
<path d="M2.22113 29.0019C2.2126 29.8036 1.95677 30.3096 1.69241 30.0423C1.29728 29.6387 1.24042 27.6801 1.75778 27.5778C2.05341 27.6062 2.22681 28.3368 2.22113 29.0019Z" fill="#F349A1"/>
<path d="M16.0306 49.9947C16.295 50.3302 16.3944 50.6514 16.0704 50.6173C15.4137 50.5491 14.2739 49.3921 14.6349 49.1618C14.6718 49.1391 14.723 49.1334 14.7514 49.1334C15.1835 49.1562 15.7605 49.6508 16.0306 49.9947Z" fill="white"/>
<path d="M18.4184 49.9464C18.6799 50.3899 18.5378 50.6627 18.1086 50.5434C17.3439 50.3302 16.5821 49.3125 17.0397 49.1078C17.0938 49.0822 17.1591 49.0794 17.1847 49.0794C17.6509 49.1021 18.1796 49.5371 18.4184 49.9464Z" fill="white"/>
<path d="M12.682 47.6069C13.2448 48.4114 13.3017 48.9771 12.8127 48.8975C11.653 48.707 9.74271 46.4841 10.3198 45.998C10.3795 45.9468 10.4591 45.9383 10.5244 45.9326C11.0702 45.9326 12.0367 46.6859 12.682 47.6098" fill="#1D71B8"/>
<path d="M4.68568 39.6305C5.17461 40.9069 5.16892 41.7511 4.67146 41.5124C3.62537 41.0092 2.18132 37.4872 2.91187 37.2314C2.92893 37.2257 2.95167 37.2228 2.96873 37.22C3.57137 37.2911 4.34172 38.738 4.68283 39.6305" fill="#95C11F"/>
<path d="M8.15085 43.8291C8.57724 44.6336 8.56587 45.1594 8.1281 45.0202C7.19857 44.7302 5.83979 42.4874 6.41685 42.1974C6.4538 42.1775 6.49644 42.1747 6.51349 42.1747C7.06212 42.2145 7.80405 43.1639 8.15085 43.8262" fill="#F349A1"/>
<path d="M7.07918 40.1138C7.38902 41.0632 7.17583 41.6516 6.61299 41.3986C5.60102 40.9466 4.70843 38.6242 5.43046 38.3314C5.45036 38.3229 5.493 38.3087 5.55553 38.3058C6.21502 38.3513 6.84324 39.3917 7.07918 40.1138Z" fill="#95C11F"/>
<path d="M1.72084 34.8094C1.86297 35.4803 1.84307 35.9351 1.67536 35.8186C1.30582 35.5627 0.851003 33.5132 1.14948 33.4592C1.3513 33.4905 1.6043 34.2693 1.718 34.8094" fill="white"/>
<path d="M13.91 47.1152C14.1999 47.6382 14.0692 47.9594 13.6257 47.8201C12.8469 47.5728 12.0424 46.3818 12.4915 46.1401C12.5427 46.1146 12.6052 46.1089 12.6365 46.106C13.1453 46.1344 13.6854 46.7115 13.9072 47.1123" fill="#F349A1"/>
<path d="M29.9595 52.7293C29.7576 53.1955 29.101 53.3945 28.902 52.9368C28.7599 52.6071 28.9958 52.0841 29.5587 52.0585C29.9765 52.0812 30.0931 52.4252 29.9595 52.7293Z" fill="white"/>
<path d="M32.4183 50.8759C32.0801 51.5042 31.2614 51.6605 31.1107 51.1289C30.9999 50.7395 31.3779 50.0942 32.0346 50.0658C32.5264 50.0942 32.6173 50.5092 32.4183 50.8788" fill="white"/>
<path d="M27.873 52.8232C27.7849 53.6589 26.8241 53.9858 26.139 53.1529C25.6302 52.5332 25.8377 51.7032 26.753 51.6691C27.5546 51.7145 27.927 52.2973 27.873 52.826" fill="#1D71B8"/>
<path d="M21.6761 52.1864C22.003 52.664 22.2048 53.3178 21.4231 53.1728C20.2064 52.9425 18.444 51.3677 19.1092 50.8703C19.2172 50.7907 19.3337 50.7821 19.4588 50.7736C20.1467 50.7736 21.1416 51.4104 21.6761 52.1864Z" fill="#95C11F"/>
<path d="M24.5613 52.4991C24.7404 53.0506 24.3538 53.4201 23.6033 53.0506C22.7392 52.6242 22.3497 51.76 22.9211 51.5326C23.0121 51.4956 23.1116 51.49 23.1855 51.4871C23.8478 51.5155 24.405 52.0244 24.5613 52.4991Z" fill="#F349A1"/>
<path d="M22.5289 50.1823C22.7307 50.8844 22.1906 51.3535 21.298 50.8816C20.2519 50.3273 19.8881 49.1618 20.6982 48.9628C20.7607 48.9458 20.8489 48.9429 20.9142 48.9373C21.7102 48.9714 22.3583 49.5967 22.526 50.1823" fill="#FCEA10"/>
<path d="M17.9636 51.4587C18.2081 51.7231 18.3587 52.0102 18.1114 52.0158C17.5656 52.0272 16.3149 50.9754 16.5934 50.7338C16.6247 50.7054 16.6759 50.7025 16.7128 50.6997C17.108 50.7196 17.685 51.1545 17.9664 51.4587" fill="white"/>
<path d="M28.7712 51.0835C28.6376 51.6975 27.8502 51.8538 27.5176 51.3336C27.2447 50.9101 27.4892 50.316 28.1117 50.2875C28.6206 50.3131 28.8508 50.7196 28.7712 51.0835Z" fill="#F349A1"/>
<path d="M46.586 43.5619C46.0857 44.3436 45.304 44.6563 45.2158 44.1105C45.1107 43.4766 45.9578 42.385 46.5462 42.3935C47.001 42.4419 46.9214 43.036 46.586 43.5619Z" fill="white"/>
<path d="M48.536 39.1842C48.1438 40.0598 47.3421 40.4122 47.1318 39.7982C46.8902 39.0933 47.6122 37.8823 48.2688 37.888C48.7691 37.9392 48.7947 38.6015 48.536 39.1842Z" fill="white"/>
<path d="M43.2686 46.6319C42.4244 47.7689 40.9007 48.4341 40.7842 47.496C40.679 46.6347 41.9355 44.895 43.1834 44.8439C43.9224 44.8666 43.9622 45.7024 43.2686 46.6347" fill="#FCEA10"/>
<path d="M34.701 51.6946C33.9107 52.6355 32.3643 53.241 32.3103 52.212C32.2705 51.4587 33.22 50.2278 34.4224 50.188C35.3207 50.2534 35.2667 51.0209 34.701 51.6946Z" fill="#95C11F"/>
<path d="M38.5101 49.4063C37.8222 50.2335 36.6197 50.677 36.5316 49.9493C36.4463 49.2443 37.5009 48.0618 38.4106 48.0675C39.1156 48.1215 39.0104 48.8037 38.5101 49.4063Z" fill="#F349A1"/>
<path d="M36.7676 48.2465C36.1734 49.1988 34.8459 49.6423 34.6015 48.7525C34.3797 47.9367 35.3519 46.8196 36.2815 46.8224C37.0973 46.8764 37.1684 47.6041 36.7676 48.2465Z" fill="#95C11F"/>
<path d="M30.9516 53.1642C30.6588 53.6049 30.0277 53.7868 29.9453 53.349C29.8799 53.0079 30.2722 52.5247 30.7241 52.5247C31.1107 52.5474 31.1449 52.8743 30.9516 53.1642Z" fill="white"/>
<path d="M44.2721 43.3601C43.7974 44.1844 42.882 44.4772 42.7428 43.849C42.5949 43.1895 43.3824 42.1804 44.039 42.1861C44.5734 42.2315 44.5763 42.8313 44.2749 43.3572" fill="#F349A1"/>
<path d="M51.9841 18.9959C52.1604 19.7265 51.9216 20.1756 51.5037 19.9027C50.8357 19.4678 50.4434 17.7963 50.9835 17.694C51.0006 17.6912 51.0233 17.694 51.0375 17.6912C51.4384 17.7395 51.842 18.4075 51.9813 18.9959" fill="white"/>
<path d="M49.1415 15.6786C49.3661 16.3665 49.1017 16.7872 48.6071 16.5314C47.8538 16.1391 47.345 14.6808 47.8936 14.4761C47.9277 14.4619 47.9789 14.4591 48.0158 14.4562C48.4792 14.5017 48.9624 15.1243 49.1415 15.6786Z" fill="white"/>
<path d="M53.5334 24.4339C53.6329 25.912 52.9933 26.7819 52.2855 26.1224C51.3048 25.2099 51.0745 22.1086 52.2542 22.0489C53.0331 22.1654 53.4708 23.5128 53.5334 24.4339Z" fill="#1D71B8"/>
<path d="M51.7141 37.4304C51.083 39.099 49.8209 39.9319 49.3831 38.9682C48.8516 37.7971 49.9914 34.9203 51.3019 34.8464C52.0381 34.889 52.2286 36.0716 51.7141 37.4275" fill="#95C11F"/>
<path d="M53.0814 31.1823C52.8654 32.4558 52.1035 33.1124 51.6231 32.4387C50.9949 31.5546 51.4014 29.164 52.402 29.0929C53.0245 29.1725 53.2377 30.2385 53.0786 31.1851" fill="#F349A1"/>
<path d="M50.6396 32.9959C50.3354 34.2921 49.295 34.9203 48.7492 34.1357C48.0869 33.1778 48.6611 31.0145 49.8436 30.9463C50.6111 31.0231 50.8528 32.0692 50.6367 32.9959" fill="#95C11F"/>
<path d="M48.3854 42.5442C47.9248 43.306 47.2369 43.6614 47.1147 43.2009C46.9669 42.6437 47.7486 41.3901 48.3996 41.3531C48.8089 41.3986 48.7094 42.007 48.3854 42.5442Z" fill="white"/>
<path d="M51.1199 21.7987C51.2081 22.6032 50.7874 23.0694 50.2984 22.7027C49.5878 22.1711 49.457 20.5423 50.1165 20.44C50.1364 20.4371 50.1648 20.4371 50.1876 20.4371C50.6765 20.4883 51.0517 21.1847 51.1199 21.8016" fill="#F349A1"/>
<path d="M35.5765 3.13121C35.8721 3.43822 35.8096 3.62015 35.5793 3.61162C34.9966 3.59172 34.1125 2.73609 34.34 2.55132C34.3655 2.53142 34.4053 2.52005 34.4565 2.52005C34.7976 2.54279 35.3121 2.85264 35.5765 3.12837" fill="white"/>
<path d="M33.5327 3.1227C33.7345 3.43823 33.5895 3.6628 33.2257 3.59173C32.6259 3.47803 32.1312 2.7759 32.3871 2.56554C32.4155 2.5428 32.4667 2.51437 32.5605 2.51437C32.9215 2.53711 33.3536 2.84412 33.5327 3.11985" fill="white"/>
<path d="M39.5363 5.09546C40.1616 5.78054 40.0451 6.21546 39.5476 6.18988C38.4049 6.13302 36.7391 4.30806 37.1712 3.90156C37.2338 3.84187 37.3133 3.83902 37.3986 3.83618C37.9359 3.85608 38.9535 4.45303 39.5363 5.09262" fill="#1D71B8"/>
<path d="M48.5275 12.1623C49.1586 13.3135 48.9795 14.135 48.158 13.8536C46.8333 13.4016 45.1817 10.5647 45.9748 10.107C46.0487 10.0644 46.134 10.0616 46.1965 10.0587C46.9754 10.1497 48.013 11.2213 48.5275 12.1594" fill="#FCEA10"/>
<path d="M43.985 8.36735C44.4313 9.02683 44.3659 9.49871 43.8372 9.41912C42.7996 9.26562 41.4806 7.44918 41.8985 7.05974C41.9184 7.04268 41.9724 6.99152 42.1202 6.99152C42.7143 7.04553 43.5643 7.74481 43.985 8.3645" fill="#F349A1"/>
<path d="M45.23 11.5937C45.6024 12.4436 45.2499 12.9951 44.5052 12.7308C43.3539 12.3186 42.3988 10.397 43.1805 10.0587C43.2629 10.0217 43.3596 10.0189 43.4079 10.0189C44.1356 10.0814 44.9202 10.8859 45.23 11.5937Z" fill="#95C11F"/>
<path d="M51.481 16.5143C51.7112 17.1795 51.572 17.5974 51.1939 17.3927C50.5458 17.0459 49.9431 15.437 50.398 15.2692C50.4321 15.2579 50.4633 15.2579 50.4747 15.2579C50.8471 15.309 51.2877 15.9486 51.4838 16.5143" fill="white"/>
<path d="M37.5237 5.37975C37.7767 5.77488 37.626 6.0563 37.211 5.97102C36.4776 5.82036 35.821 4.84818 36.1706 4.63214C36.1877 4.62077 36.236 4.59235 36.344 4.59235C36.7704 4.62077 37.2963 5.02159 37.5237 5.37691" fill="#F349A1"/>
<path d="M25.4852 1.15843C25.1071 1.47112 24.6011 1.57062 24.6068 1.383C24.6125 1.16696 25.2634 0.81448 25.5989 0.797424C25.8178 0.805952 25.6444 1.0163 25.5221 1.12432C25.5108 1.1357 25.4965 1.14706 25.4852 1.15843Z" fill="white"/>
<path d="M22.9609 2.40634C22.4692 2.84695 21.8495 2.98055 21.8495 2.71903C21.8495 2.43193 22.6312 1.90888 23.0945 1.8833C23.4044 1.89751 23.177 2.2102 22.9609 2.40634Z" fill="white"/>
<path d="M27.4608 1.13002C27.2277 1.7156 26.2839 1.90605 26.0992 1.51945C25.9116 1.13001 26.7075 0.578544 27.1822 0.564331C27.5859 0.587072 27.5148 0.990725 27.4608 1.13286" fill="#1D71B8"/>
<path d="M31.8157 1.58199C32.2194 1.99701 32.1369 2.35234 31.6366 2.35803C30.6929 2.3694 29.7832 1.16981 30.0902 0.874176C30.1442 0.820166 30.2295 0.817326 30.2864 0.814484C30.6502 0.823012 31.4121 1.16697 31.8157 1.58199Z" fill="#95C11F"/>
<path d="M29.4137 1.34321C29.5388 1.77529 29.0157 1.97427 28.6092 1.75823C28.1174 1.49386 28.2226 0.92534 28.5723 0.81732C28.6234 0.800265 28.6718 0.800267 28.7059 0.797424C29.0385 0.81448 29.3426 1.09306 29.4165 1.34605" fill="#F349A1"/>
<path d="M30.8066 2.96066C30.9828 3.62015 30.2238 3.86462 29.6383 3.49792C28.9845 3.08858 29.064 2.26137 29.6184 2.14482C29.6582 2.1363 29.715 2.13346 29.7576 2.13062C30.3034 2.1562 30.7185 2.62807 30.8066 2.95782" fill="#95C11F"/>
<path d="M33.8652 2.05103C34.1097 2.25854 34.158 2.43195 33.9789 2.45469C33.5412 2.5087 32.6088 1.77245 32.7424 1.59337C32.7623 1.56494 32.8021 1.5621 32.8419 1.5621C33.1262 1.57916 33.6094 1.83215 33.8652 2.05103Z" fill="white"/>
<path d="M25.778 2.2415C25.4795 2.71337 24.7717 2.80149 24.7148 2.46606C24.6693 2.19601 25.1298 1.7554 25.5903 1.7355C25.9286 1.74972 25.903 2.03967 25.778 2.2415Z" fill="#F349A1"/>
<path d="M4.31332 23.2058C4.18256 23.8596 3.78743 24.2462 3.56002 23.9478C3.24733 23.5413 3.51738 22.2365 4.02906 22.1853C4.3787 22.2223 4.38723 22.8306 4.31332 23.2058Z" fill="white"/>
<path d="M5.05806 26.6141C4.99268 27.2907 4.5947 27.6915 4.29623 27.3788C3.88973 26.9552 4.02618 25.605 4.60039 25.5538C5.00404 25.5936 5.09501 26.2247 5.05806 26.6141Z" fill="white"/>
<path d="M5.97907 19.2631C5.61521 20.4258 4.76527 21.0852 4.43553 20.4627C4.00629 19.6497 4.85054 17.6968 5.65501 17.64C6.16668 17.6656 6.22069 18.4842 5.97622 19.2631" fill="#1D71B8"/>
<path d="M11.2834 11.2128C10.5784 12.3868 9.33905 13.0122 9.17702 12.2759C9.00078 11.4601 10.3681 9.79716 11.2664 9.73178C11.8207 9.74315 11.7041 10.5078 11.2806 11.2128" fill="#95C11F"/>
<path d="M8.24466 15.0049C7.81259 15.906 7.02233 16.3807 6.81198 15.8662C6.5732 15.2778 7.38051 13.7911 8.12812 13.7314C8.63695 13.7769 8.46923 14.5358 8.24466 15.0049Z" fill="#F349A1"/>
<path d="M10.4761 14.5387C10.027 15.4995 9.06616 15.9486 8.84443 15.2977C8.62555 14.6637 9.41865 13.3306 10.2089 13.2794C10.8087 13.3249 10.6921 14.0753 10.4761 14.5387Z" fill="#FCEA10"/>
<path d="M13.8389 8.19394C13.4239 8.72267 12.8014 8.96714 12.7872 8.60897C12.7701 8.25932 13.4495 7.52592 13.91 7.4975C14.2767 7.52592 13.9839 8.00917 13.8389 8.1911" fill="white"/>
<path d="M6.16955 21.6538C5.99899 22.3445 5.48447 22.7112 5.23432 22.3189C4.94437 21.8584 5.28264 20.6986 5.84264 20.6532C6.25198 20.6901 6.26051 21.2871 6.16955 21.6538Z" fill="#F349A1"/>
<path d="M10.3738 41.609C10.5529 42.1434 10.3198 42.4674 9.90189 42.2599C9.27367 41.9501 8.90981 40.8841 9.37885 40.7391C9.40443 40.7306 9.44139 40.7278 9.46697 40.7249C9.79671 40.7249 10.2117 41.1314 10.3709 41.609" fill="white"/>
<path d="M13.0856 42.4277C13.2477 42.9763 12.9065 43.2918 12.4318 43.0303C11.7837 42.675 11.5222 41.7057 12.0395 41.572C12.068 41.5635 12.1106 41.5607 12.139 41.5578C12.5114 41.5578 12.9463 41.9586 13.0856 42.4277Z" fill="white"/>
<path d="M8.34699 38.4764C8.60851 39.46 8.2077 40.1081 7.54821 39.7585C6.49928 39.2013 5.96203 37.1432 6.80061 36.8988C6.83756 36.8874 6.89157 36.8817 6.93137 36.8789C7.54537 36.8902 8.14233 37.7175 8.34415 38.4736" fill="#FCEA10"/>
<path d="M4.56344 29.687C4.58049 31.0458 3.94091 31.8446 3.34111 31.2164C2.48832 30.3181 2.65604 27.7086 3.57421 27.6346C4.17969 27.6659 4.55207 28.7035 4.56344 29.687Z" fill="#95C11F"/>
<path d="M5.92509 34.1613C6.04448 35.0965 5.59535 35.6366 5.06662 35.196C4.36165 34.6076 4.13707 32.7798 4.93585 32.6974C5.37077 32.6974 5.82275 33.3682 5.92509 34.1613Z" fill="#F349A1"/>
<path d="M6.81481 31.2789C6.84608 32.3193 6.20933 32.8622 5.64365 32.2766C4.97847 31.5944 5.00121 29.8434 5.86537 29.7638C6.34862 29.7638 6.79207 30.4744 6.81481 31.2789Z" fill="#95C11F"/>
<path d="M3.50031 25.0564C3.40651 25.7415 3.05402 26.1337 2.82661 25.8068C2.53098 25.3861 2.72144 24.0785 3.19047 24.0188C3.46052 24.0188 3.56854 24.5532 3.50316 25.0535" fill="white"/>
<path d="M10.0156 38.7891C10.1492 39.3917 9.79674 39.7385 9.34192 39.4486C8.73359 39.062 8.53177 38.0102 9.0406 37.8653C9.06902 37.8567 9.10882 37.8539 9.14009 37.851C9.50395 37.851 9.90476 38.2831 10.0156 38.7891Z" fill="#F349A1"/>
<path d="M24.9934 48.4114C25.019 48.9458 24.3908 49.142 23.9445 48.7412C23.5039 48.3432 23.6346 47.7462 24.1719 47.7093C24.1861 47.7093 24.206 47.7093 24.2174 47.7093C24.7603 47.7406 24.9792 48.1584 24.9934 48.4143" fill="white"/>
<path d="M27.2647 47.0725C27.2106 47.6894 26.4261 47.8656 26.0338 47.3539C25.7183 46.9418 25.9258 46.3391 26.5398 46.3192C27.114 46.3562 27.2902 46.7996 27.2675 47.0725" fill="white"/>
<path d="M22.4862 47.7661C22.6397 48.5791 21.8352 49.1078 20.9114 48.5052C19.9676 47.894 19.8568 46.7399 20.7209 46.5438C20.8147 46.5239 20.883 46.521 20.9512 46.5182C21.7699 46.5466 22.3753 47.1748 22.4862 47.7633" fill="#1D71B8"/>
<path d="M15.2972 45.148C15.6923 46.1515 15.1664 46.7314 14.2568 46.2965C12.9861 45.691 12.2812 43.9513 13.1823 43.6386C13.2704 43.6073 13.3585 43.6017 13.4239 43.5988C14.2113 43.6159 15.0101 44.4146 15.2972 45.148Z" fill="#95C11F"/>
<path d="M18.5748 46.4841C18.788 47.2146 18.2138 47.5842 17.4974 47.1805C16.6162 46.6831 16.3234 45.5801 17.0199 45.3897C17.0881 45.3698 17.1563 45.3669 17.2075 45.3669C17.9807 45.4153 18.4582 46.0776 18.5776 46.4841" fill="#F349A1"/>
<path d="M17.2302 43.7552C17.4093 44.5739 16.747 44.9832 15.988 44.5255C15.0812 43.9797 14.8623 42.7631 15.6298 42.5527C15.7066 42.5328 15.7805 42.53 15.8316 42.5272C16.6645 42.5783 17.1307 43.3089 17.2274 43.7552" fill="#95C11F"/>
<path d="M11.417 43.4169C11.6103 43.9058 11.4227 44.21 11.0276 44.0423C10.3994 43.7751 9.94738 42.7574 10.3823 42.5869C10.4193 42.5726 10.4562 42.5698 10.4846 42.567C10.9309 42.5982 11.2919 43.1042 11.417 43.4141" fill="white"/>
<path d="M23.5124 46.3278C23.5493 46.919 22.8557 47.1379 22.3526 46.6945C21.8693 46.2652 22.0115 45.5944 22.5971 45.5546C22.6113 45.5546 22.634 45.5546 22.6482 45.5546C23.2452 45.5887 23.4953 46.0492 23.5124 46.3306" fill="#F349A1"/>
<path d="M39.3089 43.9257C39.0189 44.5739 38.2031 44.8041 38.0069 44.2953C37.8307 43.8348 38.2912 43.1042 38.9251 43.0815C39.3344 43.0929 39.5107 43.4794 39.3089 43.9257Z" fill="white"/>
<path d="M41.0372 40.7846C40.77 41.4953 39.9172 41.7455 39.6727 41.1855C39.4538 40.6852 39.9001 39.8892 40.5738 39.8665C41.0059 39.8779 41.2191 40.2986 41.0372 40.7846Z" fill="white"/>
<path d="M36.7022 45.6057C36.2502 46.7257 34.7919 47.1009 34.4423 46.1885C34.1438 45.4124 34.8687 44.2782 35.9375 44.2469C36.7391 44.2754 36.958 44.9747 36.7022 45.6057Z" fill="#1D71B8"/>
<path d="M29.8827 48.4086C29.6496 49.5541 28.2141 49.8896 27.5887 48.9401C27.0799 48.1669 27.5688 47.0441 28.703 47.0214C29.6098 47.0583 30.0163 47.7548 29.8827 48.4086Z" fill="#95C11F"/>
<path d="M32.8618 47.0697C32.5605 47.9566 31.4092 48.2153 31.0482 47.4762C30.7525 46.8736 31.2386 46.0009 32.117 45.9696C32.7168 45.981 33.0579 46.487 32.8618 47.0697Z" fill="#F349A1"/>
<path d="M31.0454 45.4664C30.8265 46.4216 29.5985 46.7001 29.1095 45.9042C28.7173 45.2618 29.1437 44.3351 30.0988 44.301C30.7526 44.3123 31.1847 44.8467 31.0454 45.4664Z" fill="#FCEA10"/>
<path d="M26.3209 49.2187C26.3124 49.7361 25.687 49.918 25.289 49.52C24.928 49.1562 25.0417 48.5706 25.6188 48.5479C26.0054 48.5535 26.3237 48.8605 26.3181 49.2187" fill="white"/>
<path d="M37.2394 43.0701C36.9978 43.7381 36.1422 43.9769 35.8721 43.451C35.6305 42.9792 36.0484 42.2287 36.7306 42.206C37.174 42.2173 37.4071 42.6125 37.2394 43.073" fill="#F349A1"/>
<path d="M48.8601 27.268C48.8118 27.9985 48.2575 28.3681 47.8538 27.936C47.3791 27.4271 47.5184 26.1991 48.2035 26.1792C48.7265 26.2389 48.8828 26.8785 48.8573 27.268" fill="white"/>
<path d="M47.3279 23.7886C47.3364 24.4992 46.7821 24.8546 46.3188 24.4339C45.7446 23.9137 45.8696 22.788 46.5064 22.7368C46.5206 22.7368 46.5405 22.7368 46.5547 22.7368C47.109 22.7937 47.3251 23.4134 47.3308 23.7886" fill="white"/>
<path d="M48.465 31.4921C48.2546 32.8253 47.0948 33.4365 46.4638 32.5467C45.8071 31.62 46.3216 29.687 47.4786 29.67C48.2575 29.7268 48.5957 30.6592 48.465 31.4921Z" fill="#FCEA10"/>
<path d="M44.2635 40.2303C43.7121 41.6715 42.1287 42.2173 41.6938 41.1144C41.2987 40.1109 42.2055 38.4679 43.479 38.4309C44.3716 38.4736 44.5819 39.3974 44.2635 40.2303Z" fill="#95C11F"/>
<path d="M46.2847 36.0801C45.9777 37.1063 44.9401 37.5554 44.4967 36.8561C44.0219 36.1057 44.6018 34.6389 45.6024 34.6104C46.3955 34.69 46.4439 35.5542 46.2847 36.0801Z" fill="#F349A1"/>
<path d="M43.5927 36.515C43.2743 37.6037 42.0492 38.0102 41.6057 37.1716C41.1935 36.3899 41.7876 35.0823 42.7911 35.0567C43.6609 35.1363 43.7434 35.9948 43.5927 36.515Z" fill="#95C11F"/>
<path d="M40.9178 43.6216C40.6022 44.2697 39.829 44.5056 39.6443 44.0082C39.4737 43.5477 39.974 42.7773 40.588 42.7603C41.1082 42.8057 41.0656 43.3117 40.9149 43.6187" fill="white"/>
<path d="M46.7452 28.8257C46.6599 29.6131 45.9663 29.9543 45.5484 29.4113C45.1163 28.8513 45.3551 27.7512 46.0686 27.7313C46.6428 27.791 46.7878 28.4334 46.7452 28.8257Z" fill="#F349A1"/>
<path d="M40.5852 9.92509C40.7671 10.3913 40.4715 10.6755 40.011 10.4794C39.3828 10.2122 39.0473 9.33951 39.5078 9.18317C39.5562 9.16611 39.6045 9.16611 39.6443 9.16327C40.028 9.17464 40.4487 9.57545 40.5852 9.92509Z" fill="white"/>
<path d="M37.8535 9.16043C38.007 9.64652 37.6204 9.91657 37.1257 9.66926C36.5288 9.36794 36.3241 8.59191 36.8045 8.44409C36.8585 8.42703 36.9069 8.42704 36.9495 8.42419C37.356 8.43556 37.7454 8.81363 37.8535 9.16043Z" fill="white"/>
<path d="M43.6524 12.7564C44.0049 13.7257 43.371 14.2146 42.6262 13.8877C41.4266 13.3618 40.9917 11.7188 41.745 11.3947C41.8502 11.3493 41.9354 11.3464 42.0236 11.3436C42.7257 11.3748 43.4165 12.0997 43.6524 12.7535" fill="#1D71B8"/>
<path d="M48.8004 21.0227C48.9738 22.3275 48.1267 23.0665 47.2142 22.4156C46.0573 21.5884 45.9322 19.3256 47.0323 19.0982C47.1034 19.084 47.1659 19.084 47.2114 19.0812C48.0528 19.1437 48.681 20.1159 48.8004 21.0227Z" fill="#95C11F"/>
<path d="M46.1994 16.7701C46.3955 17.6514 45.8071 18.1403 45.0964 17.6883C44.184 17.1084 43.9509 15.6132 44.7468 15.4341C44.7894 15.4256 44.852 15.4199 44.8946 15.4199C45.4432 15.4398 46.0402 16.0595 46.1994 16.7701Z" fill="#F349A1"/>
<path d="M45.3722 19.3967C45.4859 20.3774 44.7013 20.8749 43.9509 20.295C43.0554 19.6043 43.0924 18.0692 44.0077 17.9811C44.0333 17.9811 44.0674 17.9811 44.093 17.9783C44.6899 17.9982 45.2869 18.6605 45.3722 19.3967Z" fill="#95C11F"/>
<path d="M49.6049 25.4032C49.602 26.1252 49.0932 26.4919 48.6838 26.0655C48.2091 25.5738 48.2773 24.3656 48.9283 24.3372C49.3376 24.3543 49.6077 24.9029 49.6077 25.4004" fill="white"/>
<path d="M40.9491 12.3897C41.094 12.9326 40.6762 13.2339 40.1673 12.9582C39.5391 12.6199 39.343 11.7415 39.8547 11.5767C39.9115 11.5596 39.9655 11.5568 40.0082 11.5539C40.4402 11.5653 40.8439 11.9945 40.9491 12.3868" fill="#F349A1"/>
<path d="M27.8957 4.15741C27.8303 4.5838 27.2334 4.74868 26.9662 4.41325C26.7416 4.12898 26.9662 3.65142 27.4295 3.63721C27.8218 3.65995 27.9242 3.96695 27.8957 4.15741Z" fill="white"/>
<path d="M25.8234 5.20635C25.6614 5.71518 24.9081 5.86869 24.7177 5.43376C24.5812 5.12107 24.9195 4.64635 25.4027 4.63214C25.832 4.65772 25.8888 4.99884 25.8234 5.20635Z" fill="white"/>
<path d="M30.5905 4.70604C30.6872 5.43375 29.7662 5.80613 29.118 5.30298C28.5097 4.83111 28.6945 3.90157 29.4165 3.79924C29.4649 3.79071 29.5132 3.79071 29.5416 3.79071C30.1158 3.81345 30.5337 4.28533 30.5905 4.70604Z" fill="#1D71B8"/>
<path d="M36.9068 6.89485C37.3133 7.76753 36.6453 8.21667 35.8494 7.91819C34.6868 7.48043 34.2035 6.07617 34.8829 5.7379C35.0108 5.67536 35.1387 5.66968 35.2183 5.66968C35.9006 5.69526 36.6425 6.32348 36.9068 6.89485Z" fill="#FCEA10"/>
<path d="M33.4502 5.77771C33.6208 6.38603 32.9897 6.71578 32.3615 6.34339C31.6906 5.94827 31.5911 5.05853 32.2023 4.92208C32.2592 4.91071 32.3132 4.90787 32.353 4.90787C32.9528 4.95051 33.3564 5.44228 33.4502 5.77771Z" fill="#F349A1"/>
<path d="M34.5674 8.04612C34.7152 8.74825 33.9875 9.11779 33.291 8.69424C32.5434 8.23942 32.4837 7.21322 33.1972 7.05688C33.2654 7.04267 33.328 7.03983 33.3735 7.03983C34.0614 7.08815 34.4849 7.65668 34.5674 8.04612Z" fill="#95C11F"/>
<path d="M39.5448 8.37302C39.7352 8.79373 39.4908 9.05809 39.0587 8.89891C38.4589 8.67718 38.0581 7.84429 38.4731 7.67942C38.5243 7.65952 38.5669 7.65668 38.6096 7.65668C39.0445 7.69363 39.4169 8.09729 39.542 8.37302" fill="white"/>
<path d="M28.8196 5.80897C28.7855 6.2979 28.1146 6.48836 27.7792 6.1046C27.4921 5.77486 27.6996 5.22055 28.2311 5.20349C28.6888 5.23192 28.8338 5.59009 28.8196 5.80897Z" fill="#F349A1"/>
<path d="M15.1608 7.89545C14.7685 8.40997 14.1346 8.66012 14.0692 8.32469C14.001 7.98073 14.6548 7.24733 15.1665 7.21606C15.4706 7.21606 15.4109 7.56855 15.1608 7.89545Z" fill="white"/>
<path d="M12.9776 10.613C12.6195 11.1929 11.9657 11.4743 11.852 11.0963C11.7326 10.7068 12.3466 9.88245 12.8952 9.84265C13.2278 9.84265 13.2079 10.2406 12.9805 10.6102" fill="white"/>
<path d="M18.4269 6.47415C17.7618 7.42358 16.5764 7.73058 16.4712 7.15069C16.3632 6.54805 17.5116 5.47638 18.3075 5.43658C18.8306 5.44795 18.7794 5.971 18.4269 6.47415Z" fill="#1D71B8"/>
<path d="M24.928 4.21995C24.5158 5.17792 23.1286 5.4167 22.8586 4.77711C22.6141 4.19721 23.538 3.26483 24.3794 3.24493C25.0361 3.26768 25.0957 3.82767 24.9252 4.21995" fill="#95C11F"/>
<path d="M21.605 5.28026C21.1473 5.98807 20.0842 6.26097 20.0018 5.6896C19.9364 5.24331 20.6698 4.49001 21.3634 4.45874C21.821 4.46443 21.8551 4.88513 21.605 5.28026Z" fill="#F349A1"/>
<path d="M22.833 6.56513C22.4805 7.33264 21.3094 7.62827 21.0649 7.01142C20.8716 6.5168 21.5226 5.6896 22.3185 5.65549C22.87 5.66117 23.0292 6.13021 22.8302 6.56229" fill="#95C11F"/>
<path d="M26.9861 3.53772C26.878 3.94137 26.2754 4.09487 26.0764 3.76797C25.9172 3.50645 26.1844 3.07437 26.6137 3.05731C26.9093 3.063 27.0429 3.30746 26.9832 3.53772" fill="white"/>
<path d="M16.5679 8.58052C16.2154 9.13767 15.4877 9.38214 15.3882 8.97849C15.2972 8.60611 15.8799 7.90682 16.4229 7.87555C16.7754 7.87555 16.7811 8.24225 16.5679 8.58052Z" fill="#F349A1"/>
<path d="M12.4517 14.7035C12.2584 15.2152 11.6928 15.4625 11.5222 15.1129C11.3488 14.7547 11.7837 14.0952 12.1959 14.0867C12.5455 14.1066 12.537 14.4733 12.4489 14.7007" fill="white"/>
<path d="M11.6757 17.3131C11.4795 17.8361 10.9025 18.0379 10.7376 17.64C10.5727 17.2392 10.9679 16.6081 11.3857 16.5996C11.761 16.6195 11.7809 17.0288 11.6757 17.3131Z" fill="white"/>
<path d="M14.9334 12.9013C14.561 13.7342 13.5433 14.0952 13.2818 13.4869C13.0373 12.9155 13.6968 11.878 14.5155 11.8268C14.9931 11.8268 15.1892 12.3271 14.9334 12.8985" fill="#1D71B8"/>
<path d="M20.4708 9.37648C20.087 10.2577 18.8192 10.5903 18.5321 9.88531C18.299 9.30826 18.9983 8.34176 19.8881 8.30481C20.5959 8.34176 20.6527 8.95293 20.4679 9.37648" fill="#95C11F"/>
<path d="M17.5799 10.9854C17.2984 11.6733 16.3604 11.986 16.1443 11.4629C15.9397 10.9712 16.5679 10.198 17.1762 10.1895C17.6964 10.215 17.7021 10.6898 17.5827 10.9854" fill="#F349A1"/>
<path d="M19.1774 11.8382C18.8761 12.5517 17.9039 12.7791 17.6708 12.1878C17.469 11.679 18.0602 10.9456 18.6771 10.9371C19.2115 10.9627 19.3536 11.4232 19.1802 11.8382" fill="#FCEA10"/>
<path d="M22.5402 8.0376C22.3896 8.47821 21.7187 8.65161 21.5595 8.2906C21.4231 7.98359 21.7926 7.55436 22.1991 7.55151C22.5658 7.56857 22.6027 7.85852 22.5431 8.0376" fill="white"/>
<path d="M14.1744 14.8542C13.9612 15.363 13.3671 15.5507 13.1993 15.1641C13.0316 14.7832 13.4466 14.1834 13.8816 14.1777C14.2312 14.1947 14.3051 14.5415 14.1744 14.8542Z" fill="#F349A1"/>
<path d="M8.16221 28.7205C8.12241 29.2578 7.71876 29.5193 7.42882 29.1981C7.08202 28.8143 7.17867 27.9559 7.67897 27.9075C8.01156 27.9274 8.18779 28.3425 8.16221 28.7177" fill="white"/>
<path d="M9.73702 30.79C9.71713 31.3471 9.25947 31.5916 8.92972 31.2192C8.58008 30.8212 8.67104 30.0367 9.17987 29.994C9.53804 30.0139 9.74839 30.4204 9.73418 30.79" fill="white"/>
<path d="M8.52323 25.5567C8.39531 26.526 7.63064 26.9979 7.16161 26.401C6.64141 25.7386 6.94273 24.269 7.79552 24.2065C8.41521 24.2491 8.5943 25.0223 8.52323 25.5567Z" fill="#FCEA10"/>
<path d="M10.2629 18.4302C9.93033 19.4507 8.94393 19.9368 8.56018 19.2716C8.16506 18.5866 8.80181 17.1169 9.71998 17.0487C10.2544 17.0544 10.5045 17.6855 10.2601 18.4302" fill="#95C11F"/>
<path d="M9.05763 21.8584C8.86149 22.6373 8.15653 22.987 7.83815 22.4639C7.50272 21.9096 7.87226 20.8152 8.56302 20.7555C9.03205 20.7811 9.18555 21.3468 9.05763 21.8584Z" fill="#F349A1"/>
<path d="M11.002 20.8323C10.7774 21.6538 9.95023 21.975 9.63754 21.3581C9.35043 20.7896 9.76261 19.7975 10.4619 19.7435C10.9707 19.7691 11.1385 20.3263 11.002 20.8294" fill="#95C11F"/>
<path d="M11.2266 15.3744C11.002 15.8804 10.4619 16.0794 10.3368 15.7013C10.2203 15.3488 10.5813 14.7291 11.0191 14.695C11.3261 14.7093 11.3659 15.0589 11.2266 15.3716" fill="white"/>
<path d="M9.48687 26.9809C9.41865 27.5465 8.92687 27.7995 8.63977 27.4215C8.33277 27.0178 8.4948 26.2162 9.00647 26.1736C9.3618 26.1935 9.53236 26.6085 9.48687 26.9809Z" fill="#F349A1"/>
<path d="M16.0562 40.4862C16.15 40.9751 15.7179 41.2281 15.2972 40.9325C14.8339 40.6056 14.8168 39.9432 15.2688 39.858C15.2802 39.858 15.3114 39.8494 15.3484 39.8494C15.7549 39.8693 16.0079 40.2332 16.0562 40.4862Z" fill="white"/>
<path d="M18.4411 40.5402C18.4667 41.0462 17.901 41.2309 17.4946 40.8472C17.0852 40.4606 17.2131 39.8608 17.7106 39.8437C17.7163 39.8437 17.722 39.8437 17.7276 39.8437C18.1483 39.8636 18.4241 40.2218 18.4411 40.5402Z" fill="white"/>
<path d="M14.2568 38.6754C14.3648 39.5311 13.6087 39.9347 12.9265 39.3861C12.1561 38.7635 12.1817 37.5583 12.9663 37.4616C12.9918 37.4588 13.026 37.4588 13.0515 37.4559C13.6115 37.4559 14.1744 38.0273 14.2568 38.6754Z" fill="#1D71B8"/>
<path d="M9.89906 33.2744C9.94739 34.3091 9.15429 34.8208 8.48628 34.1897C7.73298 33.4791 7.76993 31.8417 8.74779 31.7735C9.49825 31.8218 9.87347 32.6831 9.9019 33.2772" fill="#95C11F"/>
<path d="M11.7468 36.0005C11.7951 36.714 11.2067 37.0523 10.678 36.6117C10.0867 36.1171 10.0412 34.98 10.7661 34.9061C10.7803 34.9061 10.7945 34.9061 10.8059 34.9061C11.3431 34.9345 11.7098 35.4974 11.7439 36.0034" fill="#F349A1"/>
<path d="M12.159 33.516C12.2186 34.3006 11.5421 34.7241 10.9906 34.2466C10.4022 33.7349 10.4363 32.5609 11.2095 32.4842C11.2237 32.4842 11.2379 32.4842 11.2522 32.4842C11.8576 32.5154 12.1305 33.1351 12.159 33.5189" fill="#95C11F"/>
<path d="M7.85522 30.2357C7.86944 30.7758 7.49989 31.0856 7.18721 30.8013C6.78071 30.4318 6.89442 29.5222 7.34924 29.5051H7.35492C7.68751 29.525 7.84954 29.9457 7.85522 30.2385" fill="white"/>
<path d="M15.6781 38.2775C15.7492 38.792 15.283 39.0563 14.8566 38.7408C14.3961 38.3997 14.4188 37.7089 14.8936 37.618C14.9049 37.618 14.9362 37.6094 14.976 37.6094C15.4223 37.6322 15.644 38.0301 15.6781 38.2746" fill="#F349A1"/>
<path d="M28.7201 43.1241C28.6348 43.6187 27.9838 43.7751 27.6797 43.3714C27.421 43.0275 27.6257 42.4959 28.1544 42.4703C28.5694 42.4902 28.7712 42.8256 28.7201 43.1241Z" fill="white"/>
<path d="M30.5365 41.4327C30.4285 41.9473 29.7491 42.1093 29.4506 41.6886C29.1948 41.3304 29.4279 40.7733 29.9794 40.7477C30.4086 40.7704 30.6019 41.1201 30.5365 41.4327Z" fill="white"/>
<path d="M26.5483 43.2009C26.4744 44.0622 25.4027 44.3607 24.7859 43.6898C24.2429 43.1014 24.5244 42.1235 25.471 42.0894C26.2754 42.1349 26.5824 42.766 26.5455 43.2009" fill="#1D71B8"/>
<path d="M20.3827 42.5187C20.4566 43.4539 19.4162 43.8405 18.6202 43.1725C17.8016 42.4874 17.9522 41.3333 18.8732 41.2423C18.9045 41.2395 18.9471 41.2395 18.9812 41.2366C19.6748 41.2395 20.3315 41.8393 20.3855 42.5187" fill="#95C11F"/>
<path d="M23.2054 42.8484C23.1883 43.5761 22.2787 43.8035 21.7301 43.2151C21.261 42.7148 21.443 41.9302 22.2247 41.8933C22.8444 41.9217 23.2168 42.4106 23.2054 42.8484Z" fill="#F349A1"/>
<path d="M22.0399 40.779C22.0228 41.5351 21.0507 41.7796 20.4878 41.1684C20.0444 40.688 20.1382 39.8182 21.0137 39.7755C21.7272 39.8068 22.0484 40.3924 22.0399 40.779Z" fill="#FCEA10"/>
<path d="M16.9431 41.8023C17.0028 42.2599 16.5536 42.4618 16.1557 42.1548C15.7179 41.8165 15.7293 41.1883 16.1756 41.1343C16.1926 41.1343 16.2154 41.1343 16.2296 41.1314C16.619 41.1485 16.9033 41.4924 16.9431 41.8023Z" fill="white"/>
<path d="M27.3073 41.5862C27.2362 42.1036 26.5597 42.2656 26.2271 41.8478C25.9428 41.4896 26.139 40.9353 26.6904 40.9097C27.1254 40.9296 27.3499 41.2792 27.3073 41.5891" fill="#F349A1"/>
<path d="M40.1105 36.0346C39.9939 36.6259 39.3174 36.8647 39.0303 36.4184C38.7546 35.9891 39.1156 35.3325 39.6244 35.3353C40.0735 35.3666 40.1617 35.7816 40.1105 36.0346Z" fill="white"/>
<path d="M40.4374 33.3114C40.3095 33.8771 39.6557 34.076 39.36 33.6411C39.0616 33.1977 39.3998 32.5154 39.92 32.5154C40.3436 32.5439 40.5198 32.9504 40.4374 33.3114Z" fill="white"/>
<path d="M38.3964 38.1922C38.1292 39.17 36.9637 39.4998 36.5032 38.7294C36.1024 38.0557 36.5999 36.984 37.5607 36.9442C38.1946 36.9556 38.5783 37.527 38.3964 38.1922Z" fill="#FCEA10"/>
<path d="M33.0892 42.1718C32.8277 43.2264 31.449 43.5249 30.9515 42.638C30.5536 41.9274 31.0539 40.9012 32.0914 40.8671C32.9897 40.9239 33.2143 41.6658 33.0892 42.1718Z" fill="#95C11F"/>
<path d="M35.4344 40.2531C35.2069 41.0177 34.2149 41.248 33.8539 40.6198C33.5127 40.0285 34.0244 39.2184 34.7351 39.2212C35.3462 39.2582 35.5736 39.784 35.4344 40.2531Z" fill="#F349A1"/>
<path d="M33.4275 39.352C33.2313 40.1365 32.2108 40.3696 31.7986 39.7243C31.412 39.1217 31.8981 38.2945 32.6372 38.2973C33.2796 38.3343 33.5469 38.8716 33.4275 39.3491" fill="#95C11F"/>
<path d="M29.985 43.5221C29.9254 44.0167 29.2943 44.2242 28.9788 43.8547C28.6661 43.4908 28.9475 42.928 29.4421 42.928C29.8884 42.9507 30.0135 43.306 29.985 43.5221Z" fill="white"/>
<path d="M37.9927 35.955C37.8449 36.5349 37.1399 36.7055 36.8699 36.2279C36.6425 35.8271 36.9353 35.1904 37.481 35.1904C37.916 35.2188 38.0837 35.5997 37.9927 35.955Z" fill="#F349A1"/>
<path d="M42.9929 21.6509C42.9929 22.1825 42.4727 22.4099 42.1003 22.0432C41.7024 21.6538 41.7791 20.9033 42.3448 20.8777C42.7456 20.9062 42.9929 21.3013 42.9929 21.6509Z" fill="white"/>
<path d="M41.0741 19.6639C41.0827 20.1784 40.5568 20.4002 40.1673 20.0448C39.7495 19.6639 39.8575 18.9675 40.3436 18.9163C40.3606 18.9163 40.3834 18.9163 40.4004 18.9163C40.8069 18.9419 41.0656 19.3257 41.0713 19.6668" fill="white"/>
<path d="M43.7235 24.775C43.6865 25.7898 42.6916 26.2077 42.0605 25.4743C41.4437 24.7579 41.6853 23.4475 42.6575 23.4134C43.425 23.4759 43.7405 24.2462 43.7206 24.7721" fill="#1D71B8"/>
<path d="M43.0156 32.2511C42.8053 33.3853 41.5915 33.8401 40.9888 33.01C40.3976 32.1942 40.878 30.753 42.0037 30.7075C42.6916 30.7246 43.1663 31.4466 43.0156 32.2539" fill="#95C11F"/>
<path d="M43.2686 28.5784C43.1521 29.434 42.2567 29.7524 41.7933 29.1043C41.3499 28.4818 41.6427 27.4158 42.45 27.3788C43.0498 27.4215 43.3397 28.0355 43.2686 28.5784Z" fill="#F349A1"/>
<path d="M41.1622 29.616C41.0258 30.4801 40.0991 30.7928 39.613 30.1362C39.1582 29.5193 39.4822 28.4647 40.3265 28.4249C40.9547 28.4647 41.2475 29.0759 41.1622 29.616Z" fill="#95C11F"/>
<path d="M41.4153 35.4405C41.2646 35.9891 40.6421 36.191 40.3749 35.7759C40.1162 35.378 40.4004 34.6986 40.9547 34.673C41.3612 34.6986 41.5119 35.0909 41.4153 35.4405Z" fill="white"/>
<path d="M41.6284 23.2627C41.6057 23.8085 41.0485 24.0387 40.6705 23.6635C40.2697 23.2655 40.3891 22.5009 40.9832 22.4724C41.401 22.5009 41.6426 22.9045 41.6256 23.2627" fill="#F349A1"/>
<path d="M34.5759 10.7324C34.6071 11.1531 34.1239 11.3265 33.7572 11.028C33.3905 10.7296 33.4502 10.1951 33.8595 10.1326C33.8681 10.1326 33.8993 10.1269 33.9334 10.1269C34.3058 10.1497 34.556 10.4567 34.5759 10.7324Z" fill="white"/>
<path d="M32.37 10.7125C32.3672 11.1588 31.8072 11.318 31.4632 10.9712C31.1278 10.6329 31.304 10.1099 31.756 10.107C31.756 10.107 31.7589 10.107 31.7617 10.107C32.1455 10.1269 32.3729 10.4311 32.37 10.7097" fill="white"/>
<path d="M37.0603 12.4636C37.1655 13.2396 36.3383 13.6035 35.6532 13.0804C34.9198 12.5204 35.0165 11.4658 35.8067 11.3976C35.8323 11.3976 35.8664 11.3976 35.8892 11.3947C36.435 11.4033 36.9836 11.9036 37.0603 12.4636Z" fill="#1D71B8"/>
<path d="M41.8729 17.4808C41.9752 18.4587 41.0599 18.9248 40.264 18.2966C39.3742 17.5945 39.4851 16.1789 40.4345 16.1021C40.4601 16.1021 40.4942 16.1021 40.5198 16.1021C41.3556 16.1646 41.8132 16.9492 41.8701 17.4836" fill="#FCEA10"/>
<path d="M39.2662 14.8457C39.3913 15.5478 38.7119 15.9145 38.1093 15.471C37.4754 15.002 37.5038 14.0497 38.1576 13.9474C38.1661 13.9474 38.2144 13.9389 38.277 13.9389C38.8853 13.9787 39.2065 14.5159 39.2662 14.8457Z" fill="#F349A1"/>
<path d="M38.8995 17.097C38.9194 17.8162 38.132 18.1147 37.5606 17.603C36.9893 17.0914 37.0689 16.1107 37.862 16.0566C37.8762 16.0566 37.8932 16.0566 37.9074 16.0566C38.5044 16.0936 38.8881 16.628 38.8995 17.0999" fill="#95C11F"/>
<path d="M43.2231 20.1102C43.28 20.6475 42.8081 20.9204 42.4045 20.585C41.9497 20.204 42.0378 19.4479 42.5409 19.4138C42.5494 19.4138 42.558 19.4138 42.5665 19.4138C42.9929 19.4451 43.1976 19.8572 43.2231 20.1131" fill="white"/>
<path d="M34.8602 12.6256C34.917 13.0804 34.4252 13.3192 34.0244 13.0293C33.6009 12.7251 33.6663 12.1082 34.1239 12.04C34.1239 12.04 34.1637 12.0343 34.2092 12.0343C34.6328 12.0599 34.8346 12.4096 34.8602 12.6228" fill="#F349A1"/>
<path d="M23.5607 8.4526C23.4044 8.87331 22.7648 9.01545 22.5828 8.66865C22.4322 8.38154 22.725 7.93525 23.1883 7.91251C23.5351 7.92672 23.6517 8.20245 23.5607 8.44976" fill="white"/>
<path d="M21.6533 9.91088C21.4686 10.3657 20.8062 10.5164 20.6271 10.144C20.4793 9.83697 20.7977 9.36225 21.2838 9.33667C21.6505 9.35088 21.7614 9.64652 21.6533 9.91088Z" fill="white"/>
<path d="M26.2356 8.44125C26.0764 9.17749 24.9962 9.45322 24.5869 8.8648C24.2458 8.37587 24.675 7.56288 25.4823 7.53445C26.1333 7.56857 26.3152 8.08592 26.2384 8.44125" fill="#1D71B8"/>
<path d="M31.7645 9.06945C31.793 9.89097 30.7412 10.2406 30.0845 9.62945C29.4876 9.0723 29.7122 8.04327 30.6445 8.00916C31.2216 8.01768 31.7446 8.51514 31.7645 9.0723" fill="#95C11F"/>
<path d="M28.8167 8.7511C28.74 9.385 27.8559 9.58967 27.4665 9.06379C27.1509 8.64308 27.4238 7.98643 28.0833 7.95801C28.5922 7.98075 28.8594 8.38724 28.8167 8.74826" fill="#F349A1"/>
<path d="M29.6837 10.5419C29.6184 11.2128 28.6803 11.4345 28.2511 10.8774C27.8986 10.4226 28.1686 9.71474 28.8764 9.68631C29.4222 9.71189 29.7207 10.1525 29.6809 10.5419" fill="#95C11F"/>
<path d="M33.8112 9.62663C33.8453 10.0559 33.345 10.2151 32.984 9.88815C32.6514 9.58399 32.7452 9.09506 33.1404 9.05811C33.1546 9.05811 33.1745 9.05811 33.1915 9.05811C33.5469 9.078 33.7885 9.37079 33.8112 9.62947" fill="white"/>
<path d="M24.5954 9.76592C24.4618 10.2179 23.808 10.3629 23.5806 9.99333C23.393 9.68917 23.663 9.21445 24.1548 9.19171C24.5698 9.20877 24.6636 9.53851 24.5954 9.76308" fill="#F349A1"/>
<path d="M11.2351 25.4998C11.1782 25.9518 10.7462 26.1536 10.5131 25.8409C10.28 25.5254 10.4335 24.937 10.8485 24.9114C11.164 24.9313 11.2664 25.2667 11.2351 25.4998Z" fill="white"/>
<path d="M12.2528 27.3276C12.2101 27.791 11.7752 27.9957 11.5137 27.6744C11.2578 27.3618 11.3971 26.7506 11.8235 26.725C12.1362 26.7449 12.2755 27.0491 12.2499 27.3248" fill="white"/>
<path d="M11.9685 23.1376C11.8434 23.9222 11.0588 24.286 10.6751 23.7346C10.3084 23.2087 10.641 22.2024 11.3431 22.1683C11.9088 22.2109 12.0253 22.7709 11.9685 23.1376Z" fill="#1D71B8"/>
<path d="M14.0465 17.9214C13.8389 18.7344 12.898 19.1352 12.5228 18.5695C12.1589 18.0237 12.6422 16.9577 13.4495 16.9151C13.9754 16.9208 14.1687 17.4438 14.0465 17.9214Z" fill="#95C11F"/>
<path d="M12.7843 20.4542C12.6394 21.0739 11.9827 21.3496 11.6842 20.9175C11.3971 20.4997 11.7183 19.6867 12.3068 19.6526C12.7587 19.6781 12.8554 20.1358 12.7815 20.4542" fill="#F349A1"/>
<path d="M14.4899 19.9653C14.3392 20.6134 13.5803 20.8664 13.2988 20.3604C13.0572 19.9255 13.3841 19.1977 13.9782 19.1665C14.453 19.1949 14.5638 19.6497 14.4899 19.9653Z" fill="#FCEA10"/>
<path d="M14.9248 15.7212C14.7855 16.1362 14.2796 16.2954 14.1289 15.9714C14.001 15.6956 14.2625 15.2323 14.6434 15.2124C14.9476 15.2294 14.9902 15.5194 14.922 15.7184" fill="white"/>
<path d="M12.591 24.4282C12.5257 24.8745 12.0708 25.0763 11.8321 24.7636C11.5933 24.4537 11.7638 23.871 12.1959 23.8454C12.5257 23.8653 12.6252 24.1979 12.591 24.4282Z" fill="#F349A1"/>
<path d="M15.7265 35.8328C15.7464 36.2563 15.3057 36.4383 14.9931 36.137C14.6832 35.8385 14.7457 35.3041 15.192 35.2785C15.4962 35.2785 15.7122 35.5656 15.7265 35.8328Z" fill="white"/>
<path d="M17.7163 36.1398C17.7248 36.5605 17.2614 36.7424 16.9402 36.444C16.6275 36.154 16.71 35.6111 17.1705 35.5883C17.4547 35.5883 17.7106 35.847 17.7163 36.1398Z" fill="white"/>
<path d="M14.5866 34.0277C14.6264 34.7867 13.8844 35.1448 13.3472 34.6275C12.8128 34.113 12.9293 33.1152 13.694 33.0726C14.2 33.0783 14.5638 33.5729 14.5866 34.0277Z" fill="#FCEA10"/>
<path d="M11.9685 29.164C11.9429 30.0083 11.1924 30.4545 10.6523 29.9486C10.0497 29.3829 10.2345 28.0525 11.1015 28.007C11.7553 28.0582 11.9799 28.7404 11.9685 29.1612" fill="#95C11F"/>
<path d="M13.0146 31.603C13.0089 32.2084 12.4318 32.5126 12.0197 32.126C11.5677 31.7025 11.67 30.7957 12.3181 30.753C12.6934 30.753 13.0203 31.151 13.0174 31.603" fill="#F349A1"/>
<path d="M13.8077 29.8263C13.7764 30.4886 13.1169 30.7729 12.7047 30.3039C12.3096 29.8519 12.483 29.002 13.1198 28.9622C13.5149 28.9622 13.8276 29.3601 13.8048 29.8263" fill="#95C11F"/>
<path d="M10.7234 26.6369C10.6808 27.0718 10.2857 27.2879 10.044 27.0121C9.78251 26.7136 9.91327 26.0712 10.3311 26.0428C10.5756 26.0428 10.7547 26.3185 10.7234 26.6369Z" fill="white"/>
<path d="M15.8487 34.0391C15.8515 34.474 15.3967 34.6588 15.084 34.3518C14.7855 34.0562 14.8708 33.4962 15.3199 33.4706C15.6326 33.4706 15.843 33.7662 15.8458 34.0391" fill="#F349A1"/>
<path d="M25.8775 39.4941C25.849 39.9063 25.3146 40.0598 25.0275 39.7414C24.7717 39.4571 24.9138 38.9853 25.3715 38.9682C25.7467 38.9881 25.8917 39.2866 25.8775 39.4941Z" fill="white"/>
<path d="M27.5091 38.3201C27.4665 38.7493 26.9178 38.9085 26.6336 38.5759C26.3834 38.286 26.5455 37.8027 27.0088 37.7857C27.3897 37.8084 27.529 38.1126 27.5091 38.3229" fill="white"/>
<path d="M24.0525 39.2269C24.044 39.983 23.1002 40.2644 22.5687 39.6675C22.1252 39.1729 22.3555 38.357 23.1343 38.3315C23.8962 38.3798 24.0553 38.9938 24.0525 39.2269Z" fill="#1D71B8"/>
<path d="M18.9727 37.8823C19.0296 38.6953 18.1427 39.0762 17.4889 38.5191C16.8095 37.9392 16.9999 36.93 17.8044 36.859C17.8271 36.859 17.8584 36.859 17.8811 36.8561C18.5094 36.8647 18.9386 37.3962 18.9727 37.8852" fill="#95C11F"/>
<path d="M21.2866 38.556C21.2866 39.1643 20.522 39.3974 20.0643 38.9284C19.6578 38.5105 19.817 37.8113 20.485 37.7857C21.0677 37.8169 21.2838 38.2746 21.2838 38.5589" fill="#F349A1"/>
<path d="M20.63 36.7367C20.6214 37.3678 19.8369 37.6066 19.3764 37.1176C18.9699 36.6856 19.1404 35.9664 19.8227 35.938C20.3883 35.9664 20.6357 36.424 20.63 36.7367Z" fill="#95C11F"/>
<path d="M16.2068 36.9585C16.2324 37.3707 15.8089 37.5526 15.4905 37.2655C15.1664 36.9755 15.2546 36.4525 15.6298 36.4155C15.6412 36.4155 15.6554 36.4155 15.6667 36.4155C16.0164 36.4354 16.1926 36.7453 16.2068 36.9585Z" fill="white"/>
<path d="M24.8427 38.0586C24.8171 38.4821 24.2714 38.6413 23.9729 38.3144C23.7085 38.0244 23.8507 37.5384 24.3197 37.5213C24.7034 37.5412 24.8569 37.8482 24.8427 38.0586Z" fill="#F349A1"/>
<path d="M35.5708 35.2216C35.4884 35.6765 34.9398 35.8413 34.6896 35.486C34.4764 35.1818 34.6782 34.6758 35.1302 34.6559C35.4173 34.6616 35.622 34.926 35.5708 35.2216Z" fill="white"/>
<path d="M36.0342 33.0982C35.9659 33.5558 35.4002 33.7292 35.1472 33.3711C34.9255 33.0584 35.1217 32.5382 35.5765 32.5183C35.8721 32.524 36.0796 32.7883 36.0342 33.0982Z" fill="white"/>
<path d="M34.0983 36.5889C33.9846 37.3593 33.0323 37.6691 32.5775 37.0835C32.1739 36.5633 32.5235 35.6793 33.3194 35.6537C33.8851 35.6679 34.1637 36.1483 34.0983 36.5889Z" fill="#1D71B8"/>
<path d="M29.5843 39.1473C29.4904 40.0115 28.4017 40.3242 27.8701 39.6391C27.4182 39.0592 27.7593 38.1467 28.649 38.124C29.5018 38.1837 29.6155 38.8829 29.5871 39.1473" fill="#95C11F"/>
<path d="M31.594 37.9051C31.4973 38.5276 30.7014 38.7578 30.3233 38.2718C29.9851 37.8397 30.2523 37.1432 30.9316 37.1176C31.3495 37.1233 31.6594 37.49 31.594 37.9051Z" fill="#F349A1"/>
<path d="M30.0078 36.9329C29.9253 37.5639 29.118 37.797 28.7172 37.3053C28.3676 36.876 28.6263 36.1597 29.3028 36.1313C29.7406 36.1369 30.0618 36.5036 30.0078 36.9329Z" fill="#FCEA10"/>
<path d="M26.9008 40.0171C26.8667 40.435 26.338 40.5885 26.0537 40.2644C25.8121 39.9858 25.9599 39.5197 26.4033 39.4998C26.6933 39.5026 26.9207 39.7385 26.898 40.0171" fill="white"/>
<path d="M33.8795 34.8407C33.8055 35.2955 33.2484 35.4632 32.9869 35.1079C32.7566 34.7952 32.9471 34.2921 33.4161 34.275C33.7089 34.2807 33.9249 34.5451 33.8795 34.8435" fill="#F349A1"/>
<path d="M39.5192 24.5731C39.4965 25.0223 39.0218 25.2127 38.7261 24.8944C38.4333 24.576 38.5556 23.9961 39.0217 23.9819C39.3629 24.0075 39.5334 24.3059 39.5192 24.576" fill="white"/>
<path d="M38.2571 22.7794C38.2429 23.2144 37.7682 23.402 37.4583 23.095C37.157 22.7937 37.2735 22.2166 37.7426 22.2024C38.1093 22.228 38.2628 22.5549 38.2571 22.7823" fill="white"/>
<path d="M39.6472 26.9979C39.5988 27.8137 38.7375 28.1719 38.2287 27.592C37.7312 27.0206 37.9842 25.9888 38.8086 25.9689C39.542 26.0314 39.6614 26.7335 39.6472 26.9979Z" fill="#FCEA10"/>
<path d="M38.2429 32.5268C38.1263 33.445 37.0376 33.8202 36.5288 33.1209C36.074 32.4955 36.4634 31.4381 37.356 31.4068C37.9899 31.4239 38.3083 32.0038 38.2429 32.5268Z" fill="#95C11F"/>
<path d="M38.7915 29.8405C38.7091 30.5228 37.9103 30.7814 37.5351 30.247C37.2025 29.7723 37.464 28.9906 38.1206 28.965C38.6522 29.0048 38.8341 29.4994 38.7915 29.8405Z" fill="#F349A1"/>
<path d="M36.9608 30.3323C36.8699 31.0259 36.0626 31.2789 35.6703 30.7388C35.3292 30.2669 35.5992 29.488 36.2729 29.4653C36.8187 29.5023 37.0035 29.9969 36.9608 30.3351" fill="#95C11F"/>
<path d="M36.688 34.8833C36.6027 35.3353 36.0569 35.5002 35.8153 35.1449C35.6049 34.8379 35.8096 34.329 36.2559 34.3148C36.5998 34.3376 36.7363 34.6247 36.688 34.8833Z" fill="white"/>
<path d="M38.1178 25.6221C38.0865 26.0712 37.5947 26.2673 37.2991 25.9461C37.0006 25.6249 37.1371 25.0393 37.6203 25.0223C37.97 25.0479 38.1377 25.3492 38.1206 25.6221" fill="#F349A1"/>
<path d="M34.4991 14.8372C34.5105 15.2209 34.0614 15.3858 33.7572 15.1072C33.4616 14.8372 33.5753 14.3681 33.942 14.3369C33.9534 14.3369 33.9704 14.3369 33.9846 14.3369C34.2547 14.3397 34.4906 14.57 34.4991 14.8372Z" fill="white"/>
<path d="M32.5974 14.5359C32.5974 14.9168 32.1312 15.0816 31.8328 14.8031C31.5485 14.5415 31.6537 14.0554 32.0943 14.0384C32.3956 14.0412 32.5974 14.2999 32.5946 14.5359" fill="white"/>
<path d="M36.29 16.5058C36.3412 17.2022 35.5481 17.532 35.0023 17.0402C34.448 16.5399 34.6413 15.6871 35.3235 15.6359C35.3434 15.6359 35.369 15.6359 35.3889 15.6359C35.9062 15.6501 36.2616 16.0993 36.2929 16.5086" fill="#1D71B8"/>
<path d="M39.3629 21.108C39.3856 21.9778 38.4618 22.3616 37.8421 21.7362C37.2565 21.1478 37.4526 20.0363 38.3424 20.0164C39.0701 20.0761 39.3515 20.7015 39.3629 21.1051" fill="#95C11F"/>
<path d="M37.6715 18.7969C37.6857 19.4024 37.012 19.6611 36.56 19.2205C36.1223 18.7941 36.2502 18.0351 36.9097 18.0095C37.3133 18.018 37.6601 18.3762 37.6715 18.7969Z" fill="#F349A1"/>
<path d="M36.9125 20.4457C36.9068 21.0597 36.2019 21.324 35.7527 20.8777C35.3206 20.4485 35.4855 19.6582 36.1564 19.6327C36.5714 19.6383 36.9154 20.0107 36.9125 20.4457Z" fill="#95C11F"/>
<path d="M39.9883 23.473C39.9769 23.9165 39.5022 24.1041 39.2037 23.78C38.9194 23.473 39.036 22.9073 39.4823 22.8875C39.7637 22.8931 39.9939 23.1603 39.9854 23.473" fill="white"/>
<path d="M34.3599 16.466C34.3599 16.8668 33.8908 17.0373 33.5838 16.7474C33.2939 16.4717 33.3934 15.9628 33.8397 15.9458C34.1211 15.9515 34.357 16.1874 34.357 16.466" fill="#F349A1"/>
<path d="M25.3857 11.517C25.3118 11.8894 24.7973 12.0287 24.5784 11.7387C24.3908 11.4914 24.5841 11.0792 24.9962 11.065C25.326 11.0821 25.4226 11.3407 25.3885 11.517" fill="white"/>
<path d="M23.7626 12.5574C23.6687 12.961 23.0889 13.0889 22.9012 12.7507C22.7563 12.492 22.978 12.1054 23.3731 12.0912C23.7313 12.1111 23.8024 12.3868 23.7626 12.5574Z" fill="white"/>
<path d="M27.6598 11.7785C27.5973 12.4493 26.6677 12.708 26.2584 12.1679C25.9315 11.733 26.2356 11.0223 26.9236 11.0053C27.583 11.0479 27.6797 11.5766 27.6598 11.7785Z" fill="#1D71B8"/>
<path d="M32.3615 12.9923C32.3927 13.7257 31.503 14.0725 30.9174 13.5523C30.3461 13.0463 30.6076 12.1424 31.341 12.0883C31.3609 12.0883 31.3893 12.0883 31.412 12.0883C31.9749 12.1026 32.3444 12.5687 32.3643 12.9951" fill="#FCEA10"/>
<path d="M29.8429 12.3953C29.8117 12.9496 29.0868 13.1572 28.7059 12.7194C28.3818 12.3499 28.5865 11.7387 29.1834 11.7159C29.6923 11.7444 29.8571 12.1452 29.8429 12.3925" fill="#F349A1"/>
<path d="M30.3461 14.0242C30.3148 14.5927 29.553 14.8144 29.1664 14.3653C28.8309 13.9787 29.0385 13.3362 29.6553 13.3163C30.184 13.3476 30.3603 13.7683 30.3461 14.0242Z" fill="#95C11F"/>
<path d="M34.0585 13.8195C34.0727 14.1919 33.6435 14.3539 33.3393 14.0895C33.038 13.828 33.146 13.359 33.5156 13.3306C33.527 13.3306 33.5412 13.3306 33.5525 13.3306C33.9079 13.3533 34.05 13.6433 34.0585 13.8195Z" fill="white"/>
<path d="M26.1816 12.7848C26.1191 13.1714 25.5903 13.3163 25.3516 13.015C25.1469 12.7563 25.3345 12.3271 25.7581 12.3129C26.0992 12.3328 26.21 12.6 26.1788 12.7848" fill="#F349A1"/>
<path d="M15.9567 15.3972C15.8203 15.8065 15.3057 15.9657 15.1465 15.6473C15.0101 15.3744 15.2716 14.9139 15.6639 14.894C15.9084 14.894 16.0448 15.13 15.9567 15.4" fill="white"/>
<path d="M15.2546 17.3444C15.1295 17.7708 14.6121 17.9356 14.4359 17.603C14.2881 17.3216 14.5325 16.8441 14.9334 16.8185C15.1864 16.8185 15.3342 17.0629 15.2546 17.3415" fill="white"/>
<path d="M18.1114 14.1521C17.9067 14.857 16.98 15.1584 16.6759 14.6211C16.4143 14.1606 16.8663 13.3675 17.5599 13.3362C18.046 13.3419 18.2251 13.7655 18.1114 14.1521Z" fill="#1D71B8"/>
<path d="M22.8131 11.8723C22.6283 12.6426 21.5226 12.9383 21.1473 12.3186C20.8147 11.77 21.3605 11.0167 22.1081 10.9939C22.8501 11.0394 22.87 11.642 22.8131 11.8723Z" fill="#95C11F"/>
<path d="M20.3201 12.9837C20.1467 13.5437 19.3622 13.7626 19.1035 13.322C18.8846 12.9525 19.2428 12.3271 19.8312 12.2987C20.2121 12.2987 20.4338 12.6142 20.3201 12.9809" fill="#F349A1"/>
<path d="M21.6874 13.8479C21.5311 14.4505 20.6613 14.6495 20.3969 14.1435C20.1922 13.7541 20.539 13.1714 21.136 13.1458C21.5339 13.1458 21.7869 13.4698 21.6874 13.8508" fill="#95C11F"/>
<path d="M24.5187 11.0593C24.4306 11.4402 23.8791 11.5624 23.6972 11.2441C23.5579 10.9968 23.7682 10.6301 24.1463 10.6158C24.3993 10.6158 24.5699 10.8262 24.5158 11.0621" fill="white"/>
<path d="M17.4235 15.7241C17.2984 16.1391 16.764 16.2983 16.5821 15.9742C16.4286 15.7013 16.6759 15.238 17.0881 15.2181C17.3808 15.2181 17.5002 15.4796 17.4263 15.7241" fill="#F349A1"/>
<path d="M19.2968 16.989C19.22 17.2932 18.8192 17.3927 18.6657 17.1454C18.5378 16.9379 18.6941 16.6138 19.004 16.5996C19.2115 16.6024 19.3479 16.7843 19.2968 16.989Z" fill="white"/>
<path d="M18.7368 18.3734C18.6657 18.6804 18.2535 18.7856 18.1 18.5383C17.9664 18.3251 18.1199 17.9925 18.4326 17.9783C18.6657 17.9811 18.7794 18.1886 18.7368 18.3734Z" fill="white"/>
<path d="M20.991 16.2528C20.8801 16.7844 20.1751 16.9777 19.8795 16.5569C19.635 16.2101 19.9079 15.6331 20.4594 15.6132C20.8687 15.6217 21.0535 15.9543 20.991 16.2528Z" fill="#1D71B8"/>
<path d="M24.5841 14.9651C24.4817 15.562 23.6659 15.7525 23.339 15.2579C23.0604 14.8343 23.4101 14.2601 23.9558 14.2487C24.4163 14.2658 24.6409 14.6325 24.5841 14.9651Z" fill="#95C11F"/>
<path d="M22.688 15.5933C22.5914 16.0197 22.0087 16.159 21.7699 15.8122C21.568 15.5194 21.7812 15.0646 22.2389 15.0475C22.5431 15.0532 22.7534 15.3062 22.688 15.5933Z" fill="#F349A1"/>
<path d="M23.683 16.4006C23.5948 16.8384 23.0064 16.9805 22.7563 16.6252C22.5488 16.3324 22.7563 15.8633 23.2139 15.8434C23.5238 15.8491 23.7427 16.1078 23.6858 16.3978" fill="#FCEA10"/>
<path d="M25.903 14.5245C25.8576 14.8087 25.4624 14.9025 25.2919 14.6723C25.1441 14.4733 25.2691 14.1691 25.5761 14.1578C25.8064 14.1606 25.9315 14.3511 25.903 14.5245Z" fill="white"/>
<path d="M20.4395 17.3983C20.3713 17.6997 19.9506 17.8048 19.7885 17.5604C19.6492 17.35 19.8028 17.0231 20.1211 17.0089C20.3372 17.0118 20.485 17.1937 20.4367 17.3983" fill="#F349A1"/>
<path d="M15.229 23.7801C15.1721 24.107 14.7969 24.2235 14.6263 23.9648C14.4728 23.7317 14.6008 23.3622 14.9134 23.348C15.2034 23.3679 15.2517 23.6465 15.229 23.7801Z" fill="white"/>
<path d="M15.8686 25.1843C15.8203 25.5169 15.4365 25.6334 15.2574 25.3719C15.0954 25.136 15.2148 24.7579 15.536 24.7466C15.8345 24.7664 15.8913 25.0507 15.8714 25.1843" fill="white"/>
<path d="M15.9681 22.1768C15.8686 22.7482 15.2091 22.9614 14.9106 22.5151C14.6519 22.1257 14.9021 21.4747 15.4337 21.4576C15.8373 21.4719 16.0249 21.8414 15.9681 22.174" fill="#FCEA10"/>
<path d="M17.7902 18.6321C17.6566 19.2631 16.8749 19.4962 16.5622 18.9959C16.3035 18.5809 16.6162 17.893 17.2188 17.8702C17.6537 17.8816 17.8669 18.271 17.7902 18.6321Z" fill="#95C11F"/>
<path d="M16.7327 20.3575C16.6304 20.8123 16.0732 20.9744 15.8458 20.6162C15.627 20.2722 15.8942 19.7776 16.3092 19.7606C16.6901 19.7861 16.7867 20.1244 16.7356 20.3575" fill="#F349A1"/>
<path d="M18.3417 20.7242C18.1938 21.4292 17.3126 21.6765 16.9317 21.1194C16.5991 20.6333 16.9289 19.8316 17.6395 19.8032C18.2478 19.843 18.4156 20.3632 18.3417 20.7214" fill="#95C11F"/>
<path d="M18.4866 17.1169C18.407 17.4154 18.0233 17.5178 17.8726 17.2847C17.7305 17.0601 17.9238 16.7389 18.2052 16.7275C18.4667 16.7446 18.5264 16.9663 18.4866 17.1198" fill="white"/>
<path d="M16.3632 23.1945C16.3063 23.5214 15.9197 23.6351 15.7463 23.3792C15.59 23.149 15.7208 22.7794 16.042 22.7681C16.3262 22.788 16.3916 23.041 16.3632 23.1973" fill="#F349A1"/>
<path d="M17.5258 31.7025C17.5088 32.018 17.1449 32.1431 16.9289 31.9071C16.7157 31.6797 16.7981 31.2874 17.1392 31.2704C17.3581 31.2732 17.54 31.4751 17.5287 31.7025" fill="white"/>
<path d="M19.0182 32.1544C18.9983 32.4899 18.606 32.5723 18.3985 32.3591C18.1853 32.1374 18.2734 31.7422 18.6174 31.728C18.8476 31.7309 19.0296 31.927 19.0182 32.1573" fill="white"/>
<path d="M16.9004 30.23C16.8805 30.7957 16.258 31.0401 15.8743 30.6308C15.5104 30.2414 15.6639 29.5165 16.2466 29.4909C16.6531 29.4994 16.9118 29.8803 16.9004 30.23Z" fill="#1D71B8"/>
<path d="M15.4678 26.3953C15.4024 27.0434 14.7031 27.3163 14.3165 26.8444C13.9441 26.3896 14.163 25.5624 14.8026 25.5425C15.266 25.5595 15.5104 26.0001 15.4706 26.3953" fill="#95C11F"/>
<path d="M15.9965 28.2941C15.9567 28.7745 15.4336 28.9593 15.1352 28.6011C14.8566 28.2686 15.0072 27.6716 15.4763 27.646C15.7804 27.6489 16.0249 27.953 15.9965 28.2941Z" fill="#F349A1"/>
<path d="M16.818 27.1116C16.764 27.5863 16.2296 27.7739 15.9368 27.4215C15.6554 27.0803 15.8146 26.4919 16.3007 26.4663C16.6133 26.4692 16.855 26.7733 16.818 27.1116Z" fill="#95C11F"/>
<path d="M14.7315 24.5078C14.6747 24.8546 14.3165 24.937 14.1488 24.7181C13.9782 24.4964 14.1033 24.0956 14.4132 24.0785C14.6207 24.0785 14.7685 24.2832 14.7315 24.5106" fill="white"/>
<path d="M24.7489 35.5002C24.7205 35.8129 24.3282 35.9181 24.1122 35.6736C23.9217 35.4547 24.0241 35.0965 24.3623 35.0852C24.6551 35.1051 24.766 35.3382 24.7518 35.5002" fill="white"/>
<path d="M26.0651 34.7838C26.0338 35.0965 25.6302 35.2074 25.4198 34.9601C25.2294 34.7384 25.3374 34.3717 25.6785 34.3631C25.9997 34.383 26.0765 34.6559 26.0651 34.7838Z" fill="white"/>
<path d="M23.4044 35.0852C23.3788 35.6395 22.6966 35.8413 22.2986 35.4121C21.9433 35.0283 22.1167 34.3859 22.7108 34.3745C23.1599 34.3916 23.4214 34.7583 23.4044 35.088" fill="#1D71B8"/>
<path d="M19.7374 33.5416C19.726 34.167 19.0097 34.4257 18.5406 33.9766C18.0915 33.5473 18.2507 32.7542 18.9415 32.7286C19.3821 32.74 19.7459 33.1124 19.7402 33.5416" fill="#95C11F"/>
<path d="M21.4032 34.3091C21.3747 34.7668 20.8034 34.926 20.4765 34.5678C20.1837 34.2466 20.3173 33.7122 20.8204 33.698C21.2895 33.7264 21.4174 34.1244 21.406 34.312" fill="#F349A1"/>
<path d="M21.1331 32.8878C21.099 33.354 20.5191 33.516 20.1922 33.1522C19.9023 32.8281 20.0529 32.2823 20.5475 32.2653C21.0223 32.2937 21.1473 32.6974 21.136 32.8878" fill="#FCEA10"/>
<path d="M17.7333 32.5893C17.7191 32.9106 17.3354 33.0243 17.1222 32.7713C16.9147 32.524 17.0397 32.1686 17.3411 32.1573C17.6253 32.1772 17.7419 32.4216 17.7333 32.5893Z" fill="white"/>
<path d="M24.1093 34.3177C24.0809 34.636 23.6829 34.7441 23.4641 34.4939C23.2708 34.2722 23.3731 33.9055 23.7142 33.8941C24.0269 33.914 24.1236 34.1642 24.1093 34.3177Z" fill="#F349A1"/>
<path d="M32.1995 33.3199C32.154 33.6468 31.7418 33.752 31.5485 33.4876C31.3865 33.263 31.5144 32.9077 31.8384 32.8935C32.0659 32.8992 32.2279 33.0925 32.1966 33.3199" fill="white"/>
<path d="M32.6457 31.819C32.6003 32.1516 32.1852 32.2624 31.9919 31.9895C31.8242 31.7564 31.9493 31.3954 32.2819 31.3841C32.5065 31.3897 32.677 31.5916 32.6457 31.819Z" fill="white"/>
<path d="M31.051 34.15C30.9913 34.7128 30.2778 34.9175 29.9282 34.474C29.6269 34.0874 29.8429 33.4535 30.4257 33.4336C30.8577 33.4478 31.088 33.8145 31.051 34.15Z" fill="#FCEA10"/>
<path d="M27.5631 35.5855C27.5091 36.2165 26.7302 36.4411 26.3038 35.9522C25.9258 35.5172 26.1503 34.7952 26.8155 34.781C27.3187 34.8009 27.5944 35.2159 27.5603 35.5855" fill="#95C11F"/>
<path d="M29.1294 34.8777C29.0697 35.3495 28.4785 35.4974 28.1857 35.1164C27.9355 34.7895 28.1089 34.2864 28.5922 34.2693C28.9191 34.275 29.1692 34.5593 29.1266 34.8777" fill="#F349A1"/>
<path d="M28.0123 33.9879C27.9554 34.4655 27.3585 34.6161 27.06 34.2324C26.8099 33.9083 26.9804 33.3938 27.4637 33.3739C27.7934 33.3796 28.0521 33.6667 28.0123 33.9879Z" fill="#95C11F"/>
<path d="M25.4767 36.0005C25.4482 36.316 25.0389 36.4184 24.8314 36.1654C24.6495 35.9436 24.7546 35.6025 25.0872 35.5912C25.3118 35.594 25.4937 35.7873 25.4767 36.0005Z" fill="white"/>
<path d="M30.9714 32.8622C30.9288 33.192 30.5109 33.3 30.3148 33.0328C30.1442 32.8026 30.2693 32.4472 30.6019 32.433C30.8549 32.4359 30.997 32.6576 30.9714 32.8622Z" fill="#F349A1"/>
<path d="M35.8295 26.1224C35.7982 26.4578 35.4088 26.5687 35.2041 26.3043C35.0222 26.0627 35.1245 25.6846 35.4571 25.6761C35.7556 25.6988 35.8409 25.9632 35.8266 26.1224" fill="white"/>
<path d="M35.0648 24.6982C35.0364 25.028 34.647 25.1388 34.4394 24.8773C34.2547 24.6414 34.3542 24.2661 34.6868 24.2576C34.9852 24.2803 35.0762 24.539 35.062 24.6982" fill="white"/>
<path d="M35.7129 27.8393C35.6646 28.405 35.0165 28.6381 34.6498 28.2231C34.2888 27.8137 34.4764 27.0803 35.079 27.0718C35.5111 27.0945 35.747 27.4868 35.7158 27.8422" fill="#1D71B8"/>
<path d="M34.3115 31.6087C34.2405 32.2738 33.4332 32.5126 33.0409 31.9867C32.7026 31.5347 32.9556 30.79 33.6094 30.7701C34.0955 30.7871 34.3542 31.2192 34.3115 31.6087Z" fill="#95C11F"/>
<path d="M34.8715 29.7666C34.809 30.2442 34.2291 30.4091 33.9448 30.031C33.689 29.6899 33.8652 29.1327 34.3485 29.1185C34.8033 29.1526 34.8971 29.5705 34.8715 29.7666Z" fill="#F349A1"/>
<path d="M33.4871 29.9173C33.4246 30.3977 32.8447 30.5597 32.5491 30.1816C32.2904 29.8462 32.4723 29.2834 32.9527 29.272C33.3734 29.3033 33.5184 29.67 33.4843 29.9201" fill="#95C11F"/>
<path d="M33.0437 33.192C32.9926 33.5189 32.6003 33.6269 32.4041 33.3711C32.2307 33.1437 32.3587 32.7713 32.6912 32.7628C33.0039 32.7855 33.0636 33.0641 33.0437 33.1948" fill="white"/>
<path d="M34.6896 26.7136C34.6555 27.0491 34.2575 27.1628 34.0528 26.8956C33.8681 26.6539 33.9789 26.273 34.3144 26.2645C34.6185 26.2872 34.7038 26.5516 34.6867 26.7136" fill="#F349A1"/>
<path d="M33.1887 18.4899C33.1688 18.8054 32.7879 18.9049 32.5804 18.6491C32.4098 18.4388 32.5008 18.1005 32.8106 18.0891C33.0238 18.0948 33.2029 18.2824 33.1887 18.4899Z" fill="white"/>
<path d="M31.7645 18.0607C31.7389 18.3734 31.3552 18.47 31.1505 18.217C30.98 18.0067 31.0823 17.6741 31.3921 17.6627C31.6053 17.6684 31.7816 17.8532 31.7645 18.0635" fill="white"/>
<path d="M34.3428 19.9027C34.3371 20.4314 33.7231 20.6503 33.328 20.2637C32.9556 19.897 33.0977 19.2262 33.6776 19.2091C34.0784 19.2233 34.3428 19.5786 34.3399 19.9027" fill="#1D71B8"/>
<path d="M36.091 23.5839C36.0597 24.2235 35.3576 24.4736 34.9141 24.0046C34.4934 23.5583 34.6725 22.7567 35.3434 22.7453C35.8295 22.7681 36.108 23.2001 36.091 23.5839Z" fill="#FCEA10"/>
<path d="M35.0933 21.7419C35.0677 22.1939 34.5389 22.3644 34.2234 22.0233C33.9221 21.6993 34.05 21.1478 34.5361 21.1307C34.8516 21.1393 35.1103 21.4235 35.0933 21.7447" fill="#F349A1"/>
<path d="M34.3172 22.8534C34.2831 23.3082 33.7458 23.4816 33.4303 23.1376C33.129 22.8079 33.2626 22.2479 33.7601 22.2308C34.0813 22.2394 34.34 22.5293 34.3172 22.8534Z" fill="#95C11F"/>
<path d="M36.2929 25.389C36.2673 25.7102 35.9006 25.8324 35.6874 25.588C35.4855 25.3549 35.5822 24.9569 35.9205 24.9455C36.1365 24.9512 36.3099 25.1587 36.2929 25.389Z" fill="white"/>
<path d="M31.4916 20.133C31.4462 20.6844 30.7469 20.8607 30.3944 20.4115C30.0931 20.0278 30.2778 19.4422 30.8407 19.4223C31.2188 19.4308 31.5229 19.7634 31.4916 20.133Z" fill="#F349A1"/>
<path d="M26.5426 14.985C26.4972 15.2692 26.1191 15.3659 25.9372 15.1413C25.7751 14.9395 25.8917 14.6211 26.2101 14.6126C26.4915 14.6296 26.5654 14.8514 26.5426 14.985Z" fill="white"/>
<path d="M25.2691 15.6331C25.218 15.9202 24.8314 16.0197 24.6523 15.7923C24.4817 15.5762 24.6466 15.2635 24.9394 15.255C25.2236 15.2721 25.2919 15.4966 25.2691 15.6331Z" fill="white"/>
<path d="M28.271 15.4028C28.2255 15.9031 27.5603 16.0907 27.2249 15.6985C26.9292 15.3517 27.1311 14.7746 27.6712 14.7661C28.0777 14.7831 28.2994 15.11 28.271 15.4028Z" fill="#1D71B8"/>
<path d="M31.7788 16.8298C31.7674 17.4069 31.0766 17.6457 30.6417 17.2221C30.2381 16.8298 30.4058 16.1078 31.0482 16.0908C31.5059 16.105 31.7844 16.4859 31.7788 16.8298Z" fill="#95C11F"/>
<path d="M29.8969 16.122C29.8571 16.5512 29.3199 16.6934 29.0242 16.3523C28.7684 16.0595 28.9162 15.5762 29.3767 15.5648C29.769 15.5904 29.9168 15.906 29.8969 16.122Z" fill="#F349A1"/>
<path d="M30.1158 17.4239C30.076 17.8589 29.5274 18.0038 29.2261 17.6627C28.9646 17.3642 29.1237 16.8639 29.5843 16.8526C30.0249 16.8838 30.1329 17.2505 30.1158 17.4268" fill="#95C11F"/>
<path d="M32.9897 17.6769C32.9755 17.9754 32.6031 18.0806 32.3956 17.8418C32.2108 17.6314 32.2961 17.2875 32.6116 17.279C32.8988 17.2989 32.9954 17.5348 32.9897 17.6769Z" fill="white"/>
<path d="M27.0714 16.0595C27.0287 16.3494 26.6478 16.4489 26.4573 16.2187C26.2896 16.0168 26.4062 15.6842 26.7274 15.6757C27.0173 15.6956 27.0941 15.9202 27.0742 16.0595" fill="#F349A1"/>
<path d="M18.8647 25.5908C18.7851 26.3157 17.8897 26.617 17.4548 26.0627C17.0397 25.5339 17.432 24.738 18.1114 24.7323C18.6572 24.7579 18.9073 25.1928 18.8647 25.588" fill="#95C11F"/>
<path d="M18.7624 23.5754C18.7055 23.9335 18.2478 24.07 18.0403 23.7914C17.8783 23.5754 17.9977 23.1632 18.3985 23.1404C18.6657 23.149 18.7965 23.3735 18.7652 23.5754" fill="white"/>
<path d="M22.327 32.0834C22.3071 32.3136 22.0058 32.4046 21.8523 32.2255C21.7187 32.0691 21.8068 31.8162 22.0569 31.8019C22.219 31.8076 22.3384 31.9355 22.327 32.0862" fill="white"/>
<path d="M30.6076 25.1616C30.565 25.5766 30.0448 25.7301 29.7889 25.4032C29.5899 25.1473 29.698 24.6868 30.1585 24.6613C30.4683 24.6755 30.6332 24.9313 30.6076 25.1616Z" fill="white"/>
<path d="M29.0868 24.0217C29.0441 24.4197 28.5154 24.5732 28.2652 24.2605C28.0691 24.016 28.1828 23.5527 28.6376 23.5271C28.9475 23.5384 29.1124 23.7943 29.0868 24.0217Z" fill="white"/>
<path d="M31.2557 27.2139C31.1989 27.936 30.3034 28.2373 29.8458 27.6858C29.4421 27.1997 29.715 26.3839 30.4768 26.3498C31.0255 26.3782 31.287 26.816 31.2557 27.2139Z" fill="#FCEA10"/>
<path d="M33.8567 25.0763C33.8112 25.7841 32.9414 26.0797 32.4894 25.5396C32.0886 25.0621 32.3416 24.2605 33.0835 24.2292C33.6179 24.2576 33.8795 24.6868 33.8567 25.0763Z" fill="#FCEA10"/>
<path d="M29.5416 26.4294C29.499 26.8359 28.9674 26.995 28.7172 26.6738C28.5154 26.4152 28.6234 25.9461 29.0925 25.9205C29.4023 25.9319 29.5672 26.1934 29.5416 26.4265" fill="#F349A1"/>
<path d="M26.102 29.741C26.0565 30.1532 25.5363 30.3067 25.272 29.9827C25.0673 29.7325 25.1753 29.2606 25.6444 29.235C25.9599 29.2464 26.1276 29.5079 26.102 29.741Z" fill="white"/>
<path d="M26.7644 31.7593C26.7075 32.4614 25.8235 32.7485 25.3516 32.2198C24.9337 31.7479 25.1981 30.9548 25.9713 30.9207C26.5284 30.9463 26.7956 31.3727 26.7644 31.7593Z" fill="#FCEA10"/>
<path d="M26.048 24.8489C25.9855 25.551 25.0701 25.8495 24.6125 25.3179C24.2031 24.8432 24.4846 24.0444 25.2663 24.0074C25.8234 24.033 26.085 24.4594 26.0508 24.8489" fill="#FCEA10"/>
<path d="M25.0247 31.0003C24.982 31.4068 24.4647 31.5575 24.1975 31.2419C23.99 30.9975 24.0951 30.5313 24.5642 30.5057C24.8797 30.5171 25.0474 30.7729 25.0247 31.0032" fill="#F349A1"/>
<path d="M26.3039 19.2517C26.2243 19.9055 25.3402 20.1756 24.911 19.6753C24.5045 19.1977 24.8996 18.4643 25.5648 18.4672C26.1674 18.4984 26.338 18.9646 26.3039 19.2517Z" fill="#1D71B8"/>
<path d="M24.0127 22.8505C23.9217 23.5612 23.0235 23.8454 22.5971 23.2996C22.2673 22.8761 22.4891 22.0432 23.2765 22.0005C23.8535 22.0261 24.0525 22.5122 24.0099 22.8505" fill="#1D71B8"/>
<path d="M23.7825 18.1403C23.6744 18.8111 22.7108 19.0556 22.3469 18.5041C22.0342 18.0266 22.4606 17.3728 23.0803 17.3728C23.6744 17.4012 23.8251 17.8589 23.7796 18.1403" fill="#1D71B8"/>
<path d="M29.8372 22.4156C29.7804 23.2002 28.7712 23.5242 28.2482 22.9244C27.7905 22.4014 28.0975 21.5202 28.956 21.4832C29.57 21.5145 29.8685 21.9864 29.8372 22.4128" fill="#95C11F"/>
<path d="M27.8872 20.8465C27.8076 21.4264 27.0401 21.6197 26.6933 21.1478C26.3891 20.7328 26.716 20.1557 27.2561 20.1529C27.7053 20.1728 27.9298 20.5224 27.8872 20.8465Z" fill="#F349A1"/>
<path d="M28.0265 18.2199C27.9526 18.7656 27.1936 18.9561 26.8667 18.5098C26.5739 18.1118 26.8951 17.5604 27.4153 17.5575C27.8503 17.5774 28.0691 17.91 28.0265 18.2227" fill="#F349A1"/>
<path d="M27.4352 22.4838C27.3585 23.0722 26.5767 23.2712 26.2243 22.7937C25.9116 22.3701 26.2413 21.7788 26.7956 21.7732C27.2988 21.7959 27.4722 22.2024 27.4352 22.4838Z" fill="#95C11F"/>
<path d="M30.9316 30.0537C30.8577 30.8468 29.8429 31.1822 29.3341 30.5796C28.8793 30.0423 29.209 29.1185 30.0561 29.0815C30.6815 29.1128 30.9743 29.6074 30.9316 30.0537Z" fill="#95C11F"/>
<path d="M28.9731 28.3993C28.902 28.9735 28.1629 29.2038 27.7906 28.766C27.421 28.3311 27.7422 27.6545 28.3193 27.6489C28.7826 27.6716 29.0157 28.0468 28.9731 28.3993Z" fill="#F349A1"/>
<path d="M28.5154 30.1248C28.4358 30.7274 27.6512 30.9321 27.2988 30.4432C26.9804 30.0026 27.3101 29.3914 27.8644 29.3857C28.3221 29.4085 28.558 29.7865 28.5154 30.1248Z" fill="#95C11F"/>
<path d="M24.1037 29.0418C24.0582 29.4482 23.5294 29.6046 23.2708 29.2891C23.0632 29.0389 23.1741 28.5614 23.646 28.5358C23.9985 28.55 24.1264 28.8399 24.1037 29.0418Z" fill="white"/>
<path d="M24.8797 27.3646C24.8086 28.1918 23.7853 28.5357 23.2452 27.9104C22.7762 27.3674 23.1088 26.4294 23.9786 26.3867C24.6154 26.418 24.9195 26.9126 24.8797 27.3646Z" fill="#95C11F"/>
<path d="M22.8813 25.7159C22.796 26.327 22.0001 26.5346 21.6448 26.0399C21.3292 25.5993 21.6704 24.9853 22.2332 24.9796C22.7477 25.0024 22.9211 25.4231 22.8813 25.7159Z" fill="#F349A1"/>
<path d="M22.4066 27.447C22.3299 28.0582 21.5368 28.2742 21.1757 27.7796C20.8488 27.3305 21.1786 26.7051 21.75 26.6994C22.219 26.7193 22.4521 27.0946 22.4094 27.447" fill="#95C11F"/>
<path d="M30.8236 24.1155C30.7781 24.5248 30.2466 24.6641 30.0021 24.3315C29.7804 24.033 30.0021 23.618 30.3802 23.6152C30.7241 23.6322 30.8464 23.9193 30.8236 24.1183" fill="white"/>
<path d="M19.5924 23.0552C19.527 23.4105 19.0438 23.5384 18.8505 23.2513C18.6884 23.0097 18.8647 22.6231 19.2229 22.6174C19.4986 22.6288 19.6294 22.8534 19.5952 23.0552" fill="white"/>
<path d="M19.7431 24.7068C19.6862 25.0735 19.1973 25.2042 18.9955 24.9057C18.8249 24.6556 18.9954 24.2662 19.365 24.2605C19.672 24.2747 19.7715 24.5277 19.7459 24.7039" fill="white"/>
<path d="M21.0621 21.6225C20.9683 22.2251 20.1581 22.4781 19.7857 22.0176C19.4304 21.5798 19.8142 20.9005 20.4196 20.9005C20.937 20.926 21.1075 21.3382 21.0621 21.6225Z" fill="#1D71B8"/>
<path d="M22.5516 20.1216C22.4578 20.6191 21.7528 20.7953 21.4742 20.3916C21.2241 20.0278 21.5425 19.519 22.0257 19.5133C22.4635 19.5332 22.5971 19.88 22.5516 20.1216Z" fill="#F349A1"/>
<path d="M21.0677 22.9159C21.0052 23.2769 20.5191 23.402 20.3144 23.112C20.1325 22.8505 20.3486 22.4867 20.6897 22.4838C20.9711 22.4952 21.1047 22.7141 21.0677 22.9187" fill="#F349A1"/>
<path d="M19.8938 28.2913C19.8483 29.0361 18.9699 29.3431 18.5094 28.7745C18.1029 28.2714 18.353 27.4243 19.0978 27.3873C19.5583 27.393 19.9222 27.8052 19.8909 28.2913" fill="#95C11F"/>
<path d="M21.4259 28.8968C21.3918 29.272 20.9427 29.4056 20.7096 29.11C20.5134 28.8627 20.6442 28.4448 21.0166 28.4277C21.3264 28.4448 21.443 28.712 21.4259 28.8968Z" fill="white"/>
<path d="M21.7983 29.8206C21.7613 30.1873 21.315 30.3209 21.0848 30.0367C20.883 29.7837 21.008 29.3743 21.3861 29.3544C21.696 29.3772 21.8097 29.6415 21.7898 29.8206" fill="white"/>
<path d="M20.1126 29.7098C20.0785 30.0765 19.6322 30.2101 19.4048 29.923C19.203 29.67 19.3309 29.2578 19.7089 29.2379C20.0131 29.2606 20.1325 29.5307 20.1154 29.7069" fill="white"/>
<path d="M23.3503 31.205C23.3191 31.8503 22.5544 32.1061 22.1309 31.6143C21.7642 31.1879 21.9859 30.4574 22.634 30.4261C23.0433 30.4318 23.3702 30.7871 23.3503 31.205Z" fill="#1D71B8"/>
<path d="M21.6704 31.3045C21.6619 31.4324 21.5709 31.6541 21.2866 31.6683C20.8744 31.6399 20.7551 31.1538 21.0166 30.9321C21.1161 30.8468 21.2184 30.8411 21.2696 30.8383C21.5567 30.8582 21.6931 31.0913 21.6789 31.3016" fill="#F349A1"/>
</g>
</g>
<defs>
<radialGradient id="paint0_radial_43_916" cx="0" cy="0" r="1" gradientUnits="userSpaceOnUse" gradientTransform="translate(28 28) rotate(90) scale(28)">
<stop stop-color="#5E35B1"/>
<stop offset="1" stop-color="#0A0023"/>
</radialGradient>
<clipPath id="clip0_43_916">
<rect width="56" height="56" fill="white"/>
</clipPath>
</defs>
</svg>

