<svg width="56" height="56" viewBox="0 0 56 56" fill="none" xmlns="http://www.w3.org/2000/svg">
<path d="M51.5971 0V28C51.5971 41.0107 41.0107 51.5971 28 51.5971C14.9893 51.5971 4.40295 41.0107 4.40295 28C4.40295 14.9893 14.9893 4.40295 28 4.40295H31.9214V10.0442H28C18.0824 10.0442 10.0442 18.0824 10.0442 28C10.0442 37.9176 18.0824 45.9558 28 45.9558C37.9176 45.9558 45.9558 37.9176 45.9558 28V0H41.5528V28C41.5528 35.474 35.474 41.5528 28 41.5528C20.526 41.5528 14.4472 35.474 14.4472 28C14.4472 20.526 20.526 14.4472 28 14.4472H31.9214V19.6757H27.9312C23.3714 19.6757 19.6757 23.3714 19.6757 27.9312V28.0688C19.6757 32.6286 23.3714 36.3243 27.9312 36.3243H28.0688C32.6286 36.3243 36.3243 32.6286 36.3243 28.0688V0H28C12.5346 0 0 12.5346 0 28C0 43.4654 12.5346 56 28 56C43.4626 56 56 43.4654 56 28V0H51.5971ZM31.9214 28.0688C31.9214 30.1932 30.1932 31.9214 28.0688 31.9214H27.9312C25.8068 31.9214 24.0786 30.1932 24.0786 28.0688V27.9312C24.0786 25.8068 25.8068 24.0786 27.9312 24.0786H31.9214V28.0688Z" fill="#5F36B2"/>
</svg>
